<svg xmlns="http://www.w3.org/2000/svg" width="512" height="512" viewBox="0 0 512 512">
<g>
<path d="M 446.62 493.25 L 446.50 495.50 L 385.00 495.74 C351.17,495.87 322.90,495.60 322.16,495.13 C321.43,494.66 320.87,493.99 320.91,493.64 C321.55,488.89 320.43,488.44 305.25,487.36 C301.26,487.07 297.95,486.54 297.89,486.17 C297.83,485.80 297.72,484.38 297.64,483.00 C297.41,479.28 296.21,478.00 292.94,478.00 C290.96,478.00 290.00,477.50 290.00,476.46 C290.00,474.54 286.26,470.40 285.35,471.31 C284.98,471.68 284.08,471.48 283.34,470.87 C282.33,470.03 281.96,470.09 281.85,471.13 C281.54,474.08 279.89,460.14 279.86,454.25 C279.84,450.81 279.42,447.94 278.91,447.88 C278.41,447.81 277.44,447.69 276.75,447.62 C275.76,447.53 275.44,408.71 275.23,258.00 C275.08,153.77 275.20,67.47 275.51,66.21 C275.81,64.95 276.44,64.16 276.92,64.45 C279.44,66.01 280.96,58.52 280.91,44.72 C280.90,40.05 280.96,39.95 283.65,40.44 C286.63,40.98 290.00,38.38 290.00,35.54 C290.00,34.50 290.96,34.00 292.94,34.00 C296.86,34.00 299.19,30.13 296.92,27.40 C295.54,25.74 298.03,25.00 305.02,25.00 C308.25,25.00 311.14,24.58 311.45,24.08 C311.77,23.57 313.54,23.29 315.38,23.46 C319.75,23.87 321.26,22.85 321.45,19.35 L 321.60 16.50 L 446.40 16.50 L 446.55 19.35 C446.77,23.56 449.71,25.15 452.36,22.50 C454.29,20.57 454.60,20.60 457.00,23.00 C458.93,24.93 460.00,25.14 468.25,25.21 C471.77,25.24 473.07,26.22 471.16,27.40 C470.18,28.01 470.28,31.02 471.33,32.73 C471.84,33.55 472.82,33.64 474.44,33.02 C476.22,32.35 477.16,32.54 478.27,33.81 C479.08,34.74 479.53,36.08 479.27,36.78 C478.59,38.68 480.73,40.78 484.10,41.52 C486.80,42.11 487.05,42.51 486.85,45.89 C486.73,47.93 487.04,50.25 487.54,51.05 C488.89,53.21 489.02,55.15 488.06,58.69 C487.13,62.13 488.80,65.86 490.74,64.66 C491.32,64.30 492.06,64.72 492.40,65.59 C492.73,66.45 493.00,152.41 493.00,256.61 L 493.00 446.05 L 490.56 446.98 C488.39,447.80 488.12,448.50 488.15,453.08 C488.18,455.93 487.80,458.54 487.32,458.88 C486.33,459.58 486.32,463.51 487.30,466.50 C488.03,468.72 487.16,470.45 485.25,470.60 C484.56,470.65 483.37,470.77 482.59,470.85 C481.81,470.93 480.21,473.00 479.02,475.45 C477.07,479.49 476.65,479.82 474.47,478.99 C472.82,478.36 471.84,478.45 471.33,479.27 C470.28,480.98 470.18,483.99 471.16,484.60 C472.57,485.47 472.10,486.65 470.25,486.88 C469.29,487.00 466.53,487.10 464.12,487.09 C461.71,487.09 458.44,487.76 456.86,488.57 C454.76,489.66 453.46,489.78 452.06,489.03 C450.06,487.96 447.09,488.57 446.88,490.11 C446.81,490.60 446.69,492.01 446.62,493.25 ZM 303.95 464.44 C304.76,465.42 306.67,465.64 310.79,465.25 C317.25,464.63 450.33,464.57 456.50,465.18 C458.70,465.40 461.65,465.21 463.06,464.76 C465.34,464.03 465.63,463.38 465.75,458.78 C465.81,455.95 465.41,452.77 464.86,451.73 C464.10,450.32 464.24,449.39 465.42,448.09 C466.85,446.51 467.00,428.06 467.00,256.00 C467.00,79.88 466.88,65.52 465.34,63.82 C464.04,62.39 463.90,61.48 464.71,59.74 C466.07,56.81 465.83,49.70 464.31,47.87 C463.44,46.82 461.53,46.54 457.31,46.83 C454.11,47.05 420.79,47.41 383.25,47.63 C334.48,47.91 315.00,47.72 315.00,46.94 C315.00,45.66 305.14,46.46 303.74,47.86 C302.00,49.60 301.75,58.60 303.39,60.24 C304.75,61.61 304.71,61.95 302.96,63.54 C301.03,65.28 301.00,68.01 301.00,256.00 C301.00,443.99 301.03,446.72 302.96,448.46 C304.71,450.05 304.75,450.39 303.39,451.76 C301.65,453.50 302.03,462.13 303.95,464.44 ZM 190.73 300.52 L 190.33 303.50 L 128.17 303.76 C93.97,303.90 65.96,303.90 65.92,303.76 C65.87,303.62 65.62,302.16 65.35,300.52 C65.09,298.88 64.65,297.32 64.39,297.05 C63.81,296.47 60.10,296.04 49.75,295.36 C45.49,295.07 41.95,294.54 41.89,294.17 C41.83,293.80 41.72,292.38 41.64,291.00 C41.41,287.28 40.21,286.00 36.94,286.00 C34.96,286.00 34.00,285.50 34.00,284.46 C34.00,282.39 30.41,278.63 29.16,279.40 C28.62,279.74 27.94,279.45 27.66,278.76 C27.26,277.76 27.14,277.76 27.08,278.75 C27.04,279.44 26.61,280.00 26.13,280.00 C25.19,280.00 23.86,268.35 23.94,260.72 C23.98,256.53 23.68,255.83 21.49,255.00 L 19.00 254.05 L 19.00 65.95 L 21.46 65.02 C23.67,64.17 23.91,63.55 23.79,58.79 C23.72,55.88 24.04,52.38 24.51,51.00 C24.97,49.62 25.24,47.04 25.10,45.25 C24.91,42.85 25.26,42.00 26.42,42.00 C27.29,42.00 28.00,41.52 28.00,40.94 C28.00,40.36 28.48,40.18 29.08,40.55 C30.39,41.36 34.00,37.68 34.00,35.54 C34.00,34.51 34.95,34.00 36.88,34.00 C40.36,34.00 41.74,32.41 41.39,28.77 C41.05,25.34 41.65,24.99 48.18,24.85 C53.31,24.75 57.69,23.03 56.33,21.66 C55.96,21.30 56.39,21.00 57.27,21.00 C58.16,21.00 59.16,21.45 59.50,22.00 C59.84,22.55 61.22,23.00 62.56,23.00 C64.29,23.00 65.04,22.42 65.12,21.00 C65.19,19.90 65.31,18.44 65.38,17.75 C65.47,16.76 78.73,16.50 128.00,16.50 C177.27,16.50 190.53,16.76 190.62,17.75 C190.69,18.44 190.81,19.90 190.88,21.00 C191.02,23.27 193.93,23.68 196.87,21.85 C198.36,20.92 199.10,21.10 200.85,22.85 C203.03,25.03 204.10,25.26 211.75,25.22 C215.68,25.21 217.17,26.16 215.16,27.40 C214.18,28.01 214.28,31.02 215.33,32.73 C215.85,33.57 216.81,33.64 218.57,32.97 C220.49,32.24 221.20,32.37 221.64,33.51 C221.95,34.32 222.69,34.69 223.27,34.33 C223.90,33.94 224.12,34.25 223.80,35.09 C222.79,37.74 224.78,40.79 227.97,41.49 C230.86,42.13 231.05,42.44 230.84,46.15 C230.69,48.61 231.11,50.45 231.93,50.96 C232.70,51.43 232.93,52.31 232.47,53.04 C231.96,53.87 232.09,54.06 232.85,53.60 C233.48,53.20 234.00,53.33 234.00,53.88 C234.00,54.43 233.62,55.11 233.17,55.40 C232.71,55.68 232.26,57.74 232.17,59.98 C232.04,63.47 232.37,64.19 234.51,65.00 L 237.00 65.95 L 237.00 159.39 C237.00,210.79 236.74,253.52 236.42,254.36 C236.10,255.19 235.24,255.65 234.52,255.37 C232.51,254.60 231.64,256.86 231.88,262.18 C232.00,264.83 231.72,267.00 231.26,267.00 C230.80,267.00 230.58,269.59 230.76,272.75 C231.09,278.40 231.05,278.50 228.35,278.66 C225.61,278.81 222.68,281.55 223.30,283.40 C223.96,285.37 220.60,287.70 218.29,286.87 C216.86,286.36 215.81,286.50 215.33,287.27 C214.28,288.98 214.18,291.99 215.16,292.60 C216.41,293.37 216.17,294.64 214.75,294.82 C212.39,295.12 201.49,296.00 196.81,296.28 C191.31,296.60 191.25,296.64 190.73,300.52 ZM 49.25 272.93 C50.49,273.40 51.89,273.42 52.37,272.97 C52.85,272.52 54.26,272.62 55.50,273.18 C57.07,273.90 58.38,273.87 59.83,273.09 C62.50,271.66 197.00,271.57 197.00,273.00 C197.00,273.51 198.98,273.77 201.41,273.57 C209.06,272.92 209.48,272.59 209.72,266.89 C209.85,264.07 209.47,260.88 208.89,259.80 C208.09,258.30 208.22,257.42 209.42,256.09 C210.84,254.52 211.00,244.57 211.00,160.00 C211.00,75.43 210.84,65.48 209.42,63.91 C208.25,62.62 208.10,61.68 208.84,60.30 C209.91,58.29 209.41,49.01 208.16,47.76 C207.03,46.63 197.00,45.99 197.00,47.06 C197.00,47.85 69.77,47.72 54.24,46.90 C51.34,46.75 48.50,47.10 47.93,47.67 C46.21,49.39 45.91,58.77 47.52,60.37 C48.71,61.57 48.63,62.02 46.96,63.54 C45.04,65.27 45.00,67.29 45.00,160.03 C45.00,241.04 45.21,254.93 46.43,255.94 C47.95,257.20 48.17,261.00 46.72,261.00 C46.25,261.00 46.09,263.14 46.36,265.75 C46.64,268.36 46.89,270.85 46.93,271.28 C46.97,271.71 48.01,272.45 49.25,272.93 ZM 190.73 492.52 L 190.33 495.50 L 128.17 495.76 C93.97,495.90 65.96,495.90 65.92,495.76 C65.87,495.62 65.62,494.16 65.35,492.52 C65.09,490.88 64.65,489.32 64.39,489.05 C63.81,488.47 60.10,488.04 49.75,487.36 C45.49,487.07 41.95,486.54 41.89,486.17 C41.83,485.80 41.72,484.38 41.64,483.00 C41.41,479.28 40.21,478.00 36.94,478.00 C34.96,478.00 34.00,477.50 34.00,476.46 C34.00,474.39 30.41,470.63 29.16,471.40 C28.62,471.74 27.94,471.45 27.66,470.76 C27.26,469.76 27.14,469.76 27.08,470.75 C27.04,471.44 26.61,472.00 26.13,472.00 C25.19,472.00 23.86,460.35 23.94,452.72 C23.98,448.53 23.68,447.83 21.49,447.00 L 19.00 446.05 L 19.00 385.95 L 21.46 385.02 C23.67,384.17 23.91,383.55 23.79,378.79 C23.72,375.88 24.04,372.38 24.51,371.00 C24.97,369.62 25.24,367.04 25.10,365.25 C24.91,362.85 25.26,362.00 26.42,362.00 C27.29,362.00 28.00,361.52 28.00,360.94 C28.00,360.36 28.48,360.18 29.08,360.55 C30.39,361.36 34.00,357.68 34.00,355.54 C34.00,354.51 34.95,354.00 36.88,354.00 C40.36,354.00 41.74,352.41 41.39,348.77 C41.05,345.34 41.65,344.99 48.18,344.85 C53.31,344.75 57.69,343.03 56.33,341.66 C55.96,341.30 56.39,341.00 57.27,341.00 C58.16,341.00 59.16,341.45 59.50,342.00 C59.84,342.55 61.22,343.00 62.56,343.00 C64.29,343.00 65.04,342.42 65.12,341.00 C65.19,339.90 65.31,338.44 65.38,337.75 C65.47,336.76 78.73,336.50 128.00,336.50 C177.27,336.50 190.53,336.76 190.62,337.75 C190.69,338.44 190.81,339.90 190.88,341.00 C191.02,343.27 193.93,343.68 196.87,341.85 C198.36,340.92 199.10,341.10 200.85,342.85 C203.03,345.03 204.10,345.26 211.75,345.22 C215.68,345.21 217.17,346.16 215.16,347.40 C214.18,348.01 214.28,351.02 215.33,352.73 C215.85,353.57 216.81,353.64 218.57,352.97 C220.49,352.24 221.20,352.37 221.64,353.51 C221.95,354.32 222.69,354.69 223.27,354.33 C223.90,353.94 224.12,354.25 223.80,355.09 C222.79,357.74 224.78,360.79 227.97,361.49 C230.86,362.13 231.05,362.44 230.84,366.15 C230.69,368.61 231.11,370.45 231.93,370.96 C232.70,371.43 232.93,372.31 232.47,373.04 C231.96,373.87 232.09,374.06 232.85,373.60 C233.48,373.20 234.00,373.33 234.00,373.88 C234.00,374.43 233.62,375.11 233.17,375.40 C232.71,375.68 232.26,377.74 232.17,379.98 C232.04,383.47 232.37,384.19 234.51,385.00 L 237.00 385.95 L 237.00 415.39 C237.00,431.59 236.74,445.52 236.42,446.36 C236.10,447.19 235.24,447.65 234.52,447.37 C232.51,446.60 231.64,448.86 231.88,454.18 C232.00,456.83 231.72,459.00 231.26,459.00 C230.80,459.00 230.58,461.59 230.76,464.75 C231.09,470.40 231.05,470.50 228.35,470.66 C225.61,470.81 222.68,473.55 223.30,475.40 C223.96,477.37 220.60,479.70 218.29,478.87 C216.86,478.36 215.81,478.50 215.33,479.27 C214.28,480.98 214.18,483.99 215.16,484.60 C216.41,485.37 216.17,486.64 214.75,486.82 C212.39,487.12 201.49,488.00 196.81,488.28 C191.31,488.60 191.25,488.64 190.73,492.52 ZM 49.25 464.93 C50.49,465.40 51.89,465.42 52.37,464.97 C52.85,464.52 54.26,464.62 55.50,465.18 C57.07,465.90 58.38,465.87 59.83,465.09 C62.50,463.66 197.00,463.57 197.00,465.00 C197.00,465.51 198.98,465.77 201.41,465.57 C209.06,464.92 209.48,464.59 209.72,458.89 C209.85,456.07 209.47,452.88 208.89,451.80 C208.09,450.30 208.22,449.42 209.42,448.09 C210.79,446.58 211.00,442.25 211.00,416.00 C211.00,389.75 210.79,385.42 209.42,383.91 C208.25,382.62 208.10,381.68 208.84,380.30 C209.91,378.29 209.41,369.01 208.16,367.76 C207.03,366.63 197.00,365.99 197.00,367.06 C197.00,367.85 69.77,367.72 54.24,366.90 C51.34,366.75 48.50,367.10 47.93,367.67 C46.21,369.39 45.91,378.77 47.52,380.37 C48.71,381.57 48.63,382.02 46.96,383.54 C45.10,385.22 45.00,386.81 45.00,416.03 C45.00,441.48 45.25,446.96 46.43,447.94 C47.95,449.20 48.17,453.00 46.72,453.00 C46.25,453.00 46.09,455.14 46.36,457.75 C46.64,460.36 46.89,462.85 46.93,463.28 C46.97,463.71 48.01,464.45 49.25,464.93 Z" fill="rgb(0,0,0)"/>
<path d="M 303.95 464.44 C302.03,462.13 301.65,453.50 303.39,451.76 C304.75,450.39 304.71,450.05 302.96,448.46 C301.03,446.72 301.00,443.99 301.00,256.00 C301.00,68.01 301.03,65.28 302.96,63.54 C304.71,61.95 304.75,61.61 303.39,60.24 C301.75,58.60 302.00,49.60 303.74,47.86 C305.14,46.46 315.00,45.66 315.00,46.94 C315.00,47.72 334.48,47.91 383.25,47.63 C420.79,47.41 454.11,47.05 457.31,46.83 C461.53,46.54 463.44,46.82 464.31,47.87 C465.83,49.70 466.07,56.81 464.71,59.74 C463.90,61.48 464.04,62.39 465.34,63.82 C466.88,65.52 467.00,79.88 467.00,256.00 C467.00,428.06 466.85,446.51 465.42,448.09 C464.24,449.39 464.10,450.32 464.86,451.73 C465.41,452.77 465.81,455.95 465.75,458.78 C465.63,463.38 465.34,464.03 463.06,464.76 C461.65,465.21 458.70,465.40 456.50,465.18 C450.33,464.57 317.25,464.63 310.79,465.25 C306.67,465.64 304.76,465.42 303.95,464.44 ZM 312.96 461.70 L 317.39 464.04 L 385.62 463.77 C453.08,463.50 453.89,463.48 456.68,461.41 C458.23,460.26 460.52,457.82 461.76,456.00 L 464.01 452.68 L 463.76 255.41 L 463.50 58.15 L 461.44 55.39 C460.30,53.87 458.13,51.70 456.62,50.56 C453.90,48.53 452.79,48.50 385.18,48.26 L 316.50 48.01 L 312.56 50.26 C310.39,51.49 307.69,54.08 306.56,56.00 C304.50,59.50 304.50,59.53 304.50,256.00 C304.50,451.12 304.51,452.52 306.51,455.93 C307.63,457.83 310.50,460.39 312.96,461.70 ZM 49.25 272.93 C48.01,272.45 46.97,271.71 46.93,271.28 C46.89,270.85 46.64,268.36 46.36,265.75 C46.09,263.14 46.25,261.00 46.72,261.00 C48.17,261.00 47.95,257.20 46.43,255.94 C45.21,254.93 45.00,241.04 45.00,160.03 C45.00,67.29 45.04,65.27 46.96,63.54 C48.63,62.02 48.71,61.57 47.52,60.37 C45.91,58.77 46.21,49.39 47.93,47.67 C48.50,47.10 51.34,46.75 54.24,46.90 C69.77,47.72 197.00,47.85 197.00,47.06 C197.00,45.99 207.03,46.63 208.16,47.76 C209.41,49.01 209.91,58.29 208.84,60.30 C208.10,61.68 208.25,62.62 209.42,63.91 C210.84,65.48 211.00,75.43 211.00,160.00 C211.00,244.57 210.84,254.52 209.42,256.09 C208.22,257.42 208.09,258.30 208.89,259.80 C209.47,260.88 209.85,264.07 209.72,266.89 C209.48,272.59 209.06,272.92 201.41,273.57 C198.98,273.77 197.00,273.51 197.00,273.00 C197.00,271.57 62.50,271.66 59.83,273.09 C58.38,273.87 57.07,273.90 55.50,273.18 C54.26,272.62 52.85,272.52 52.37,272.97 C51.89,273.42 50.49,273.40 49.25,272.93 ZM 56.95 269.73 L 61.39 272.04 L 129.62 271.77 C197.08,271.50 197.89,271.48 200.68,269.41 C202.23,268.26 204.51,265.83 205.75,264.01 L 208.00 260.70 L 208.00 59.30 L 205.75 55.99 C204.51,54.17 202.23,51.74 200.68,50.59 C197.89,48.52 197.08,48.50 129.68,48.23 L 61.50 47.96 L 57.02 50.23 C54.36,51.58 51.73,53.92 50.52,56.00 C48.53,59.44 48.50,61.20 48.23,159.00 L 47.96 258.50 L 50.23 262.96 C51.86,266.15 53.76,268.07 56.95,269.73 ZM 49.25 464.93 C48.01,464.45 46.97,463.71 46.93,463.28 C46.89,462.85 46.64,460.36 46.36,457.75 C46.09,455.14 46.25,453.00 46.72,453.00 C48.17,453.00 47.95,449.20 46.43,447.94 C45.25,446.96 45.00,441.48 45.00,416.03 C45.00,386.81 45.10,385.22 46.96,383.54 C48.63,382.02 48.71,381.57 47.52,380.37 C45.91,378.77 46.21,369.39 47.93,367.67 C48.50,367.10 51.34,366.75 54.24,366.90 C69.77,367.72 197.00,367.85 197.00,367.06 C197.00,365.99 207.03,366.63 208.16,367.76 C209.41,369.01 209.91,378.29 208.84,380.30 C208.10,381.68 208.25,382.62 209.42,383.91 C210.79,385.42 211.00,389.75 211.00,416.00 C211.00,442.25 210.79,446.58 209.42,448.09 C208.22,449.42 208.09,450.30 208.89,451.80 C209.47,452.88 209.85,456.07 209.72,458.89 C209.48,464.59 209.06,464.92 201.41,465.57 C198.98,465.77 197.00,465.51 197.00,465.00 C197.00,463.57 62.50,463.66 59.83,465.09 C58.38,465.87 57.07,465.90 55.50,465.18 C54.26,464.62 52.85,464.52 52.37,464.97 C51.89,465.42 50.49,465.40 49.25,464.93 ZM 56.95 461.73 L 61.39 464.04 L 129.62 463.77 C197.08,463.50 197.89,463.48 200.68,461.41 C202.23,460.26 204.51,457.83 205.75,456.01 C207.98,452.73 208.00,452.42 208.00,416.00 C208.00,379.58 207.98,379.27 205.75,375.99 C204.51,374.17 202.23,371.74 200.68,370.59 C197.89,368.52 197.08,368.50 129.68,368.23 L 61.50 367.96 L 57.02 370.23 C48.52,374.54 48.54,374.43 48.22,415.00 C47.93,450.27 47.95,450.53 50.22,454.96 C51.85,458.14 53.77,460.07 56.95,461.73 ZM 446.62 493.25 C446.69,492.01 446.81,490.60 446.88,490.11 C447.09,488.57 450.06,487.96 452.06,489.03 C453.46,489.78 454.76,489.66 456.86,488.57 C458.44,487.76 461.71,487.09 464.12,487.09 C466.53,487.10 469.29,487.00 470.25,486.88 C472.10,486.65 472.57,485.47 471.16,484.60 C470.18,483.99 470.28,480.98 471.33,479.27 C471.84,478.45 472.82,478.36 474.47,478.99 C476.65,479.82 477.07,479.49 479.02,475.45 C480.21,473.00 481.81,470.93 482.59,470.85 C483.37,470.77 484.56,470.65 485.25,470.60 C487.16,470.45 488.03,468.72 487.30,466.50 C486.32,463.51 486.33,459.58 487.32,458.88 C487.80,458.54 488.18,455.93 488.15,453.08 C488.12,448.50 488.39,447.80 490.56,446.98 L 493.00 446.05 L 493.00 256.61 C493.00,152.41 492.73,66.45 492.40,65.59 C492.06,64.72 491.32,64.30 490.74,64.66 C488.80,65.86 487.13,62.13 488.06,58.69 C489.02,55.15 488.89,53.21 487.54,51.05 C487.04,50.25 486.73,47.93 486.85,45.89 C487.05,42.51 486.80,42.11 484.10,41.52 C480.73,40.78 478.59,38.68 479.27,36.78 C479.53,36.08 479.08,34.74 478.27,33.81 C477.16,32.54 476.22,32.35 474.44,33.02 C472.82,33.64 471.84,33.55 471.33,32.73 C470.28,31.02 470.18,28.01 471.16,27.40 C473.07,26.22 471.77,25.24 468.25,25.21 C460.00,25.14 458.93,24.93 457.00,23.00 C454.60,20.60 454.29,20.57 452.36,22.50 C449.71,25.15 446.77,23.56 446.55,19.35 L 446.40 16.50 L 323.11 16.50 C334.77,16.06 353.13,16.03 384.07,16.02 C428.21,16.01 453.69,16.37 457.57,17.08 C470.53,19.44 483.17,28.46 489.76,40.06 C490.53,41.41 491.21,42.40 491.80,43.45 C496.02,50.92 496.02,60.79 496.00,218.82 C496.00,230.40 496.00,242.77 496.00,256.00 C496.00,432.25 495.83,455.25 494.45,460.54 C490.38,476.16 477.86,489.13 462.14,494.02 C456.06,495.92 452.80,496.00 384.64,495.93 C325.77,495.88 312.57,495.62 308.10,494.42 C290.64,489.72 276.31,474.24 273.08,456.57 C271.56,448.22 271.56,63.78 273.08,55.43 C275.55,41.94 285.61,28.16 297.72,21.70 C303.50,18.61 306.79,17.20 321.60,16.56 L 321.45 19.35 C321.26,22.85 319.75,23.87 315.38,23.46 C313.54,23.29 311.77,23.57 311.45,24.08 C311.14,24.58 308.25,25.00 305.02,25.00 C298.03,25.00 295.54,25.74 296.92,27.40 C299.19,30.13 296.86,34.00 292.94,34.00 C290.96,34.00 290.00,34.50 290.00,35.54 C290.00,38.38 286.63,40.98 283.65,40.44 C280.96,39.95 280.90,40.05 280.91,44.72 C280.96,58.52 279.44,66.01 276.92,64.45 C276.44,64.16 275.81,64.95 275.51,66.21 C275.20,67.47 275.08,153.77 275.23,258.00 C275.44,408.71 275.76,447.53 276.75,447.62 C277.44,447.69 278.41,447.81 278.91,447.88 C279.42,447.94 279.84,450.81 279.86,454.25 C279.89,460.14 281.54,474.08 281.85,471.13 C281.96,470.09 282.33,470.03 283.34,470.87 C284.08,471.48 284.98,471.68 285.35,471.31 C286.26,470.40 290.00,474.54 290.00,476.46 C290.00,477.50 290.96,478.00 292.94,478.00 C296.21,478.00 297.41,479.28 297.64,483.00 C297.72,484.38 297.83,485.80 297.89,486.17 C297.95,486.54 301.26,487.07 305.25,487.36 C320.43,488.44 321.55,488.89 320.91,493.64 C320.87,493.99 321.43,494.66 322.16,495.13 C322.90,495.60 351.17,495.87 385.00,495.74 L 446.50 495.50 ZM 190.73 300.52 C191.25,296.64 191.31,296.60 196.81,296.28 C201.49,296.00 212.39,295.12 214.75,294.82 C216.17,294.64 216.41,293.37 215.16,292.60 C214.18,291.99 214.28,288.98 215.33,287.27 C215.81,286.50 216.86,286.36 218.29,286.87 C220.60,287.70 223.96,285.37 223.30,283.40 C222.68,281.55 225.61,278.81 228.35,278.66 C231.05,278.50 231.09,278.40 230.76,272.75 C230.58,269.59 230.80,267.00 231.26,267.00 C231.72,267.00 232.00,264.83 231.88,262.18 C231.64,256.86 232.51,254.60 234.52,255.37 C235.24,255.65 236.10,255.19 236.42,254.36 C236.74,253.52 237.00,210.79 237.00,159.39 L 237.00 65.95 L 234.51 65.00 C232.37,64.19 232.04,63.47 232.17,59.98 C232.26,57.74 232.71,55.68 233.17,55.40 C233.62,55.11 234.00,54.43 234.00,53.88 C234.00,53.33 233.48,53.20 232.85,53.60 C232.09,54.06 231.96,53.87 232.47,53.04 C232.93,52.31 232.70,51.43 231.93,50.96 C231.11,50.45 230.69,48.61 230.84,46.15 C231.05,42.44 230.86,42.13 227.97,41.49 C224.78,40.79 222.79,37.74 223.80,35.09 C224.12,34.25 223.90,33.94 223.27,34.33 C222.69,34.69 221.95,34.32 221.64,33.51 C221.20,32.37 220.49,32.24 218.57,32.97 C216.81,33.64 215.85,33.57 215.33,32.73 C214.28,31.02 214.18,28.01 215.16,27.40 C217.17,26.16 215.68,25.21 211.75,25.22 C204.10,25.26 203.03,25.03 200.85,22.85 C199.10,21.10 198.36,20.92 196.87,21.85 C193.93,23.68 191.02,23.27 190.88,21.00 C190.81,19.90 190.69,18.44 190.62,17.75 C190.53,16.76 177.27,16.50 128.00,16.50 C78.73,16.50 65.47,16.76 65.38,17.75 C65.31,18.44 65.19,19.90 65.12,21.00 C65.04,22.42 64.29,23.00 62.56,23.00 C61.22,23.00 59.84,22.55 59.50,22.00 C59.16,21.45 58.16,21.00 57.27,21.00 C56.39,21.00 55.96,21.30 56.33,21.66 C57.69,23.03 53.31,24.75 48.18,24.85 C41.65,24.99 41.05,25.34 41.39,28.77 C41.74,32.41 40.36,34.00 36.88,34.00 C34.95,34.00 34.00,34.51 34.00,35.54 C34.00,37.68 30.39,41.36 29.08,40.55 C28.48,40.18 28.00,40.36 28.00,40.94 C28.00,41.52 27.29,42.00 26.42,42.00 C25.26,42.00 24.91,42.85 25.10,45.25 C25.24,47.04 24.97,49.62 24.51,51.00 C24.04,52.38 23.72,55.88 23.79,58.79 C23.91,63.55 23.67,64.17 21.46,65.02 L 19.00 65.95 L 19.00 254.05 L 21.49 255.00 C23.68,255.83 23.98,256.53 23.94,260.72 C23.86,268.35 25.19,280.00 26.13,280.00 C26.61,280.00 27.04,279.44 27.08,278.75 C27.14,277.76 27.26,277.76 27.66,278.76 C27.94,279.45 28.62,279.74 29.16,279.40 C30.41,278.63 34.00,282.39 34.00,284.46 C34.00,285.50 34.96,286.00 36.94,286.00 C40.21,286.00 41.41,287.28 41.64,291.00 C41.72,292.38 41.83,293.80 41.89,294.17 C41.95,294.54 45.49,295.07 49.75,295.36 C60.10,296.04 63.81,296.47 64.39,297.05 C64.65,297.32 65.09,298.88 65.35,300.52 C65.54,301.70 65.73,302.79 65.84,303.35 C58.47,303.10 53.50,302.79 52.10,302.42 C34.64,297.72 20.31,282.24 17.08,264.57 C15.58,256.32 15.58,63.68 17.08,55.43 C19.55,41.94 29.61,28.16 41.72,21.70 C52.02,16.19 54.41,16.04 128.07,16.02 C172.74,16.01 197.64,16.37 201.57,17.09 C218.55,20.22 232.79,33.02 238.02,49.86 C239.94,56.01 240.00,59.43 240.00,159.40 C240.00,163.37 240.00,167.20 240.00,170.90 C240.01,258.07 240.01,267.88 236.09,275.75 C235.43,277.08 234.66,278.36 233.75,279.94 C227.54,290.81 216.45,299.34 204.48,302.46 C203.03,302.84 197.90,303.15 190.35,303.40 ZM 190.73 492.52 C191.25,488.64 191.31,488.60 196.81,488.28 C201.49,488.00 212.39,487.12 214.75,486.82 C216.17,486.64 216.41,485.37 215.16,484.60 C214.18,483.99 214.28,480.98 215.33,479.27 C215.81,478.50 216.86,478.36 218.29,478.87 C220.60,479.70 223.96,477.37 223.30,475.40 C222.68,473.55 225.61,470.81 228.35,470.66 C231.05,470.50 231.09,470.40 230.76,464.75 C230.58,461.59 230.80,459.00 231.26,459.00 C231.72,459.00 232.00,456.83 231.88,454.18 C231.64,448.86 232.51,446.60 234.52,447.37 C235.24,447.65 236.10,447.19 236.42,446.36 C236.74,445.52 237.00,431.59 237.00,415.39 L 237.00 385.95 L 234.51 385.00 C232.37,384.19 232.04,383.47 232.17,379.98 C232.26,377.74 232.71,375.68 233.17,375.40 C233.62,375.11 234.00,374.43 234.00,373.88 C234.00,373.33 233.48,373.20 232.85,373.60 C232.09,374.06 231.96,373.87 232.47,373.04 C232.93,372.31 232.70,371.43 231.93,370.96 C231.11,370.45 230.69,368.61 230.84,366.15 C231.05,362.44 230.86,362.13 227.97,361.49 C224.78,360.79 222.79,357.74 223.80,355.09 C224.12,354.25 223.90,353.94 223.27,354.33 C222.69,354.69 221.95,354.32 221.64,353.51 C221.20,352.37 220.49,352.24 218.57,352.97 C216.81,353.64 215.85,353.57 215.33,352.73 C214.28,351.02 214.18,348.01 215.16,347.40 C217.17,346.16 215.68,345.21 211.75,345.22 C204.10,345.26 203.03,345.03 200.85,342.85 C199.10,341.10 198.36,340.92 196.87,341.85 C193.93,343.68 191.02,343.27 190.88,341.00 C190.81,339.90 190.69,338.44 190.62,337.75 C190.53,336.76 177.27,336.50 128.00,336.50 C78.73,336.50 65.47,336.76 65.38,337.75 C65.31,338.44 65.19,339.90 65.12,341.00 C65.04,342.42 64.29,343.00 62.56,343.00 C61.22,343.00 59.84,342.55 59.50,342.00 C59.16,341.45 58.16,341.00 57.27,341.00 C56.39,341.00 55.96,341.30 56.33,341.66 C57.69,343.03 53.31,344.75 48.18,344.85 C41.65,344.99 41.05,345.34 41.39,348.77 C41.74,352.41 40.36,354.00 36.88,354.00 C34.95,354.00 34.00,354.51 34.00,355.54 C34.00,357.68 30.39,361.36 29.08,360.55 C28.48,360.18 28.00,360.36 28.00,360.94 C28.00,361.52 27.29,362.00 26.42,362.00 C25.26,362.00 24.91,362.85 25.10,365.25 C25.24,367.04 24.97,369.62 24.51,371.00 C24.04,372.38 23.72,375.88 23.79,378.79 C23.91,383.55 23.67,384.17 21.46,385.02 L 19.00 385.95 L 19.00 446.05 L 21.49 447.00 C23.68,447.83 23.98,448.53 23.94,452.72 C23.86,460.35 25.19,472.00 26.13,472.00 C26.61,472.00 27.04,471.44 27.08,470.75 C27.14,469.76 27.26,469.76 27.66,470.76 C27.94,471.45 28.62,471.74 29.16,471.40 C30.41,470.63 34.00,474.39 34.00,476.46 C34.00,477.50 34.96,478.00 36.94,478.00 C40.21,478.00 41.41,479.28 41.64,483.00 C41.72,484.38 41.83,485.80 41.89,486.17 C41.95,486.54 45.49,487.07 49.75,487.36 C60.10,488.04 63.81,488.47 64.39,489.05 C64.65,489.32 65.09,490.88 65.35,492.52 C65.54,493.70 65.73,494.79 65.84,495.35 C58.47,495.10 53.50,494.79 52.10,494.42 C34.64,489.72 20.31,474.24 17.08,456.57 C15.64,448.68 15.64,383.32 17.08,375.43 C19.55,361.94 29.61,348.16 41.72,341.70 C52.02,336.19 54.41,336.04 128.07,336.02 C172.74,336.01 197.64,336.37 201.57,337.09 C218.55,340.22 232.79,353.02 238.02,369.86 C239.85,375.73 240.00,379.17 240.00,415.40 C240.00,458.69 239.68,461.56 233.75,471.94 C227.54,482.81 216.45,491.34 204.48,494.46 C203.03,494.84 197.90,495.15 190.35,495.40 ZM 89.26 303.86 C99.93,303.85 113.48,303.82 128.17,303.76 L 186.51 303.52 C162.57,304.17 120.13,304.28 89.26,303.86 ZM 89.26 495.86 C99.93,495.85 113.48,495.82 128.17,495.76 L 186.51 495.52 C162.57,496.17 120.13,496.28 89.26,495.86 Z" fill="rgb(1,1,1)"/>
<path d="M 0.00 256.00 L 0.00 0.00 L 256.00 0.00 L 512.00 0.00 L 512.00 256.00 L 512.00 512.00 L 256.00 512.00 L 0.00 512.00 L 0.00 256.00 ZM 204.48 494.46 C216.45,491.34 227.54,482.81 233.75,471.94 C239.68,461.56 240.00,458.69 240.00,415.40 C240.00,379.17 239.85,375.73 238.02,369.86 C232.79,353.02 218.55,340.22 201.57,337.09 C197.64,336.37 172.74,336.01 128.07,336.02 C54.41,336.04 52.02,336.19 41.72,341.70 C29.61,348.16 19.55,361.94 17.08,375.43 C15.64,383.32 15.64,448.68 17.08,456.57 C20.31,474.24 34.64,489.72 52.10,494.42 C60.39,496.65 195.94,496.69 204.48,494.46 ZM 462.14 494.02 C477.86,489.13 490.38,476.16 494.45,460.54 C495.83,455.25 496.00,432.25 496.00,256.00 C496.00,37.00 496.43,51.77 489.76,40.06 C483.17,28.46 470.53,19.44 457.57,17.08 C453.69,16.37 428.21,16.01 384.07,16.02 C310.41,16.04 308.02,16.19 297.72,21.70 C285.61,28.16 275.55,41.94 273.08,55.43 C271.56,63.78 271.56,448.22 273.08,456.57 C276.31,474.24 290.64,489.72 308.10,494.42 C312.57,495.62 325.77,495.88 384.64,495.93 C452.80,496.00 456.06,495.92 462.14,494.02 ZM 204.48 302.46 C216.45,299.34 227.54,290.81 233.75,279.94 C240.23,268.59 240.00,273.12 240.00,159.40 C240.00,59.43 239.94,56.01 238.02,49.86 C232.79,33.02 218.55,20.22 201.57,17.09 C197.64,16.37 172.74,16.01 128.07,16.02 C54.41,16.04 52.02,16.19 41.72,21.70 C29.61,28.16 19.55,41.94 17.08,55.43 C15.58,63.68 15.58,256.32 17.08,264.57 C20.31,282.24 34.64,297.72 52.10,302.42 C60.39,304.65 195.94,304.69 204.48,302.46 ZM 56.95 461.73 C53.77,460.07 51.85,458.14 50.22,454.96 C47.95,450.53 47.93,450.27 48.22,415.00 C48.54,374.43 48.52,374.54 57.02,370.23 L 61.50 367.96 L 129.68 368.23 C197.08,368.50 197.89,368.52 200.68,370.59 C202.23,371.74 204.51,374.17 205.75,375.99 C207.98,379.27 208.00,379.58 208.00,416.00 C208.00,452.42 207.98,452.73 205.75,456.01 C204.51,457.83 202.23,460.26 200.68,461.41 C197.89,463.48 197.08,463.50 129.62,463.77 L 61.39 464.04 L 56.95 461.73 ZM 312.96 461.70 C310.50,460.39 307.63,457.83 306.51,455.93 C304.51,452.52 304.50,451.12 304.50,256.00 C304.50,59.53 304.50,59.50 306.56,56.00 C307.69,54.08 310.39,51.49 312.56,50.26 L 316.50 48.01 L 385.18 48.26 C452.79,48.50 453.90,48.53 456.62,50.56 C458.13,51.70 460.30,53.87 461.44,55.39 L 463.50 58.15 L 463.76 255.41 L 464.01 452.68 L 461.76 456.00 C460.52,457.82 458.23,460.26 456.68,461.41 C453.89,463.48 453.08,463.50 385.62,463.77 L 317.39 464.04 L 312.96 461.70 ZM 56.95 269.73 C53.76,268.07 51.86,266.15 50.23,262.96 L 47.96 258.50 L 48.23 159.00 C48.50,61.20 48.53,59.44 50.52,56.00 C51.73,53.92 54.36,51.58 57.02,50.23 L 61.50 47.96 L 129.68 48.23 C197.08,48.50 197.89,48.52 200.68,50.59 C202.23,51.74 204.51,54.17 205.75,55.99 L 208.00 59.30 L 208.00 160.00 L 208.00 260.70 L 205.75 264.01 C204.51,265.83 202.23,268.26 200.68,269.41 C197.89,271.48 197.08,271.50 129.62,271.77 L 61.39 272.04 L 56.95 269.73 Z" fill="rgb(254,254,254)"/>
</g>
</svg>