<?xml version="1.0" standalone="no"?>
<!DOCTYPE svg PUBLIC "-//W3C//DTD SVG 20010904//EN"
 "http://www.w3.org/TR/2001/REC-SVG-20010904/DTD/svg10.dtd">
<svg version="1.0" xmlns="http://www.w3.org/2000/svg"
 width="512.000000pt" height="512.000000pt" viewBox="0 0 512.000000 512.000000"
 preserveAspectRatio="xMidYMid meet">

<g transform="translate(0.000000,512.000000) scale(0.100000,-0.100000)"
fill="#000000" stroke="none">
<path d="M2382 4820 c-40 -11 -103 -35 -140 -55 -37 -19 -411 -284 -832 -589
-859 -621 -905 -659 -978 -806 -82 -166 -76 -75 -80 -1270 -2 -734 1 -1091 8
-1150 38 -292 230 -546 483 -639 l72 -26 1610 -3 c1173 -2 1626 0 1670 8 33 7
92 27 130 44 189 88 323 245 398 466 l32 95 3 1120 c2 984 1 1129 -13 1190
-30 138 -117 282 -227 377 -35 30 -391 292 -793 583 -401 290 -745 539 -762
552 -48 35 -169 90 -238 108 -84 21 -251 19 -343 -5z m293 -205 c32 -9 79 -26
104 -39 50 -25 1565 -1119 1620 -1170 51 -47 109 -143 132 -216 19 -64 19 -91
17 -1165 l-3 -1100 -23 -65 c-66 -181 -182 -304 -333 -351 -55 -17 -95 -19
-414 -19 l-354 0 -3 552 c-4 547 -4 554 -27 623 -89 268 -287 457 -549 522
-101 26 -496 25 -605 0 -253 -60 -459 -250 -546 -505 l-26 -77 -3 -557 -3
-558 -335 0 c-309 0 -339 2 -394 20 -130 44 -230 134 -295 265 -67 136 -65 95
-65 1281 0 1041 1 1074 20 1136 21 70 80 167 126 210 53 49 1588 1157 1632
1178 104 50 222 62 327 35z m128 -2640 c176 -46 321 -182 379 -355 22 -63 22
-81 26 -597 l3 -533 -670 0 -671 0 0 508 c0 396 3 521 14 573 41 191 195 351
388 403 77 21 453 21 531 1z"/>
<path d="M2517 3570 c-93 -17 -167 -108 -167 -207 0 -227 297 -293 402 -89 29
56 22 149 -15 204 -46 71 -134 107 -220 92z"/>
</g>
</svg>
