<svg id="svg" version="1.1" width="400" height="400" viewBox="0 0 400 400" xmlns="http://www.w3.org/2000/svg" xmlns:xlink="http://www.w3.org/1999/xlink"><g id="svgg"><path id="path0" d="M0.000 200.000 L 0.000 400.000 200.000 400.000 L 400.000 400.000 400.000 200.000 L 400.000 0.000 200.000 0.000 L 0.000 0.000 0.000 200.000 M245.632 116.582 C 279.849 121.740,295.635 162.643,274.045 190.200 C 270.353 194.913,245.518 219.363,243.423 220.347 C 233.043 225.226,222.501 213.809,227.958 203.600 C 228.252 203.050,234.478 196.570,241.793 189.200 C 258.994 171.869,259.477 171.153,259.883 162.419 C 260.192 155.759,258.407 151.207,253.600 146.400 C 248.798 141.598,244.351 139.829,237.800 140.115 C 228.816 140.509,228.239 140.897,210.576 158.456 C 203.082 165.905,196.647 172.000,196.276 172.000 C 195.904 172.000,195.600 172.136,195.600 172.303 C 195.600 173.269,188.904 174.044,187.295 173.263 C 186.913 173.078,185.757 172.519,184.726 172.022 C 179.493 169.495,177.054 162.105,179.639 156.606 C 180.534 154.703,203.276 131.455,208.898 126.696 C 215.382 121.208,223.060 117.803,232.400 116.273 C 234.795 115.880,242.111 116.052,245.632 116.582 M227.007 164.619 C 234.376 166.761,237.768 174.175,234.579 181.168 C 233.013 184.600,184.563 233.059,181.178 234.578 C 169.699 239.729,159.164 226.866,166.619 216.800 C 168.383 214.417,216.713 166.235,217.998 165.578 C 220.963 164.061,223.981 163.739,227.007 164.619 M166.679 179.580 C 169.013 180.639,170.928 182.491,171.988 184.713 C 172.483 185.751,173.048 186.913,173.244 187.295 C 174.045 188.857,173.281 195.600,172.303 195.600 C 172.136 195.600,172.000 195.901,172.000 196.270 C 172.000 196.638,165.907 203.073,158.461 210.570 C 140.883 228.266,140.508 228.822,140.115 237.800 C 139.827 244.387,141.601 248.843,146.405 253.600 C 151.280 258.427,155.778 260.192,162.419 259.883 C 171.167 259.477,171.816 259.036,189.430 241.539 C 196.927 234.093,203.362 228.000,203.730 228.000 C 204.099 228.000,204.400 227.864,204.400 227.697 C 204.400 226.731,211.096 225.956,212.705 226.737 C 213.087 226.922,214.243 227.481,215.274 227.978 C 220.471 230.488,222.923 237.943,220.351 243.415 C 218.772 246.774,191.305 273.815,186.313 276.924 C 165.969 289.596,139.221 284.663,124.916 265.600 C 112.339 248.839,113.302 223.893,127.129 208.314 C 132.257 202.536,154.651 180.686,156.354 179.799 C 158.802 178.524,164.105 178.411,166.679 179.580 " stroke="none" fill="#eeeef2" fill-rule="evenodd"></path><path id="path1" d="M231.800 117.045 C 225.752 117.939,212.400 123.334,212.400 124.885 C 212.400 125.058,212.221 125.200,212.003 125.200 C 210.547 125.200,181.488 154.370,180.348 156.976 C 176.622 165.490,183.961 174.867,192.589 172.620 C 196.391 171.629,197.293 170.942,205.092 163.088 C 228.295 139.722,228.656 139.465,238.400 139.421 C 243.000 139.400,243.609 139.522,247.496 141.247 C 248.428 141.661,249.373 142.000,249.596 142.000 C 249.818 142.000,250.000 142.141,250.000 142.314 C 250.000 142.486,250.548 142.951,251.218 143.347 C 253.780 144.860,258.800 150.920,258.800 152.498 C 258.800 152.796,258.949 153.211,259.130 153.420 C 260.542 155.043,261.136 164.363,260.047 167.800 C 258.230 173.537,256.875 175.131,237.480 194.346 C 233.564 198.226,229.771 202.300,229.052 203.400 C 222.847 212.889,232.654 224.388,242.909 219.649 C 245.879 218.276,274.800 189.615,274.800 188.044 C 274.800 187.854,275.066 187.477,275.392 187.207 C 275.717 186.937,276.228 186.240,276.526 185.658 C 276.825 185.076,277.451 183.933,277.918 183.118 C 282.418 175.257,284.631 160.178,282.454 152.200 C 278.354 137.169,267.123 123.526,256.200 120.306 C 255.760 120.176,254.320 119.675,253.000 119.191 C 248.111 117.401,246.686 117.167,239.800 117.016 C 236.060 116.935,232.460 116.948,231.800 117.045 M221.400 165.152 C 218.365 165.953,216.135 168.009,191.560 192.671 C 166.488 217.831,166.110 218.234,165.410 220.541 C 162.581 229.864,172.295 238.304,180.906 234.004 C 183.574 232.672,232.509 183.720,233.952 180.940 C 238.140 172.874,230.161 162.839,221.400 165.152 M157.400 180.205 C 154.493 181.400,125.200 210.321,125.200 211.997 C 125.200 212.218,125.053 212.400,124.874 212.400 C 124.695 212.400,124.182 213.075,123.735 213.900 C 123.288 214.725,122.456 216.223,121.887 217.229 C 117.549 224.903,115.409 239.969,117.546 247.800 C 120.172 257.427,124.721 265.605,130.189 270.531 C 130.635 270.933,131.630 271.842,132.400 272.551 C 147.087 286.073,172.601 286.724,189.400 274.006 C 193.123 271.187,218.863 244.828,219.645 243.033 C 222.617 236.213,218.917 228.886,211.689 227.278 C 206.718 226.173,204.068 227.670,195.287 236.547 C 175.428 256.622,173.542 258.234,167.800 260.045 C 164.349 261.133,155.043 260.541,153.420 259.130 C 153.211 258.949,152.796 258.800,152.498 258.800 C 151.012 258.800,145.465 254.311,143.601 251.600 C 143.072 250.830,142.540 250.110,142.419 250.000 C 142.084 249.695,141.218 247.735,139.947 244.400 C 139.256 242.586,139.257 234.368,139.949 232.200 C 141.792 226.426,142.652 225.424,163.800 204.385 C 172.255 195.974,173.805 193.182,172.722 188.311 C 171.142 181.206,164.070 177.464,157.400 180.205 " stroke="none" fill="#241e24" fill-rule="evenodd"></path><path id="path2" d="M235.500 116.296 C 236.875 116.374,239.125 116.374,240.500 116.296 C 241.875 116.218,240.750 116.154,238.000 116.154 C 235.250 116.154,234.125 116.218,235.500 116.296 M229.600 116.800 L 228.600 117.120 229.600 117.113 C 230.150 117.109,231.140 116.968,231.800 116.800 L 233.000 116.495 231.800 116.487 C 231.140 116.483,230.150 116.624,229.600 116.800 M245.400 116.853 C 246.280 117.057,247.990 117.434,249.200 117.692 C 250.410 117.950,252.566 118.580,253.992 119.092 C 255.418 119.605,256.408 119.860,256.192 119.659 C 255.589 119.097,251.183 117.639,248.135 116.993 C 245.178 116.367,242.765 116.243,245.400 116.853 M225.058 117.852 C 223.990 118.180,223.211 118.544,223.328 118.661 C 223.525 118.859,225.541 118.321,227.400 117.575 C 228.780 117.022,227.125 117.217,225.058 117.852 M256.833 120.143 C 256.925 120.222,258.478 121.059,260.285 122.003 C 262.092 122.948,264.862 124.774,266.441 126.060 C 269.256 128.355,270.761 129.275,268.795 127.500 C 266.554 125.476,263.217 123.157,260.343 121.625 C 257.771 120.254,256.180 119.582,256.833 120.143 M216.597 121.461 C 210.959 124.455,208.949 126.221,193.350 141.878 C 180.767 154.508,178.779 156.861,178.809 159.096 C 178.815 159.483,179.261 158.720,179.802 157.400 C 180.702 155.201,182.014 153.777,195.492 140.374 C 209.584 126.362,211.976 124.268,216.700 121.809 C 217.855 121.208,218.800 120.645,218.800 120.558 C 218.800 120.304,218.692 120.348,216.597 121.461 M272.503 131.800 C 275.719 135.773,277.614 138.728,279.645 142.934 C 280.512 144.730,281.103 145.750,280.957 145.200 C 280.050 141.774,275.188 134.035,271.660 130.400 C 270.455 129.159,270.717 129.594,272.503 131.800 M236.512 139.895 C 237.564 139.977,239.184 139.976,240.112 139.892 C 241.040 139.808,240.180 139.741,238.200 139.742 C 236.220 139.743,235.460 139.812,236.512 139.895 M232.000 140.400 L 231.000 140.720 232.000 140.754 C 232.550 140.773,233.270 140.613,233.600 140.400 C 234.364 139.906,233.542 139.906,232.000 140.400 M243.200 140.400 C 243.530 140.613,244.160 140.778,244.600 140.766 L 245.400 140.744 244.600 140.400 C 243.404 139.886,242.405 139.886,243.200 140.400 M227.956 142.088 C 225.532 143.309,197.842 169.730,197.658 170.998 C 197.626 171.217,203.585 165.427,210.900 158.131 C 223.323 145.741,228.068 141.600,229.838 141.600 C 230.121 141.600,230.464 141.420,230.600 141.200 C 230.966 140.608,230.751 140.680,227.956 142.088 M247.600 141.767 C 247.600 141.886,248.357 142.370,249.282 142.842 C 251.637 144.043,255.473 147.806,256.887 150.300 C 257.541 151.455,258.160 152.400,258.263 152.400 C 258.894 152.400,255.915 148.069,253.907 146.067 C 251.847 144.013,247.600 141.118,247.600 141.767 M282.068 149.400 C 282.062 149.840,282.211 150.560,282.400 151.000 C 282.838 152.019,282.838 150.968,282.400 149.600 C 282.143 148.796,282.077 148.757,282.068 149.400 M282.887 153.000 C 282.883 153.660,283.024 154.650,283.200 155.200 L 283.520 156.200 283.513 155.200 C 283.509 154.650,283.368 153.660,283.200 153.000 L 282.895 151.800 282.887 153.000 M259.268 155.400 C 259.262 155.840,259.411 156.560,259.600 157.000 C 260.038 158.019,260.038 156.968,259.600 155.600 C 259.343 154.796,259.277 154.757,259.268 155.400 M283.753 162.200 C 283.753 164.840,283.818 165.868,283.897 164.484 C 283.975 163.101,283.974 160.941,283.895 159.684 C 283.816 158.428,283.752 159.560,283.753 162.200 M260.142 161.800 C 260.141 163.780,260.208 164.640,260.292 163.712 C 260.376 162.784,260.377 161.164,260.295 160.112 C 260.212 159.060,260.143 159.820,260.142 161.800 M178.827 164.313 C 178.787 165.070,179.974 167.760,180.233 167.500 C 180.355 167.378,180.281 166.945,180.069 166.539 C 179.856 166.133,179.496 165.350,179.268 164.800 C 179.040 164.250,178.842 164.031,178.827 164.313 M221.600 164.366 C 220.986 164.541,221.827 164.655,223.780 164.659 C 225.649 164.664,226.639 164.541,226.180 164.361 C 225.213 163.983,222.930 163.985,221.600 164.366 M217.578 165.956 C 215.682 167.188,167.472 215.377,166.112 217.400 C 165.668 218.060,165.187 219.050,165.043 219.600 C 164.898 220.150,165.161 219.844,165.625 218.919 C 166.887 216.410,216.406 166.854,218.800 165.704 C 219.790 165.229,220.320 164.831,219.978 164.820 C 219.636 164.809,218.556 165.320,217.578 165.956 M229.000 165.661 C 229.880 166.115,231.303 167.142,232.162 167.943 C 233.021 168.745,233.458 169.002,233.134 168.515 C 232.204 167.117,228.753 164.761,227.720 164.818 C 227.544 164.827,228.120 165.207,229.000 165.661 M259.449 166.615 C 259.312 166.973,259.216 167.656,259.236 168.133 C 259.262 168.747,259.385 168.608,259.659 167.656 C 260.057 166.272,259.894 165.458,259.449 166.615 M283.018 169.018 C 282.865 170.039,282.830 170.963,282.940 171.073 C 283.050 171.183,283.265 170.439,283.418 169.418 C 283.571 168.398,283.606 167.473,283.496 167.363 C 283.386 167.253,283.171 167.998,283.018 169.018 M181.600 169.776 C 182.300 170.664,185.563 172.807,186.178 172.784 C 186.410 172.775,186.060 172.480,185.400 172.127 C 184.740 171.775,183.480 170.931,182.600 170.251 C 181.720 169.571,181.270 169.358,181.600 169.776 M258.235 170.579 C 256.920 173.725,253.842 177.218,242.002 189.000 C 230.171 200.773,227.177 204.068,227.218 205.272 C 227.227 205.562,227.609 205.080,228.067 204.200 C 228.539 203.290,234.722 196.733,242.399 189.000 C 249.825 181.520,256.395 174.603,257.001 173.628 C 258.195 171.705,259.332 169.200,259.011 169.200 C 258.901 169.200,258.551 169.821,258.235 170.579 M234.278 170.995 C 234.644 171.762,235.014 172.319,235.101 172.232 C 235.284 172.049,234.070 169.600,233.796 169.600 C 233.695 169.600,233.912 170.228,234.278 170.995 M282.180 173.053 C 282.037 173.684,281.562 175.248,281.124 176.530 C 280.685 177.811,280.410 178.943,280.511 179.045 C 280.613 179.146,281.197 177.690,281.809 175.809 C 282.421 173.927,282.813 172.280,282.680 172.147 C 282.547 172.014,282.322 172.422,282.180 173.053 M187.462 173.300 C 187.700 173.686,192.853 173.681,193.462 173.294 C 193.717 173.132,192.429 173.000,190.601 173.000 C 188.773 173.000,187.361 173.135,187.462 173.300 M235.341 176.220 C 235.345 178.173,235.459 179.014,235.634 178.400 C 236.015 177.070,236.017 174.787,235.639 173.820 C 235.459 173.361,235.336 174.351,235.341 176.220 M156.328 179.812 C 154.188 180.926,128.584 206.236,125.578 210.208 C 123.049 213.550,120.795 217.311,119.890 219.700 C 119.316 221.215,119.971 220.263,121.375 217.541 C 124.256 211.957,126.129 209.785,140.557 195.294 C 153.768 182.026,155.205 180.704,157.400 179.803 C 158.720 179.262,159.440 178.823,159.000 178.828 C 158.560 178.833,157.358 179.276,156.328 179.812 M165.000 179.297 C 165.660 179.535,166.785 180.058,167.500 180.458 C 168.215 180.859,168.800 181.032,168.800 180.842 C 168.800 180.444,165.108 178.785,164.326 178.832 C 164.037 178.849,164.340 179.058,165.000 179.297 M170.441 182.800 C 171.163 183.790,171.810 184.675,171.877 184.767 C 171.945 184.858,172.000 184.753,172.000 184.533 C 172.000 184.313,171.354 183.428,170.564 182.567 L 169.127 181.000 170.441 182.800 M278.194 183.300 C 277.594 184.455,276.293 186.566,275.302 187.990 C 274.311 189.415,273.787 190.343,274.136 190.053 C 275.185 189.182,278.615 183.782,279.315 181.900 C 279.821 180.539,279.270 181.227,278.194 183.300 M232.699 183.500 C 231.051 185.636,183.958 232.669,182.400 233.734 C 181.404 234.416,181.404 234.416,182.600 233.837 C 183.941 233.188,233.243 183.915,233.968 182.500 C 234.670 181.128,234.310 181.411,232.699 183.500 M173.000 190.601 C 173.000 192.429,173.132 193.717,173.294 193.462 C 173.681 192.853,173.686 187.700,173.300 187.462 C 173.135 187.361,173.000 188.773,173.000 190.601 M259.000 205.154 C 246.016 218.090,244.384 219.582,242.400 220.330 C 241.190 220.785,240.517 221.168,240.904 221.179 C 243.130 221.245,245.475 219.257,258.518 206.243 C 271.377 193.414,273.928 190.796,273.570 190.803 C 273.476 190.805,266.920 197.263,259.000 205.154 M157.534 210.963 C 150.348 218.243,143.909 225.041,143.226 226.069 C 141.813 228.197,140.549 231.002,141.179 230.613 C 141.411 230.470,141.600 230.121,141.600 229.838 C 141.600 228.081,145.770 223.304,158.130 210.900 C 165.420 203.585,171.208 197.628,170.992 197.663 C 170.776 197.698,164.720 203.683,157.534 210.963 M226.643 206.633 C 226.303 207.519,226.351 212.103,226.706 212.662 C 226.868 212.916,227.000 211.521,227.000 209.562 C 227.000 205.700,227.000 205.701,226.643 206.633 M227.216 213.822 C 227.193 214.437,229.336 217.700,230.224 218.400 C 230.642 218.730,230.429 218.280,229.749 217.400 C 229.069 216.520,228.225 215.260,227.873 214.600 C 227.520 213.940,227.225 213.590,227.216 213.822 M118.677 222.677 C 118.300 223.693,118.058 224.591,118.138 224.672 C 118.219 224.752,118.600 223.993,118.985 222.985 C 119.370 221.976,119.612 221.079,119.523 220.990 C 119.435 220.901,119.054 221.660,118.677 222.677 M164.175 222.628 C 164.024 223.634,164.069 225.029,164.275 225.728 C 164.585 226.784,164.651 226.472,164.658 223.900 C 164.668 220.338,164.561 220.056,164.175 222.628 M117.649 225.600 C 117.616 225.930,117.489 226.650,117.367 227.200 C 117.175 228.064,117.207 228.103,117.599 227.488 C 117.848 227.097,117.975 226.377,117.881 225.888 C 117.786 225.400,117.682 225.270,117.649 225.600 M206.538 226.706 C 206.283 226.868,207.571 227.000,209.399 227.000 C 211.227 227.000,212.639 226.865,212.538 226.700 C 212.300 226.314,207.147 226.319,206.538 226.706 M214.600 227.873 C 215.260 228.225,216.520 229.069,217.400 229.749 C 218.280 230.429,218.730 230.642,218.400 230.224 C 217.700 229.336,214.437 227.193,213.822 227.216 C 213.590 227.225,213.940 227.520,214.600 227.873 M164.818 227.716 C 164.702 229.776,171.152 236.181,172.243 235.090 C 172.334 235.000,171.704 234.608,170.843 234.219 C 168.959 233.370,166.787 231.182,165.661 229.000 C 165.207 228.120,164.827 227.542,164.818 227.716 M116.600 230.400 C 116.445 231.528,116.408 232.541,116.518 232.651 C 116.628 232.761,116.845 231.928,117.000 230.800 C 117.155 229.672,117.192 228.659,117.082 228.549 C 116.972 228.439,116.755 229.272,116.600 230.400 M189.382 241.639 C 177.372 253.672,171.959 258.400,170.190 258.400 C 169.892 258.400,169.540 258.573,169.410 258.784 C 168.974 259.489,171.634 258.323,173.831 256.846 C 175.699 255.590,202.564 229.231,202.273 228.939 C 202.213 228.880,196.412 234.594,189.382 241.639 M140.449 231.600 C 140.416 231.930,140.289 232.650,140.167 233.200 C 139.975 234.064,140.007 234.103,140.399 233.488 C 140.648 233.097,140.775 232.377,140.681 231.888 C 140.586 231.400,140.482 231.270,140.449 231.600 M220.311 234.227 C 220.637 235.218,220.989 235.945,221.092 235.841 C 221.336 235.598,220.437 232.870,220.030 232.618 C 219.858 232.513,219.985 233.237,220.311 234.227 M116.155 238.200 C 116.156 241.060,116.220 242.178,116.297 240.683 C 116.374 239.189,116.374 236.849,116.296 235.483 C 116.218 234.118,116.155 235.340,116.155 238.200 M139.742 238.200 C 139.741 240.180,139.808 241.040,139.892 240.112 C 139.976 239.184,139.977 237.564,139.895 236.512 C 139.812 235.460,139.743 236.220,139.742 238.200 M173.800 235.624 C 174.779 236.015,177.051 236.020,178.400 235.634 C 179.021 235.456,178.186 235.339,176.200 235.326 C 174.221 235.312,173.305 235.426,173.800 235.624 M220.264 242.470 C 219.591 244.419,218.265 245.861,204.664 259.432 C 189.344 274.718,187.329 276.434,181.600 279.070 C 180.170 279.728,178.550 280.477,178.000 280.735 L 177.000 281.204 178.000 280.958 C 184.400 279.384,189.644 275.222,206.251 258.536 C 219.273 245.451,221.508 242.805,221.121 240.928 C 221.055 240.604,220.669 241.298,220.264 242.470 M140.034 243.200 C 140.046 243.530,140.211 244.160,140.400 244.600 L 140.744 245.400 140.766 244.600 C 140.778 244.160,140.613 243.530,140.400 243.200 C 140.055 242.667,140.015 242.667,140.034 243.200 M116.487 244.800 C 116.491 245.350,116.632 246.340,116.800 247.000 L 117.105 248.200 117.113 247.000 C 117.117 246.340,116.976 245.350,116.800 244.800 L 116.480 243.800 116.487 244.800 M117.444 249.900 C 117.599 250.725,117.977 251.940,118.284 252.600 C 118.736 253.569,118.795 253.608,118.592 252.800 C 118.454 252.250,118.159 251.035,117.938 250.100 C 117.441 248.000,117.060 247.846,117.444 249.900 M143.083 250.328 C 144.448 252.856,152.400 259.588,152.400 258.216 C 152.400 258.106,151.644 257.630,150.719 257.159 C 149.075 256.320,144.434 251.983,143.059 250.000 C 142.454 249.127,142.457 249.169,143.083 250.328 M119.024 254.800 C 120.043 258.390,124.863 266.034,128.357 269.600 L 130.120 271.400 128.451 269.400 C 125.165 265.463,122.967 262.163,120.870 258.014 C 119.699 255.696,118.868 254.250,119.024 254.800 M155.400 259.600 C 155.840 259.789,156.560 259.944,157.000 259.944 L 157.800 259.944 157.000 259.600 C 156.560 259.411,155.840 259.256,155.400 259.256 L 154.600 259.256 155.400 259.600 M166.400 259.600 C 165.636 260.094,166.458 260.094,168.000 259.600 L 169.000 259.280 168.000 259.246 C 167.450 259.227,166.730 259.387,166.400 259.600 M160.112 260.295 C 161.164 260.377,162.784 260.376,163.712 260.292 C 164.640 260.208,163.780 260.141,161.800 260.142 C 159.820 260.143,159.060 260.212,160.112 260.295 M130.400 271.378 C 130.400 273.260,147.087 283.047,148.273 281.860 C 148.353 281.780,147.559 281.404,146.509 281.022 C 141.195 279.092,135.511 275.809,132.199 272.757 C 131.210 271.844,130.400 271.224,130.400 271.378 M173.800 282.045 C 172.185 282.646,172.070 282.743,173.200 282.548 C 174.755 282.279,177.345 281.255,176.400 281.283 C 176.070 281.292,174.900 281.635,173.800 282.045 M149.600 282.400 C 150.968 282.838,152.019 282.838,151.000 282.400 C 150.560 282.211,149.840 282.062,149.400 282.068 C 148.757 282.077,148.796 282.143,149.600 282.400 M153.000 283.200 C 153.660 283.368,154.650 283.509,155.200 283.513 L 156.200 283.520 155.200 283.200 C 154.650 283.024,153.660 282.883,153.000 282.887 L 151.800 282.895 153.000 283.200 M168.200 283.200 L 167.000 283.505 168.200 283.513 C 168.860 283.517,169.850 283.376,170.400 283.200 L 171.400 282.880 170.400 282.887 C 169.850 282.891,168.860 283.032,168.200 283.200 M159.516 283.897 C 160.899 283.975,163.059 283.974,164.316 283.895 C 165.572 283.816,164.440 283.752,161.800 283.753 C 159.160 283.753,158.132 283.818,159.516 283.897 " stroke="none" fill="#8f8e90" fill-rule="evenodd"></path><path id="path3" d="M270.200 129.600 C 271.059 130.480,271.852 131.200,271.962 131.200 C 272.072 131.200,271.459 130.480,270.600 129.600 C 269.741 128.720,268.948 128.000,268.838 128.000 C 268.728 128.000,269.341 128.720,270.200 129.600 M202.975 180.500 L 201.800 181.800 203.100 180.625 C 203.815 179.979,204.400 179.394,204.400 179.325 C 204.400 179.016,204.070 179.288,202.975 180.500 M200.175 183.300 L 199.000 184.600 200.300 183.425 C 201.512 182.330,201.784 182.000,201.475 182.000 C 201.406 182.000,200.821 182.585,200.175 183.300 M229.387 186.900 L 227.000 189.400 229.500 187.013 C 230.875 185.699,232.000 184.574,232.000 184.513 C 232.000 184.217,231.605 184.578,229.387 186.900 M223.600 192.600 C 221.961 194.250,220.710 195.600,220.820 195.600 C 220.930 195.600,222.361 194.250,224.000 192.600 C 225.639 190.950,226.890 189.600,226.780 189.600 C 226.670 189.600,225.239 190.950,223.600 192.600 M214.200 202.000 C 210.906 205.300,208.300 208.000,208.410 208.000 C 208.520 208.000,211.306 205.300,214.600 202.000 C 217.894 198.700,220.500 196.000,220.390 196.000 C 220.280 196.000,217.494 198.700,214.200 202.000 M204.800 211.400 C 203.161 213.050,201.910 214.400,202.020 214.400 C 202.130 214.400,203.561 213.050,205.200 211.400 C 206.839 209.750,208.090 208.400,207.980 208.400 C 207.870 208.400,206.439 209.750,204.800 211.400 M195.994 220.300 L 190.600 225.800 196.100 220.406 C 199.125 217.439,201.600 214.964,201.600 214.906 C 201.600 214.619,201.006 215.191,195.994 220.300 M186.189 230.100 L 183.400 233.000 186.300 230.211 C 188.994 227.620,189.383 227.200,189.089 227.200 C 189.028 227.200,187.723 228.505,186.189 230.100 M144.800 252.925 C 144.800 252.994,145.385 253.579,146.100 254.225 L 147.400 255.400 146.225 254.100 C 145.130 252.888,144.800 252.616,144.800 252.925 " stroke="none" fill="#747475" fill-rule="evenodd"></path><path id="path4" d="M235.700 116.697 C 237.185 116.774,239.615 116.774,241.100 116.697 C 242.585 116.620,241.370 116.557,238.400 116.557 C 235.430 116.557,234.215 116.620,235.700 116.697 M266.433 126.500 C 266.525 126.555,267.140 127.050,267.800 127.600 L 269.000 128.600 268.030 127.500 C 267.497 126.895,266.882 126.400,266.664 126.400 C 266.445 126.400,266.342 126.445,266.433 126.500 M194.598 141.300 L 181.000 155.000 194.700 141.402 C 207.433 128.765,208.580 127.600,208.298 127.600 C 208.242 127.600,202.077 133.765,194.598 141.300 M270.800 130.525 C 270.800 130.594,271.385 131.179,272.100 131.825 L 273.400 133.000 272.225 131.700 C 271.130 130.488,270.800 130.216,270.800 130.525 M237.091 139.489 C 237.801 139.577,239.061 139.579,239.891 139.492 C 240.721 139.405,240.140 139.333,238.600 139.331 C 237.060 139.329,236.381 139.400,237.091 139.489 M242.433 139.744 C 242.525 139.823,243.140 140.008,243.800 140.156 C 244.676 140.352,244.838 140.315,244.400 140.018 C 243.860 139.653,242.032 139.398,242.433 139.744 M222.981 145.300 L 221.400 147.000 223.100 145.419 C 224.681 143.948,224.984 143.600,224.681 143.600 C 224.616 143.600,223.851 144.365,222.981 145.300 M180.186 156.427 C 179.837 157.102,179.607 157.814,179.676 158.009 C 179.744 158.204,180.102 157.651,180.470 156.782 C 181.265 154.906,181.087 154.684,180.186 156.427 M259.844 156.200 C 260.173 157.671,260.402 157.990,260.394 156.967 C 260.391 156.545,260.205 155.930,259.982 155.600 C 259.685 155.162,259.648 155.324,259.844 156.200 M209.179 158.956 C 207.981 160.141,206.555 161.626,206.011 162.256 C 205.467 162.885,206.502 161.964,208.311 160.209 C 210.120 158.455,211.600 156.970,211.600 156.909 C 211.600 156.619,211.196 156.960,209.179 158.956 M283.286 161.250 C 283.239 163.808,283.111 166.508,283.001 167.250 L 282.803 168.600 283.214 167.295 C 283.440 166.578,283.568 163.878,283.499 161.295 L 283.372 156.600 283.286 161.250 M260.528 161.600 C 260.528 163.030,260.601 163.615,260.689 162.900 C 260.778 162.185,260.778 161.015,260.689 160.300 C 260.601 159.585,260.528 160.170,260.528 161.600 M178.893 161.600 C 178.893 162.370,178.975 162.685,179.076 162.300 C 179.176 161.915,179.176 161.285,179.076 160.900 C 178.975 160.515,178.893 160.830,178.893 161.600 M219.100 165.627 C 218.275 166.063,217.600 166.509,217.600 166.620 C 217.600 166.730,218.185 166.516,218.900 166.143 C 219.615 165.771,220.740 165.335,221.400 165.174 C 222.485 164.910,222.504 164.880,221.600 164.859 C 221.050 164.846,219.925 165.192,219.100 165.627 M230.924 167.266 C 231.542 167.781,232.413 168.652,232.859 169.201 C 233.305 169.751,233.537 169.930,233.375 169.600 C 232.909 168.649,231.473 167.163,230.600 166.728 C 230.144 166.500,230.283 166.731,230.924 167.266 M191.496 192.307 C 177.473 206.336,166.000 217.976,166.000 218.174 C 166.000 218.372,166.045 218.452,166.100 218.354 C 166.155 218.255,177.718 206.615,191.796 192.487 C 205.873 178.359,217.302 166.800,217.192 166.800 C 217.082 166.800,205.518 178.278,191.496 192.307 M191.800 172.800 C 190.781 173.238,191.832 173.238,193.200 172.800 C 194.004 172.543,194.043 172.477,193.400 172.468 C 192.960 172.462,192.240 172.611,191.800 172.800 M254.975 176.500 L 253.800 177.800 255.100 176.625 C 255.815 175.979,256.400 175.394,256.400 175.325 C 256.400 175.016,256.070 175.288,254.975 176.500 M161.105 179.083 C 161.602 179.179,162.322 179.175,162.705 179.075 C 163.087 178.975,162.680 178.896,161.800 178.901 C 160.920 178.905,160.607 178.987,161.105 179.083 M167.200 180.511 C 167.200 180.587,167.785 181.078,168.500 181.601 C 169.304 182.190,169.584 182.287,169.233 181.855 C 168.700 181.199,167.200 180.207,167.200 180.511 M233.780 181.264 C 233.619 181.772,232.392 183.360,231.055 184.794 L 228.623 187.400 230.942 185.200 C 233.148 183.108,234.684 180.951,234.266 180.533 C 234.160 180.427,233.941 180.755,233.780 181.264 M141.398 194.500 L 128.200 207.800 141.500 194.602 C 153.861 182.337,154.980 181.200,154.698 181.200 C 154.641 181.200,148.656 187.185,141.398 194.500 M224.592 191.300 L 221.000 195.000 224.700 191.408 C 226.735 189.433,228.400 187.768,228.400 187.708 C 228.400 187.418,227.928 187.864,224.592 191.300 M172.600 192.400 C 172.448 193.091,172.407 193.741,172.509 193.842 C 172.611 193.944,172.809 193.453,172.950 192.750 C 173.283 191.083,172.960 190.760,172.600 192.400 M258.798 205.100 L 245.400 218.600 258.900 205.202 C 266.325 197.833,272.400 191.758,272.400 191.702 C 272.400 191.420,271.249 192.553,258.798 205.100 M218.386 197.500 L 216.200 199.800 218.500 197.614 C 220.637 195.582,220.983 195.200,220.686 195.200 C 220.624 195.200,219.589 196.235,218.386 197.500 M212.800 203.000 C 211.161 204.650,209.910 206.000,210.020 206.000 C 210.130 206.000,211.561 204.650,213.200 203.000 C 214.839 201.350,216.090 200.000,215.980 200.000 C 215.870 200.000,214.439 201.350,212.800 203.000 M229.600 202.000 C 229.130 202.660,228.836 203.200,228.946 203.200 C 229.056 203.200,229.530 202.660,230.000 202.000 C 230.470 201.340,230.764 200.800,230.654 200.800 C 230.544 200.800,230.070 201.340,229.600 202.000 M159.385 208.900 L 157.400 211.000 159.500 209.015 C 160.655 207.923,161.600 206.978,161.600 206.915 C 161.600 206.617,161.229 206.949,159.385 208.900 M126.401 209.798 C 125.886 210.348,125.539 210.864,125.632 210.946 C 125.724 211.028,126.219 210.578,126.730 209.947 C 127.876 208.535,127.674 208.444,126.401 209.798 M205.381 210.500 L 203.800 212.200 205.500 210.619 C 207.081 209.148,207.384 208.800,207.081 208.800 C 207.016 208.800,206.251 209.565,205.381 210.500 M199.586 216.300 L 197.400 218.600 199.700 216.414 C 201.837 214.382,202.183 214.000,201.886 214.000 C 201.824 214.000,200.789 215.035,199.586 216.300 M230.767 218.145 C 231.300 218.801,232.800 219.793,232.800 219.489 C 232.800 219.413,232.215 218.922,231.500 218.399 C 230.696 217.810,230.416 217.713,230.767 218.145 M193.385 222.500 L 191.400 224.600 193.500 222.615 C 194.655 221.523,195.600 220.578,195.600 220.515 C 195.600 220.217,195.229 220.549,193.385 222.500 M237.500 221.082 C 237.995 221.178,238.805 221.178,239.300 221.082 C 239.795 220.987,239.390 220.909,238.400 220.909 C 237.410 220.909,237.005 220.987,237.500 221.082 M144.575 223.700 L 143.400 225.000 144.700 223.825 C 145.912 222.730,146.184 222.400,145.875 222.400 C 145.806 222.400,145.221 222.985,144.575 223.700 M188.000 227.800 C 186.361 229.450,185.110 230.800,185.220 230.800 C 185.330 230.800,186.761 229.450,188.400 227.800 C 190.039 226.150,191.290 224.800,191.180 224.800 C 191.070 224.800,189.639 226.150,188.000 227.800 M206.800 227.200 C 205.996 227.457,205.957 227.523,206.600 227.532 C 207.040 227.538,207.760 227.389,208.200 227.200 C 209.219 226.762,208.168 226.762,206.800 227.200 M117.429 228.229 C 117.281 228.815,117.238 229.372,117.332 229.466 C 117.427 229.560,117.624 229.158,117.771 228.571 C 117.919 227.985,117.962 227.428,117.868 227.334 C 117.773 227.240,117.576 227.642,117.429 228.229 M166.728 230.600 C 167.163 231.473,168.649 232.909,169.600 233.375 C 169.930 233.537,169.751 233.305,169.201 232.859 C 168.652 232.413,167.781 231.542,167.266 230.924 C 166.731 230.283,166.500 230.144,166.728 230.600 M218.399 231.500 C 218.922 232.215,219.413 232.800,219.489 232.800 C 219.793 232.800,218.801 231.300,218.145 230.767 C 217.713 230.416,217.810 230.696,218.399 231.500 M183.366 232.312 C 182.687 232.910,181.787 233.628,181.366 233.906 C 180.933 234.191,181.122 234.164,181.800 233.844 C 182.460 233.531,183.436 232.809,183.970 232.238 C 185.225 230.894,184.933 230.930,183.366 232.312 M116.494 238.200 C 116.486 241.060,116.605 243.850,116.758 244.399 C 116.911 244.948,116.974 242.968,116.900 239.999 C 116.717 232.727,116.512 231.820,116.494 238.200 M220.901 238.200 C 220.905 239.080,220.987 239.393,221.083 238.895 C 221.179 238.398,221.175 237.678,221.075 237.295 C 220.975 236.913,220.896 237.320,220.901 238.200 M139.606 243.033 C 139.609 243.455,139.795 244.070,140.018 244.400 C 140.315 244.838,140.352 244.676,140.156 243.800 C 139.827 242.329,139.598 242.010,139.606 243.033 M204.998 258.900 L 191.400 272.600 205.100 259.002 C 212.635 251.523,218.800 245.358,218.800 245.302 C 218.800 245.020,217.635 246.167,204.998 258.900 M176.175 255.300 L 175.000 256.600 176.300 255.425 C 177.512 254.330,177.784 254.000,177.475 254.000 C 177.406 254.000,176.821 254.585,176.175 255.300 M155.600 259.982 C 155.930 260.205,156.545 260.391,156.967 260.394 C 157.990 260.402,157.671 260.173,156.200 259.844 C 155.324 259.648,155.162 259.685,155.600 259.982 M159.891 260.689 C 160.601 260.777,161.861 260.779,162.691 260.692 C 163.521 260.605,162.940 260.533,161.400 260.531 C 159.860 260.529,159.181 260.600,159.891 260.689 M126.800 267.325 C 126.800 267.394,127.385 267.979,128.100 268.625 L 129.400 269.800 128.225 268.500 C 127.130 267.288,126.800 267.016,126.800 267.325 M130.400 270.925 C 130.400 270.994,130.985 271.579,131.700 272.225 L 133.000 273.400 131.825 272.100 C 130.730 270.888,130.400 270.616,130.400 270.925 M155.676 283.260 C 156.184 283.403,158.850 283.520,161.600 283.520 C 164.350 283.520,167.016 283.403,167.524 283.260 C 168.032 283.117,165.366 283.000,161.600 283.000 C 157.834 283.000,155.168 283.117,155.676 283.260 " stroke="none" fill="#746c70" fill-rule="evenodd"></path></g></svg>