<svg id="svg" version="1.1" width="400" height="418.1818181818182" viewBox="0 0 400 418.1818181818182" xmlns="http://www.w3.org/2000/svg" xmlns:xlink="http://www.w3.org/1999/xlink"><g id="svgg"><path id="path0" d="M191.800 18.839 C 185.273 19.094,173.519 20.162,172.293 20.611 C 172.022 20.711,168.830 21.339,165.200 22.008 C 103.083 33.453,49.228 80.199,28.568 140.600 C 15.610 178.487,15.469 220.975,28.180 258.000 C 40.717 294.516,63.544 325.234,94.800 347.647 C 104.417 354.544,117.642 362.097,126.361 365.674 C 128.032 366.360,129.629 367.099,129.910 367.318 C 130.802 368.012,130.887 367.352,130.444 363.128 C 127.958 339.409,129.875 315.115,136.434 287.200 C 138.486 278.467,142.314 264.081,145.801 252.000 C 149.188 240.267,154.228 220.625,154.629 217.600 C 154.833 216.055,154.656 215.374,153.378 212.800 C 138.893 183.616,157.488 141.487,184.400 142.516 C 207.551 143.401,214.425 160.056,204.231 190.562 C 194.811 218.752,192.625 226.932,192.140 235.800 C 191.308 251.027,199.532 259.596,216.620 261.304 C 245.788 264.219,268.952 237.646,275.986 193.200 C 279.989 167.914,273.519 140.717,260.258 127.084 C 212.188 77.663,115.210 117.649,115.428 186.800 C 115.474 201.330,117.300 205.588,129.053 218.586 C 131.400 221.183,132.800 223.061,132.800 223.614 C 132.800 226.693,128.866 246.894,128.121 247.639 C 127.627 248.133,120.476 246.224,115.884 244.373 C 95.391 236.110,83.252 218.905,80.779 194.617 C 73.021 118.430,153.624 61.172,239.400 81.938 C 304.392 97.672,333.282 148.898,315.348 216.600 C 304.551 257.358,273.931 286.655,237.755 290.842 C 218.218 293.103,206.252 290.209,189.400 279.147 C 185.880 276.836,182.160 274.454,181.133 273.854 C 178.957 272.582,179.238 272.209,178.013 278.000 C 172.067 306.110,167.662 320.816,160.700 335.800 C 154.711 348.690,146.022 360.492,137.200 367.722 C 134.970 369.549,134.713 369.358,143.200 372.187 C 174.675 382.678,211.205 384.082,243.504 376.043 C 365.185 345.757,420.890 202.803,351.226 99.600 C 346.746 92.964,346.686 92.881,342.036 87.000 C 310.138 46.657,259.071 20.429,209.600 18.981 C 205.750 18.869,201.790 18.727,200.800 18.667 C 199.810 18.607,195.760 18.684,191.800 18.839 " stroke="none" fill="#cb2424" fill-rule="evenodd"></path><path id="path1" d="M0.000 209.000 L 0.000 418.000 200.000 418.000 L 400.000 418.000 400.000 209.000 L 400.000 0.000 200.000 0.000 L 0.000 0.000 0.000 209.000 M213.600 18.411 C 216.570 18.636,220.800 19.083,223.000 19.404 C 225.200 19.725,228.440 20.190,230.200 20.437 C 233.703 20.928,239.462 22.104,242.600 22.969 C 243.700 23.273,246.310 23.927,248.400 24.423 C 250.490 24.919,253.100 25.674,254.200 26.101 C 255.300 26.527,257.716 27.317,259.569 27.856 C 261.422 28.395,263.402 29.093,263.969 29.407 C 264.536 29.721,266.530 30.546,268.400 31.241 C 270.270 31.936,272.520 32.817,273.400 33.201 C 278.758 35.533,280.000 36.145,280.000 36.455 C 280.000 36.645,280.179 36.800,280.398 36.800 C 281.130 36.800,286.568 39.483,289.200 41.142 C 290.630 42.043,293.240 43.602,295.000 44.607 C 296.760 45.611,299.190 47.153,300.400 48.033 C 301.610 48.913,303.050 49.936,303.600 50.307 C 306.494 52.258,310.530 55.253,313.148 57.392 C 314.770 58.716,316.840 60.356,317.748 61.036 C 318.657 61.716,321.175 63.966,323.345 66.036 C 325.515 68.106,327.694 70.051,328.187 70.358 C 328.681 70.664,329.336 71.325,329.642 71.825 C 329.949 72.325,331.649 74.234,333.420 76.067 C 337.554 80.347,343.923 88.241,349.178 95.600 C 351.456 98.790,353.431 101.490,353.566 101.600 C 353.701 101.710,354.504 103.150,355.351 104.800 C 356.197 106.450,357.190 108.160,357.558 108.600 C 357.926 109.040,358.658 110.210,359.184 111.200 C 359.710 112.190,360.249 113.090,360.382 113.200 C 360.514 113.310,361.231 114.750,361.974 116.400 C 362.717 118.050,363.657 119.878,364.063 120.462 C 364.468 121.046,364.800 121.721,364.800 121.962 C 364.800 122.203,364.991 122.400,365.224 122.400 C 365.457 122.400,365.548 122.560,365.427 122.757 C 365.306 122.953,365.602 123.988,366.086 125.057 C 366.570 126.125,366.989 127.090,367.017 127.200 C 367.044 127.310,367.301 127.940,367.586 128.600 C 373.474 142.200,379.308 162.993,380.212 173.597 C 380.297 174.589,380.651 177.110,381.000 179.200 C 382.454 187.915,382.184 215.328,380.552 224.600 C 380.243 226.360,379.632 229.960,379.195 232.600 C 378.013 239.736,377.640 241.501,376.616 244.800 C 376.104 246.450,375.286 249.330,374.797 251.200 C 374.309 253.070,373.678 255.140,373.395 255.800 C 373.112 256.460,372.329 258.710,371.655 260.800 C 370.248 265.160,368.885 268.684,367.169 272.400 C 365.401 276.229,360.637 285.810,359.015 288.800 C 358.239 290.230,357.603 291.625,357.602 291.900 C 357.601 292.175,357.450 292.400,357.268 292.400 C 357.085 292.400,356.685 292.895,356.379 293.500 C 356.073 294.105,355.075 295.680,354.161 297.000 C 353.248 298.320,352.225 299.940,351.888 300.600 C 351.552 301.260,350.879 302.250,350.393 302.800 C 349.908 303.350,348.974 304.745,348.317 305.900 C 347.661 307.055,347.040 308.000,346.938 308.000 C 346.836 308.000,346.880 307.775,347.035 307.500 C 347.661 306.391,346.498 307.912,344.986 310.179 C 344.114 311.487,343.040 312.953,342.600 313.436 C 340.456 315.788,337.307 319.455,336.515 320.522 C 334.813 322.815,323.265 334.192,318.774 338.000 C 311.099 344.507,303.500 350.142,298.600 352.959 C 297.500 353.591,296.240 354.426,295.800 354.814 C 295.360 355.203,293.650 356.236,292.000 357.112 C 290.350 357.987,287.470 359.547,285.600 360.578 C 282.660 362.199,278.771 364.076,270.200 368.012 C 263.648 371.021,243.625 377.174,236.505 378.367 C 235.237 378.579,231.986 379.136,229.281 379.604 C 219.399 381.312,192.907 382.479,185.800 381.519 C 184.920 381.401,181.770 381.013,178.800 380.658 C 168.627 379.441,166.597 379.140,164.800 378.578 C 163.810 378.269,160.480 377.487,157.400 376.841 C 154.320 376.196,149.855 375.026,147.479 374.243 C 145.102 373.460,142.402 372.618,141.479 372.371 C 140.555 372.125,138.850 371.490,137.688 370.962 C 136.527 370.433,135.402 370.000,135.188 370.000 C 134.164 370.000,135.062 368.757,137.721 366.494 C 156.163 350.794,169.725 320.248,177.809 276.200 C 178.593 271.930,178.729 271.737,180.289 272.677 C 183.241 274.453,187.390 277.080,192.200 280.218 C 211.119 292.563,232.259 294.498,255.600 286.020 C 301.419 269.378,329.126 210.067,317.359 153.819 C 307.439 106.402,256.739 75.338,194.840 78.751 C 187.217 79.171,177.074 80.184,176.417 80.590 C 176.270 80.680,173.553 81.323,170.379 82.018 C 124.715 92.021,88.130 128.256,81.952 169.600 C 76.531 205.881,90.536 235.168,117.800 244.563 C 121.234 245.746,126.379 247.200,127.134 247.200 C 128.221 247.200,130.231 237.982,132.161 224.142 C 132.312 223.053,132.031 222.564,130.068 220.498 C 117.088 206.840,114.799 201.755,114.811 186.600 C 114.832 158.431,130.136 134.003,158.133 117.452 C 159.856 116.433,161.335 115.600,161.420 115.600 C 161.504 115.600,163.424 114.722,165.687 113.649 C 167.949 112.576,170.970 111.293,172.400 110.798 C 173.830 110.303,175.301 109.742,175.669 109.551 C 178.542 108.064,191.681 105.401,199.200 104.781 C 219.333 103.122,236.358 108.004,253.953 120.481 C 294.834 149.470,279.377 247.268,231.800 260.648 C 217.134 264.772,199.359 259.764,194.266 250.073 C 189.131 240.300,190.436 230.508,201.210 198.000 C 212.265 164.645,210.796 151.998,195.090 145.318 C 176.764 137.524,158.194 149.315,151.809 172.800 C 151.240 174.890,150.610 177.140,150.407 177.800 C 148.995 182.405,148.864 197.278,150.192 202.200 C 151.536 207.180,152.950 211.082,154.289 213.505 L 155.674 216.009 154.869 219.505 C 153.634 224.869,152.001 231.498,151.152 234.600 C 150.730 236.140,149.759 239.801,148.994 242.736 C 148.229 245.671,147.514 248.215,147.407 248.389 C 147.222 248.689,146.331 251.871,142.141 267.200 C 141.149 270.830,139.639 276.665,138.785 280.167 C 137.932 283.670,137.121 286.820,136.983 287.167 C 136.501 288.384,132.825 307.622,132.220 312.091 C 130.573 324.266,130.267 328.506,130.122 341.200 C 129.998 352.118,130.096 355.257,130.739 360.800 C 131.159 364.430,131.362 367.555,131.188 367.744 C 130.846 368.116,126.852 366.851,124.370 365.585 C 123.524 365.153,122.570 364.800,122.249 364.800 C 121.929 364.800,121.607 364.647,121.533 364.459 C 121.460 364.272,119.150 362.989,116.400 361.609 C 113.650 360.230,109.600 357.977,107.400 356.604 C 105.200 355.231,102.648 353.679,101.730 353.154 C 99.940 352.132,91.127 345.910,89.800 344.731 C 89.360 344.341,86.930 342.380,84.400 340.374 C 77.980 335.284,64.224 321.720,60.600 316.906 C 59.940 316.029,58.320 313.989,57.000 312.371 C 55.680 310.754,54.330 309.036,54.000 308.554 C 53.670 308.073,51.727 305.276,49.683 302.339 C 47.638 299.403,45.118 295.578,44.083 293.840 C 43.047 292.101,41.897 290.211,41.526 289.640 C 40.779 288.488,34.423 275.809,33.486 273.600 C 33.159 272.830,32.237 270.490,31.437 268.400 C 30.636 266.310,29.734 264.150,29.431 263.600 C 29.128 263.050,28.399 260.980,27.810 259.000 C 27.222 257.020,26.502 254.860,26.210 254.200 C 25.080 251.647,21.266 235.577,20.228 229.000 C 20.159 228.560,20.073 228.200,20.038 228.200 C 20.003 228.200,19.906 227.120,19.822 225.800 C 19.738 224.480,19.383 221.420,19.032 219.000 C 17.629 209.321,17.816 187.960,19.401 177.000 C 20.222 171.322,22.003 161.213,22.608 158.800 C 23.874 153.752,26.722 143.698,27.197 142.600 C 28.091 140.534,29.200 137.092,29.200 136.385 C 29.200 135.953,29.347 135.600,29.527 135.600 C 29.707 135.600,30.176 134.565,30.569 133.300 C 31.534 130.197,32.830 127.200,33.206 127.200 C 33.375 127.200,33.630 126.735,33.773 126.166 C 34.539 123.114,43.141 106.950,46.633 102.000 C 47.332 101.010,48.017 99.827,48.156 99.371 C 48.295 98.914,48.731 98.194,49.124 97.771 C 49.517 97.347,50.640 95.864,51.619 94.475 C 55.286 89.276,56.101 88.230,60.867 82.614 C 65.632 76.999,73.281 69.021,77.501 65.265 C 81.636 61.584,87.980 56.269,89.400 55.296 C 90.729 54.385,93.776 52.078,95.883 50.388 C 96.149 50.174,96.476 50.000,96.610 50.000 C 96.744 50.000,97.443 49.550,98.164 49.000 C 98.886 48.450,99.599 48.000,99.749 48.000 C 99.900 48.000,101.468 47.010,103.235 45.800 C 105.002 44.590,106.627 43.600,106.847 43.600 C 107.067 43.600,107.119 43.392,106.962 43.138 C 106.781 42.846,106.852 42.785,107.156 42.973 C 107.419 43.136,107.852 43.101,108.118 42.895 C 108.383 42.689,110.040 41.747,111.800 40.801 C 116.500 38.274,118.106 37.404,119.000 36.901 C 119.440 36.654,120.790 36.007,122.000 35.465 C 123.210 34.922,125.563 33.839,127.229 33.058 C 136.943 28.504,154.985 23.032,167.000 20.996 C 170.080 20.474,172.960 19.970,173.400 19.875 C 180.641 18.316,202.060 17.537,213.600 18.411 " stroke="none" fill="#f6f6f6" fill-rule="evenodd"></path><path id="path2" d="M197.500 18.296 C 198.875 18.374,201.125 18.374,202.500 18.296 C 203.875 18.218,202.750 18.154,200.000 18.154 C 197.250 18.154,196.125 18.218,197.500 18.296 M188.305 18.683 C 188.802 18.779,189.522 18.775,189.905 18.675 C 190.287 18.575,189.880 18.496,189.000 18.501 C 188.120 18.505,187.807 18.587,188.305 18.683 M211.105 18.683 C 211.602 18.779,212.322 18.775,212.705 18.675 C 213.087 18.575,212.680 18.496,211.800 18.501 C 210.920 18.505,210.607 18.587,211.105 18.683 M321.200 64.525 C 321.200 64.594,321.785 65.179,322.500 65.825 L 323.800 67.000 322.625 65.700 C 321.530 64.488,321.200 64.216,321.200 64.525 M76.181 66.900 L 74.600 68.600 76.300 67.019 C 77.235 66.149,78.000 65.384,78.000 65.319 C 78.000 65.016,77.652 65.319,76.181 66.900 M327.600 70.525 C 327.600 70.594,328.185 71.179,328.900 71.825 L 330.200 73.000 329.025 71.700 C 327.930 70.488,327.600 70.216,327.600 70.525 M66.800 76.200 C 65.828 77.190,65.123 78.000,65.233 78.000 C 65.343 78.000,66.228 77.190,67.200 76.200 C 68.172 75.210,68.877 74.400,68.767 74.400 C 68.657 74.400,67.772 75.210,66.800 76.200 M334.400 77.800 C 335.146 78.570,335.847 79.200,335.957 79.200 C 336.067 79.200,335.546 78.570,334.800 77.800 C 334.054 77.030,333.353 76.400,333.243 76.400 C 333.133 76.400,333.654 77.030,334.400 77.800 M199.919 78.298 C 201.744 78.372,204.624 78.372,206.319 78.297 C 208.014 78.222,206.520 78.161,203.000 78.162 C 199.480 78.162,198.094 78.224,199.919 78.298 M191.505 78.683 C 192.002 78.779,192.722 78.775,193.105 78.675 C 193.487 78.575,193.080 78.496,192.200 78.501 C 191.320 78.505,191.007 78.587,191.505 78.683 M213.700 78.676 C 214.085 78.776,214.715 78.776,215.100 78.676 C 215.485 78.575,215.170 78.493,214.400 78.493 C 213.630 78.493,213.315 78.575,213.700 78.676 M289.600 106.925 C 289.600 106.994,290.185 107.579,290.900 108.225 L 292.200 109.400 291.025 108.100 C 289.930 106.888,289.600 106.616,289.600 106.925 M109.789 114.900 L 107.000 117.800 109.900 115.011 C 112.594 112.420,112.983 112.000,112.689 112.000 C 112.628 112.000,111.323 113.305,109.789 114.900 M137.991 133.100 L 134.600 136.600 138.100 133.209 C 141.351 130.059,141.782 129.600,141.491 129.600 C 141.431 129.600,139.856 131.175,137.991 133.100 M182.505 142.687 C 183.114 142.779,184.014 142.777,184.505 142.682 C 184.997 142.587,184.500 142.511,183.400 142.514 C 182.300 142.517,181.897 142.595,182.505 142.687 M162.175 152.500 L 161.000 153.800 162.300 152.625 C 163.015 151.979,163.600 151.394,163.600 151.325 C 163.600 151.016,163.270 151.288,162.175 152.500 M208.493 163.200 C 208.493 163.970,208.575 164.285,208.676 163.900 C 208.776 163.515,208.776 162.885,208.676 162.500 C 208.575 162.115,208.493 162.430,208.493 163.200 M208.501 169.000 C 208.505 169.880,208.587 170.193,208.683 169.695 C 208.779 169.198,208.775 168.478,208.675 168.095 C 208.575 167.713,208.496 168.120,208.501 169.000 M80.509 180.400 C 80.509 181.390,80.587 181.795,80.682 181.300 C 80.778 180.805,80.778 179.995,80.682 179.500 C 80.587 179.005,80.509 179.410,80.509 180.400 M114.909 182.400 C 114.909 183.390,114.987 183.795,115.082 183.300 C 115.178 182.805,115.178 181.995,115.082 181.500 C 114.987 181.005,114.909 181.410,114.909 182.400 M381.301 186.600 C 381.305 187.480,381.387 187.793,381.483 187.295 C 381.579 186.798,381.575 186.078,381.475 185.695 C 381.375 185.313,381.296 185.720,381.301 186.600 M80.501 189.000 C 80.505 189.880,80.587 190.193,80.683 189.695 C 80.779 189.198,80.775 188.478,80.675 188.095 C 80.575 187.713,80.496 188.120,80.501 189.000 M18.501 189.800 C 18.505 190.680,18.587 190.993,18.683 190.495 C 18.779 189.998,18.775 189.278,18.675 188.895 C 18.575 188.513,18.496 188.920,18.501 189.800 M114.901 190.600 C 114.905 191.480,114.987 191.793,115.083 191.295 C 115.179 190.798,115.175 190.078,115.075 189.695 C 114.975 189.313,114.896 189.720,114.901 190.600 M381.767 199.800 C 381.767 203.980,381.826 205.636,381.898 203.479 C 381.971 201.323,381.970 197.903,381.898 195.879 C 381.825 193.856,381.766 195.620,381.767 199.800 M18.524 210.200 C 18.526 211.520,18.601 212.012,18.690 211.293 C 18.779 210.574,18.777 209.494,18.686 208.893 C 18.595 208.292,18.522 208.880,18.524 210.200 M381.293 212.400 C 381.293 213.170,381.375 213.485,381.476 213.100 C 381.576 212.715,381.576 212.085,381.476 211.700 C 381.375 211.315,381.293 211.630,381.293 212.400 M128.600 218.800 C 129.459 219.680,130.252 220.400,130.362 220.400 C 130.472 220.400,129.859 219.680,129.000 218.800 C 128.141 217.920,127.348 217.200,127.238 217.200 C 127.128 217.200,127.741 217.920,128.600 218.800 M191.714 235.800 C 191.717 236.900,191.795 237.303,191.887 236.695 C 191.979 236.086,191.977 235.186,191.882 234.695 C 191.787 234.203,191.711 234.700,191.714 235.800 M191.709 240.000 C 191.709 240.990,191.787 241.395,191.882 240.900 C 191.978 240.405,191.978 239.595,191.882 239.100 C 191.787 238.605,191.709 239.010,191.709 240.000 M219.491 261.889 C 220.201 261.977,221.461 261.979,222.291 261.892 C 223.121 261.805,222.540 261.733,221.000 261.731 C 219.460 261.729,218.781 261.800,219.491 261.889 M283.775 269.300 L 282.600 270.600 283.900 269.425 C 284.615 268.779,285.200 268.194,285.200 268.125 C 285.200 267.816,284.870 268.088,283.775 269.300 M64.000 320.600 C 64.746 321.370,65.447 322.000,65.557 322.000 C 65.667 322.000,65.146 321.370,64.400 320.600 C 63.654 319.830,62.953 319.200,62.843 319.200 C 62.733 319.200,63.254 319.830,64.000 320.600 M333.578 323.100 L 332.200 324.600 333.700 323.222 C 335.096 321.938,335.384 321.600,335.078 321.600 C 335.012 321.600,334.337 322.275,333.578 323.100 M71.600 328.600 C 73.460 330.470,75.072 332.000,75.182 332.000 C 75.292 332.000,73.860 330.470,72.000 328.600 C 70.140 326.730,68.528 325.200,68.418 325.200 C 68.308 325.200,69.740 326.730,71.600 328.600 M322.778 333.900 L 321.400 335.400 322.900 334.022 C 323.725 333.263,324.400 332.588,324.400 332.522 C 324.400 332.216,324.062 332.504,322.778 333.900 M129.701 334.600 C 129.705 335.480,129.787 335.793,129.883 335.295 C 129.979 334.798,129.975 334.078,129.875 333.695 C 129.775 333.313,129.696 333.720,129.701 334.600 M78.000 334.525 C 78.000 334.594,78.585 335.179,79.300 335.825 L 80.600 337.000 79.425 335.700 C 78.330 334.488,78.000 334.216,78.000 334.525 M129.693 351.200 C 129.693 351.970,129.775 352.285,129.876 351.900 C 129.976 351.515,129.976 350.885,129.876 350.500 C 129.775 350.115,129.693 350.430,129.693 351.200 M190.905 381.487 C 191.514 381.579,192.414 381.577,192.905 381.482 C 193.397 381.387,192.900 381.311,191.800 381.314 C 190.700 381.317,190.297 381.395,190.905 381.487 " stroke="none" fill="#ea999b" fill-rule="evenodd"></path><path id="path3" d="M192.515 18.696 C 193.788 18.776,195.768 18.775,196.915 18.694 C 198.062 18.614,197.020 18.549,194.600 18.550 C 192.180 18.551,191.242 18.616,192.515 18.696 M202.500 18.697 C 203.985 18.774,206.415 18.774,207.900 18.697 C 209.385 18.620,208.170 18.557,205.200 18.557 C 202.230 18.557,201.015 18.620,202.500 18.697 M185.700 19.076 C 186.085 19.176,186.715 19.176,187.100 19.076 C 187.485 18.975,187.170 18.893,186.400 18.893 C 185.630 18.893,185.315 18.975,185.700 19.076 M213.100 19.082 C 213.595 19.178,214.405 19.178,214.900 19.082 C 215.395 18.987,214.990 18.909,214.000 18.909 C 213.010 18.909,212.605 18.987,213.100 19.082 M165.600 21.600 C 164.256 22.031,165.708 22.031,167.400 21.600 C 168.478 21.326,168.498 21.294,167.600 21.287 C 167.050 21.283,166.150 21.424,165.600 21.600 M245.600 24.400 C 246.968 24.838,248.019 24.838,247.000 24.400 C 246.560 24.211,245.840 24.062,245.400 24.068 C 244.757 24.077,244.796 24.143,245.600 24.400 M258.400 28.200 C 260.226 28.903,260.945 28.893,259.400 28.186 C 258.740 27.883,257.930 27.642,257.600 27.648 C 257.270 27.655,257.630 27.903,258.400 28.200 M124.800 34.600 C 124.250 34.914,123.980 35.172,124.200 35.172 C 124.420 35.172,125.050 34.914,125.600 34.600 C 126.150 34.286,126.420 34.028,126.200 34.028 C 125.980 34.028,125.350 34.286,124.800 34.600 M276.400 35.400 C 276.950 35.714,277.580 35.972,277.800 35.972 C 278.020 35.972,277.750 35.714,277.200 35.400 C 276.650 35.086,276.020 34.828,275.800 34.828 C 275.580 34.828,275.850 35.086,276.400 35.400 M118.300 37.627 C 117.475 38.063,116.800 38.508,116.800 38.618 C 116.800 38.727,117.520 38.449,118.400 38.000 C 119.280 37.551,120.000 37.097,120.000 36.992 C 120.000 36.730,119.997 36.731,118.300 37.627 M282.400 38.196 C 282.400 38.470,284.849 39.684,285.032 39.501 C 285.119 39.414,284.562 39.044,283.795 38.678 C 283.028 38.312,282.400 38.095,282.400 38.196 M111.900 41.029 C 110.405 41.840,110.496 42.178,112.000 41.400 C 112.660 41.059,113.200 40.694,113.200 40.590 C 113.200 40.332,113.157 40.347,111.900 41.029 M293.800 44.607 C 294.240 44.966,294.960 45.435,295.400 45.651 L 296.200 46.044 295.400 45.393 C 294.960 45.034,294.240 44.565,293.800 44.349 L 293.000 43.956 293.800 44.607 M303.200 50.546 C 303.200 50.656,303.740 51.130,304.400 51.600 C 305.060 52.070,305.600 52.364,305.600 52.254 C 305.600 52.144,305.060 51.670,304.400 51.200 C 303.740 50.730,303.200 50.436,303.200 50.546 M95.000 51.835 L 93.800 52.866 95.100 52.006 C 95.815 51.533,96.400 51.068,96.400 50.973 C 96.400 50.673,96.231 50.778,95.000 51.835 M90.800 54.849 C 89.406 56.071,89.405 56.072,90.688 55.219 C 91.396 54.748,92.082 54.191,92.212 53.981 C 92.597 53.357,92.277 53.554,90.800 54.849 M81.375 62.500 L 80.200 63.800 81.500 62.625 C 82.712 61.530,82.984 61.200,82.675 61.200 C 82.606 61.200,82.021 61.785,81.375 62.500 M320.600 64.400 C 321.459 65.280,322.252 66.000,322.362 66.000 C 322.472 66.000,321.859 65.280,321.000 64.400 C 320.141 63.520,319.348 62.800,319.238 62.800 C 319.128 62.800,319.741 63.520,320.600 64.400 M77.978 65.500 L 76.600 67.000 78.100 65.622 C 79.496 64.338,79.784 64.000,79.478 64.000 C 79.412 64.000,78.737 64.675,77.978 65.500 M328.200 71.600 C 330.833 74.240,333.077 76.400,333.187 76.400 C 333.297 76.400,331.233 74.240,328.600 71.600 C 325.967 68.960,323.723 66.800,323.613 66.800 C 323.503 66.800,325.567 68.960,328.200 71.600 M71.600 71.400 C 69.961 73.050,68.710 74.400,68.820 74.400 C 68.930 74.400,70.361 73.050,72.000 71.400 C 73.639 69.750,74.890 68.400,74.780 68.400 C 74.670 68.400,73.239 69.750,71.600 71.400 M65.785 77.700 L 63.800 79.800 65.900 77.815 C 67.851 75.971,68.183 75.600,67.885 75.600 C 67.822 75.600,66.877 76.545,65.785 77.700 M193.700 78.287 C 194.305 78.378,195.295 78.378,195.900 78.287 C 196.505 78.195,196.010 78.120,194.800 78.120 C 193.590 78.120,193.095 78.195,193.700 78.287 M210.300 78.289 C 211.015 78.378,212.185 78.378,212.900 78.289 C 213.615 78.201,213.030 78.128,211.600 78.128 C 210.170 78.128,209.585 78.201,210.300 78.289 M335.800 79.600 C 336.659 80.480,337.452 81.200,337.562 81.200 C 337.672 81.200,337.059 80.480,336.200 79.600 C 335.341 78.720,334.548 78.000,334.438 78.000 C 334.328 78.000,334.941 78.720,335.800 79.600 M188.105 78.687 C 188.714 78.779,189.614 78.777,190.105 78.682 C 190.597 78.587,190.100 78.511,189.000 78.514 C 187.900 78.517,187.497 78.595,188.105 78.687 M216.505 78.687 C 217.114 78.779,218.014 78.777,218.505 78.682 C 218.997 78.587,218.500 78.511,217.400 78.514 C 216.300 78.517,215.897 78.595,216.505 78.687 M184.305 79.083 C 184.802 79.179,185.522 79.175,185.905 79.075 C 186.287 78.975,185.880 78.896,185.000 78.901 C 184.120 78.905,183.807 78.987,184.305 79.083 M220.705 79.083 C 221.202 79.179,221.922 79.175,222.305 79.075 C 222.687 78.975,222.280 78.896,221.400 78.901 C 220.520 78.905,220.207 78.987,220.705 79.083 M62.175 81.700 L 61.000 83.000 62.300 81.825 C 63.512 80.730,63.784 80.400,63.475 80.400 C 63.406 80.400,62.821 80.985,62.175 81.700 M241.600 82.800 C 242.968 83.238,244.019 83.238,243.000 82.800 C 242.560 82.611,241.840 82.462,241.400 82.468 C 240.757 82.477,240.796 82.543,241.600 82.800 M145.600 89.800 C 145.050 90.114,144.780 90.372,145.000 90.372 C 145.220 90.372,145.850 90.114,146.400 89.800 C 146.950 89.486,147.220 89.228,147.000 89.228 C 146.780 89.228,146.150 89.486,145.600 89.800 M54.575 91.068 C 53.959 91.876,53.659 92.411,53.909 92.256 C 54.421 91.940,56.153 89.600,55.875 89.600 C 55.776 89.600,55.191 90.261,54.575 91.068 M51.600 95.200 C 51.130 95.860,50.836 96.400,50.946 96.400 C 51.056 96.400,51.530 95.860,52.000 95.200 C 52.470 94.540,52.764 94.000,52.654 94.000 C 52.544 94.000,52.070 94.540,51.600 95.200 M352.000 100.800 C 352.470 101.460,352.944 102.000,353.054 102.000 C 353.164 102.000,352.870 101.460,352.400 100.800 C 351.930 100.140,351.456 99.600,351.346 99.600 C 351.236 99.600,351.530 100.140,352.000 100.800 M123.800 102.635 L 122.600 103.666 123.900 102.806 C 124.615 102.333,125.200 101.868,125.200 101.773 C 125.200 101.473,125.031 101.578,123.800 102.635 M120.400 105.234 L 118.600 106.865 120.500 105.384 C 122.166 104.086,122.659 103.597,122.300 103.601 C 122.245 103.602,121.390 104.336,120.400 105.234 M202.900 105.097 C 204.605 105.172,207.395 105.172,209.100 105.097 C 210.805 105.022,209.410 104.961,206.000 104.961 C 202.590 104.961,201.195 105.022,202.900 105.097 M196.705 105.483 C 197.202 105.579,197.922 105.575,198.305 105.475 C 198.687 105.375,198.280 105.296,197.400 105.301 C 196.520 105.305,196.207 105.387,196.705 105.483 M213.505 105.483 C 214.002 105.579,214.722 105.575,215.105 105.475 C 215.487 105.375,215.080 105.296,214.200 105.301 C 213.320 105.305,213.007 105.387,213.505 105.483 M115.191 109.631 L 112.600 112.063 115.300 109.760 C 117.742 107.678,118.226 107.200,117.891 107.200 C 117.832 107.200,116.617 108.294,115.191 109.631 M294.400 111.400 C 296.481 113.490,298.274 115.200,298.384 115.200 C 298.494 115.200,296.881 113.490,294.800 111.400 C 292.719 109.310,290.926 107.600,290.816 107.600 C 290.706 107.600,292.319 109.310,294.400 111.400 M229.600 108.600 C 231.426 109.303,232.145 109.293,230.600 108.586 C 229.940 108.283,229.130 108.042,228.800 108.048 C 228.470 108.055,228.830 108.303,229.600 108.600 M40.800 112.400 C 40.351 113.280,40.074 114.000,40.184 114.000 C 40.294 114.000,40.751 113.280,41.200 112.400 C 41.649 111.520,41.926 110.800,41.816 110.800 C 41.706 110.800,41.249 111.520,40.800 112.400 M237.200 111.400 C 237.750 111.714,238.380 111.972,238.600 111.972 C 238.820 111.972,238.550 111.714,238.000 111.400 C 237.450 111.086,236.820 110.828,236.600 110.828 C 236.380 110.828,236.650 111.086,237.200 111.400 M359.000 112.400 C 359.341 113.060,359.711 113.600,359.821 113.600 C 359.931 113.600,359.741 113.060,359.400 112.400 C 359.059 111.740,358.689 111.200,358.579 111.200 C 358.469 111.200,358.659 111.740,359.000 112.400 M37.400 118.800 C 37.059 119.460,36.869 120.000,36.979 120.000 C 37.089 120.000,37.459 119.460,37.800 118.800 C 38.141 118.140,38.331 117.600,38.221 117.600 C 38.111 117.600,37.741 118.140,37.400 118.800 M105.775 118.900 L 104.600 120.200 105.900 119.025 C 106.615 118.379,107.200 117.794,107.200 117.725 C 107.200 117.416,106.870 117.688,105.775 118.900 M152.293 121.414 C 151.472 121.972,150.800 122.515,150.800 122.620 C 150.800 122.725,151.520 122.335,152.400 121.753 C 153.797 120.828,154.270 120.400,153.893 120.400 C 153.834 120.400,153.114 120.856,152.293 121.414 M102.155 123.081 C 101.307 124.116,100.822 124.834,101.077 124.676 C 101.621 124.340,104.155 121.200,103.882 121.200 C 103.780 121.200,103.003 122.047,102.155 123.081 M364.828 123.800 C 364.828 124.020,365.086 124.650,365.400 125.200 C 365.714 125.750,365.972 126.020,365.972 125.800 C 365.972 125.580,365.714 124.950,365.400 124.400 C 365.086 123.850,364.828 123.580,364.828 123.800 M34.465 125.017 C 33.795 126.488,33.923 126.802,34.647 125.465 C 34.986 124.840,35.188 124.254,35.096 124.163 C 35.005 124.071,34.721 124.456,34.465 125.017 M259.800 126.400 C 260.659 127.280,261.452 128.000,261.562 128.000 C 261.672 128.000,261.059 127.280,260.200 126.400 C 259.341 125.520,258.548 124.800,258.438 124.800 C 258.328 124.800,258.941 125.520,259.800 126.400 M141.978 129.500 L 140.600 131.000 142.100 129.622 C 142.925 128.863,143.600 128.188,143.600 128.122 C 143.600 127.816,143.262 128.104,141.978 129.500 M95.353 132.500 C 93.976 134.836,93.886 135.035,94.587 134.200 C 95.400 133.232,96.100 132.000,95.838 132.000 C 95.733 132.000,95.515 132.225,95.353 132.500 M134.800 136.600 C 133.828 137.590,133.123 138.400,133.233 138.400 C 133.343 138.400,134.228 137.590,135.200 136.600 C 136.172 135.610,136.877 134.800,136.767 134.800 C 136.657 134.800,135.772 135.610,134.800 136.600 M91.600 138.800 C 91.151 139.680,90.874 140.400,90.984 140.400 C 91.094 140.400,91.551 139.680,92.000 138.800 C 92.449 137.920,92.726 137.200,92.616 137.200 C 92.506 137.200,92.049 137.920,91.600 138.800 M314.229 142.000 C 314.376 142.550,314.664 143.270,314.867 143.600 C 315.125 144.017,315.157 143.895,314.971 143.200 C 314.824 142.650,314.536 141.930,314.333 141.600 C 314.075 141.183,314.043 141.305,314.229 142.000 M179.505 142.683 C 180.002 142.779,180.722 142.775,181.105 142.675 C 181.487 142.575,181.080 142.496,180.200 142.501 C 179.320 142.505,179.007 142.587,179.505 142.683 M185.905 142.683 C 186.402 142.779,187.122 142.775,187.505 142.675 C 187.887 142.575,187.480 142.496,186.600 142.501 C 185.720 142.505,185.407 142.587,185.905 142.683 M203.000 150.000 C 204.083 151.100,205.060 152.000,205.170 152.000 C 205.280 152.000,204.483 151.100,203.400 150.000 C 202.317 148.900,201.340 148.000,201.230 148.000 C 201.120 148.000,201.917 148.900,203.000 150.000 M374.456 149.600 C 374.456 149.930,374.611 150.560,374.800 151.000 C 375.017 151.504,375.144 151.578,375.144 151.200 C 375.144 150.870,374.989 150.240,374.800 149.800 C 374.583 149.296,374.456 149.222,374.456 149.600 M162.981 151.300 L 161.400 153.000 163.100 151.419 C 164.681 149.948,164.984 149.600,164.681 149.600 C 164.616 149.600,163.851 150.365,162.981 151.300 M121.265 157.017 C 120.595 158.488,120.723 158.802,121.447 157.465 C 121.786 156.840,121.988 156.254,121.896 156.163 C 121.805 156.071,121.521 156.456,121.265 157.017 M207.668 157.600 C 207.688 158.639,208.318 160.346,208.332 159.400 C 208.338 158.960,208.189 158.240,208.000 157.800 C 207.789 157.310,207.661 157.232,207.668 157.600 M208.924 165.800 C 208.926 167.120,209.001 167.612,209.090 166.893 C 209.179 166.174,209.177 165.094,209.086 164.493 C 208.995 163.892,208.922 164.480,208.924 165.800 M117.829 166.229 C 117.681 166.815,117.638 167.372,117.732 167.466 C 117.827 167.560,118.024 167.158,118.171 166.571 C 118.319 165.985,118.362 165.428,118.268 165.334 C 118.173 165.240,117.976 165.642,117.829 166.229 M276.909 172.800 C 276.909 173.790,276.987 174.195,277.082 173.700 C 277.178 173.205,277.178 172.395,277.082 171.900 C 276.987 171.405,276.909 171.810,276.909 172.800 M320.158 179.800 C 320.158 182.880,320.221 184.087,320.297 182.482 C 320.373 180.878,320.373 178.358,320.296 176.882 C 320.219 175.407,320.157 176.720,320.158 179.800 M80.493 177.600 C 80.493 178.370,80.575 178.685,80.676 178.300 C 80.776 177.915,80.776 177.285,80.676 176.900 C 80.575 176.515,80.493 176.830,80.493 177.600 M115.293 180.400 C 115.293 181.170,115.375 181.485,115.476 181.100 C 115.576 180.715,115.576 180.085,115.476 179.700 C 115.375 179.315,115.293 179.630,115.293 180.400 M276.909 182.400 C 276.909 183.390,276.987 183.795,277.082 183.300 C 277.178 182.805,277.178 181.995,277.082 181.500 C 276.987 181.005,276.909 181.410,276.909 182.400 M148.909 184.400 C 148.909 185.390,148.987 185.795,149.082 185.300 C 149.178 184.805,149.178 183.995,149.082 183.500 C 148.987 183.005,148.909 183.410,148.909 184.400 M380.901 185.000 C 380.905 185.880,380.987 186.193,381.083 185.695 C 381.179 185.198,381.175 184.478,381.075 184.095 C 380.975 183.713,380.896 184.120,380.901 185.000 M114.931 186.600 C 114.933 188.140,115.005 188.721,115.092 187.891 C 115.179 187.061,115.177 185.801,115.089 185.091 C 115.000 184.381,114.929 185.060,114.931 186.600 M18.901 187.000 C 18.905 187.880,18.987 188.193,19.083 187.695 C 19.179 187.198,19.175 186.478,19.075 186.095 C 18.975 185.713,18.896 186.120,18.901 187.000 M148.544 190.800 C 148.544 192.890,148.612 193.745,148.694 192.700 C 148.776 191.655,148.776 189.945,148.694 188.900 C 148.612 187.855,148.544 188.710,148.544 190.800 M381.340 191.200 C 381.340 193.070,381.409 193.835,381.493 192.900 C 381.577 191.965,381.577 190.435,381.493 189.500 C 381.409 188.565,381.340 189.330,381.340 191.200 M204.229 189.429 C 204.081 190.015,204.038 190.572,204.132 190.666 C 204.227 190.760,204.424 190.358,204.571 189.771 C 204.719 189.185,204.762 188.628,204.668 188.534 C 204.573 188.440,204.376 188.842,204.229 189.429 M80.493 191.600 C 80.493 192.370,80.575 192.685,80.676 192.300 C 80.776 191.915,80.776 191.285,80.676 190.900 C 80.575 190.515,80.493 190.830,80.493 191.600 M18.570 199.600 C 18.570 204.330,18.628 206.265,18.698 203.900 C 18.769 201.535,18.769 197.665,18.698 195.300 C 18.628 192.935,18.570 194.870,18.570 199.600 M115.301 192.600 C 115.305 193.480,115.387 193.793,115.483 193.295 C 115.579 192.798,115.575 192.078,115.475 191.695 C 115.375 191.313,115.296 191.720,115.301 192.600 M148.909 196.800 C 148.909 197.790,148.987 198.195,149.082 197.700 C 149.178 197.205,149.178 196.395,149.082 195.900 C 148.987 195.405,148.909 195.810,148.909 196.800 M201.046 199.446 C 200.692 200.485,200.472 201.405,200.556 201.490 C 200.641 201.574,201.000 200.793,201.354 199.754 C 201.708 198.715,201.928 197.795,201.844 197.710 C 201.759 197.626,201.400 198.407,201.046 199.446 M118.200 204.800 C 118.541 205.460,118.911 206.000,119.021 206.000 C 119.131 206.000,118.941 205.460,118.600 204.800 C 118.259 204.140,117.889 203.600,117.779 203.600 C 117.669 203.600,117.859 204.140,118.200 204.800 M317.440 206.440 C 317.293 207.357,317.252 208.185,317.347 208.280 C 317.442 208.376,317.646 207.710,317.800 206.800 C 317.954 205.890,317.996 205.062,317.893 204.960 C 317.790 204.857,317.587 205.523,317.440 206.440 M381.334 208.400 C 381.334 210.050,381.405 210.725,381.491 209.900 C 381.578 209.075,381.578 207.725,381.491 206.900 C 381.405 206.075,381.334 206.750,381.334 208.400 M18.909 213.200 C 18.909 214.190,18.987 214.595,19.082 214.100 C 19.178 213.605,19.178 212.795,19.082 212.300 C 18.987 211.805,18.909 212.210,18.909 213.200 M380.893 214.800 C 380.893 215.570,380.975 215.885,381.076 215.500 C 381.176 215.115,381.176 214.485,381.076 214.100 C 380.975 213.715,380.893 214.030,380.893 214.800 M127.800 217.600 C 128.659 218.480,129.452 219.200,129.562 219.200 C 129.672 219.200,129.059 218.480,128.200 217.600 C 127.341 216.720,126.548 216.000,126.438 216.000 C 126.328 216.000,126.941 216.720,127.800 217.600 M87.800 219.600 C 88.141 220.260,88.511 220.800,88.621 220.800 C 88.731 220.800,88.541 220.260,88.200 219.600 C 87.859 218.940,87.489 218.400,87.379 218.400 C 87.269 218.400,87.459 218.940,87.800 219.600 M268.065 222.617 C 267.395 224.088,267.523 224.402,268.247 223.065 C 268.586 222.440,268.788 221.854,268.696 221.763 C 268.605 221.671,268.321 222.056,268.065 222.617 M93.502 228.200 C 94.183 229.080,96.145 231.150,97.862 232.800 C 100.839 235.661,100.809 235.614,97.209 231.800 C 92.102 226.389,92.092 226.380,93.502 228.200 M264.800 229.600 C 264.351 230.480,264.074 231.200,264.184 231.200 C 264.294 231.200,264.751 230.480,265.200 229.600 C 265.649 228.720,265.926 228.000,265.816 228.000 C 265.706 228.000,265.249 228.720,264.800 229.600 M148.433 242.233 C 148.175 243.259,148.039 244.172,148.131 244.264 C 148.222 244.356,148.509 243.592,148.767 242.567 C 149.025 241.541,149.161 240.628,149.069 240.536 C 148.978 240.444,148.691 241.208,148.433 242.233 M110.400 241.779 C 110.400 241.889,110.940 242.259,111.600 242.600 C 112.260 242.941,112.800 243.131,112.800 243.021 C 112.800 242.911,112.260 242.541,111.600 242.200 C 110.940 241.859,110.400 241.669,110.400 241.779 M255.375 244.100 L 254.200 245.400 255.500 244.225 C 256.215 243.579,256.800 242.994,256.800 242.925 C 256.800 242.616,256.470 242.888,255.375 244.100 M116.800 244.733 C 117.130 244.936,117.850 245.224,118.400 245.371 C 119.095 245.557,119.217 245.525,118.800 245.267 C 118.470 245.064,117.750 244.776,117.200 244.629 C 116.505 244.443,116.383 244.475,116.800 244.733 M251.617 248.185 L 249.433 250.600 251.798 248.314 C 253.098 247.057,254.081 245.971,253.981 245.900 C 253.882 245.829,252.817 246.857,251.617 248.185 M193.605 248.222 C 193.599 248.758,195.896 252.400,196.240 252.400 C 196.382 252.400,196.311 252.174,196.082 251.898 C 195.853 251.623,195.203 250.588,194.638 249.598 C 194.072 248.609,193.607 247.990,193.605 248.222 M27.454 256.800 C 27.589 257.350,27.945 258.340,28.245 259.000 C 28.684 259.964,28.743 260.003,28.546 259.200 C 28.411 258.650,28.055 257.660,27.755 257.000 C 27.316 256.036,27.257 255.997,27.454 256.800 M372.044 257.644 C 371.798 258.351,371.666 259.000,371.752 259.085 C 371.838 259.171,372.109 258.662,372.356 257.956 C 372.602 257.249,372.734 256.600,372.648 256.515 C 372.562 256.429,372.291 256.938,372.044 257.644 M206.600 259.414 C 207.260 259.717,208.070 259.958,208.400 259.952 C 208.730 259.945,208.370 259.697,207.600 259.400 C 205.774 258.697,205.055 258.707,206.600 259.414 M286.189 267.300 L 283.400 270.200 286.300 267.411 C 288.994 264.820,289.383 264.400,289.089 264.400 C 289.028 264.400,287.723 265.705,286.189 267.300 M141.829 265.829 C 141.681 266.415,141.638 266.972,141.732 267.066 C 141.827 267.160,142.024 266.758,142.171 266.171 C 142.319 265.585,142.362 265.028,142.268 264.934 C 142.173 264.840,141.976 265.242,141.829 265.829 M34.036 273.800 C 34.036 274.020,34.470 275.010,35.000 276.000 C 35.530 276.990,35.964 277.620,35.964 277.400 C 35.964 277.180,35.530 276.190,35.000 275.200 C 34.470 274.210,34.036 273.580,34.036 273.800 M138.833 277.033 C 138.575 278.059,138.439 278.972,138.531 279.064 C 138.622 279.156,138.909 278.392,139.167 277.367 C 139.425 276.341,139.561 275.428,139.469 275.336 C 139.378 275.244,139.091 276.008,138.833 277.033 M361.600 282.400 C 361.151 283.280,360.874 284.000,360.984 284.000 C 361.094 284.000,361.551 283.280,362.000 282.400 C 362.449 281.520,362.726 280.800,362.616 280.800 C 362.506 280.800,362.049 281.520,361.600 282.400 M225.091 291.489 C 225.801 291.577,227.061 291.579,227.891 291.492 C 228.721 291.405,228.140 291.333,226.600 291.331 C 225.060 291.329,224.381 291.400,225.091 291.489 M43.549 292.200 C 43.765 292.640,44.234 293.360,44.593 293.800 L 45.244 294.600 44.851 293.800 C 44.635 293.360,44.166 292.640,43.807 292.200 L 43.156 291.400 43.549 292.200 M355.353 293.700 C 353.976 296.036,353.886 296.235,354.587 295.400 C 355.400 294.432,356.100 293.200,355.838 293.200 C 355.733 293.200,355.515 293.425,355.353 293.700 M47.785 299.100 C 48.402 300.035,48.983 300.800,49.076 300.800 C 49.364 300.800,47.833 298.366,47.232 297.869 C 46.920 297.611,47.168 298.165,47.785 299.100 M348.800 303.800 C 348.119 304.790,347.652 305.600,347.762 305.600 C 347.872 305.600,348.519 304.790,349.200 303.800 C 349.881 302.810,350.348 302.000,350.238 302.000 C 350.128 302.000,349.481 302.810,348.800 303.800 M171.029 306.229 C 170.881 306.815,170.838 307.372,170.932 307.466 C 171.027 307.560,171.224 307.158,171.371 306.571 C 171.519 305.985,171.562 305.428,171.468 305.334 C 171.373 305.240,171.176 305.642,171.029 306.229 M131.815 310.215 C 131.661 311.454,131.617 312.550,131.719 312.652 C 131.820 312.754,132.030 311.823,132.185 310.585 C 132.339 309.346,132.383 308.250,132.281 308.148 C 132.180 308.046,131.970 308.977,131.815 310.215 M337.375 318.500 L 336.200 319.800 337.500 318.625 C 338.712 317.530,338.984 317.200,338.675 317.200 C 338.606 317.200,338.021 317.785,337.375 318.500 M63.600 319.800 C 64.346 320.570,65.047 321.200,65.157 321.200 C 65.267 321.200,64.746 320.570,64.000 319.800 C 63.254 319.030,62.553 318.400,62.443 318.400 C 62.333 318.400,62.854 319.030,63.600 319.800 M334.400 321.800 C 333.428 322.790,332.723 323.600,332.833 323.600 C 332.943 323.600,333.828 322.790,334.800 321.800 C 335.772 320.810,336.477 320.000,336.367 320.000 C 336.257 320.000,335.372 320.810,334.400 321.800 M67.800 324.400 C 69.106 325.720,70.265 326.800,70.375 326.800 C 70.485 326.800,69.506 325.720,68.200 324.400 C 66.894 323.080,65.735 322.000,65.625 322.000 C 65.515 322.000,66.494 323.080,67.800 324.400 M328.192 328.500 L 324.200 332.600 328.300 328.608 C 330.555 326.412,332.400 324.567,332.400 324.508 C 332.400 324.218,331.901 324.692,328.192 328.500 M74.600 331.200 C 76.350 332.960,77.871 334.400,77.981 334.400 C 78.091 334.400,76.750 332.960,75.000 331.200 C 73.250 329.440,71.729 328.000,71.619 328.000 C 71.509 328.000,72.850 329.440,74.600 331.200 M129.693 332.000 C 129.693 332.770,129.775 333.085,129.876 332.700 C 129.976 332.315,129.976 331.685,129.876 331.300 C 129.775 330.915,129.693 331.230,129.693 332.000 M322.000 334.200 C 321.028 335.190,320.323 336.000,320.433 336.000 C 320.543 336.000,321.428 335.190,322.400 334.200 C 323.372 333.210,324.077 332.400,323.967 332.400 C 323.857 332.400,322.972 333.210,322.000 334.200 M80.000 336.200 C 80.746 336.970,81.447 337.600,81.557 337.600 C 81.667 337.600,81.146 336.970,80.400 336.200 C 79.654 335.430,78.953 334.800,78.843 334.800 C 78.733 334.800,79.254 335.430,80.000 336.200 M129.351 342.800 C 129.351 345.330,129.416 346.365,129.496 345.100 C 129.575 343.835,129.575 341.765,129.496 340.500 C 129.416 339.235,129.351 340.270,129.351 342.800 M315.775 339.700 L 314.600 341.000 315.900 339.825 C 316.615 339.179,317.200 338.594,317.200 338.525 C 317.200 338.216,316.870 338.488,315.775 339.700 M158.278 340.205 C 157.912 340.972,157.695 341.600,157.796 341.600 C 158.070 341.600,159.284 339.151,159.101 338.968 C 159.014 338.881,158.644 339.438,158.278 340.205 M86.800 341.733 C 86.800 341.843,87.520 342.503,88.400 343.200 C 89.280 343.897,90.000 344.377,90.000 344.267 C 90.000 344.157,89.280 343.497,88.400 342.800 C 87.520 342.103,86.800 341.623,86.800 341.733 M306.000 347.249 C 304.606 348.471,304.605 348.472,305.888 347.619 C 306.596 347.148,307.282 346.591,307.412 346.381 C 307.797 345.757,307.477 345.954,306.000 347.249 M129.701 353.800 C 129.705 354.680,129.787 354.993,129.883 354.495 C 129.979 353.998,129.975 353.278,129.875 352.895 C 129.775 352.513,129.696 352.920,129.701 353.800 M291.700 356.446 C 290.337 357.319,289.895 357.906,291.100 357.243 C 292.018 356.739,293.456 355.627,293.200 355.619 C 293.090 355.616,292.415 355.988,291.700 356.446 M286.300 359.429 C 284.805 360.240,284.896 360.578,286.400 359.800 C 287.060 359.459,287.600 359.094,287.600 358.990 C 287.600 358.732,287.557 358.747,286.300 359.429 M113.200 359.379 C 113.200 359.489,113.740 359.859,114.400 360.200 C 115.060 360.541,115.600 360.731,115.600 360.621 C 115.600 360.511,115.060 360.141,114.400 359.800 C 113.740 359.459,113.200 359.269,113.200 359.379 M141.186 363.900 L 139.000 366.200 141.300 364.014 C 143.437 361.982,143.783 361.600,143.486 361.600 C 143.424 361.600,142.389 362.635,141.186 363.900 M119.233 362.549 C 119.645 362.917,122.000 364.000,122.000 363.821 C 122.000 363.590,119.782 362.400,119.353 362.400 C 119.196 362.400,119.142 362.467,119.233 362.549 M135.615 368.582 C 135.086 369.219,135.369 370.004,136.124 369.994 C 136.423 369.990,136.386 369.852,136.026 369.624 C 135.550 369.323,135.541 369.153,135.975 368.630 C 136.262 368.284,136.408 368.000,136.298 368.000 C 136.188 368.000,135.880 368.262,135.615 368.582 M175.300 379.876 C 175.685 379.976,176.315 379.976,176.700 379.876 C 177.085 379.775,176.770 379.693,176.000 379.693 C 175.230 379.693,174.915 379.775,175.300 379.876 M223.700 379.876 C 224.085 379.976,224.715 379.976,225.100 379.876 C 225.485 379.775,225.170 379.693,224.400 379.693 C 223.630 379.693,223.315 379.775,223.700 379.876 M178.305 380.283 C 178.802 380.379,179.522 380.375,179.905 380.275 C 180.287 380.175,179.880 380.096,179.000 380.101 C 178.120 380.105,177.807 380.187,178.305 380.283 M220.705 380.283 C 221.202 380.379,221.922 380.375,222.305 380.275 C 222.687 380.175,222.280 380.096,221.400 380.101 C 220.520 380.105,220.207 380.187,220.705 380.283 M217.105 380.683 C 217.602 380.779,218.322 380.775,218.705 380.675 C 219.087 380.575,218.680 380.496,217.800 380.501 C 216.920 380.505,216.607 380.587,217.105 380.683 M186.100 381.076 C 186.485 381.176,187.115 381.176,187.500 381.076 C 187.885 380.975,187.570 380.893,186.800 380.893 C 186.030 380.893,185.715 380.975,186.100 381.076 M212.500 381.076 C 212.885 381.176,213.515 381.176,213.900 381.076 C 214.285 380.975,213.970 380.893,213.200 380.893 C 212.430 380.893,212.115 380.975,212.500 381.076 M196.900 381.498 C 198.825 381.571,201.975 381.571,203.900 381.498 C 205.825 381.425,204.250 381.365,200.400 381.365 C 196.550 381.365,194.975 381.425,196.900 381.498 " stroke="none" fill="#d37e7a" fill-rule="evenodd"></path><path id="path4" d="M191.091 18.289 C 191.801 18.377,193.061 18.379,193.891 18.292 C 194.721 18.205,194.140 18.133,192.600 18.131 C 191.060 18.129,190.381 18.200,191.091 18.289 M206.100 18.291 C 206.925 18.378,208.275 18.378,209.100 18.291 C 209.925 18.205,209.250 18.134,207.600 18.134 C 205.950 18.134,205.275 18.205,206.100 18.291 M185.505 18.683 C 186.002 18.779,186.722 18.775,187.105 18.675 C 187.487 18.575,187.080 18.496,186.200 18.501 C 185.320 18.505,185.007 18.587,185.505 18.683 M213.900 18.682 C 214.395 18.778,215.205 18.778,215.700 18.682 C 216.195 18.587,215.790 18.509,214.800 18.509 C 213.810 18.509,213.405 18.587,213.900 18.682 M177.800 19.218 C 176.828 19.403,177.535 19.439,179.600 19.310 C 181.470 19.193,183.075 19.030,183.167 18.949 C 183.449 18.697,179.495 18.896,177.800 19.218 M218.100 19.076 C 218.485 19.176,219.115 19.176,219.500 19.076 C 219.885 18.975,219.570 18.893,218.800 18.893 C 218.030 18.893,217.715 18.975,218.100 19.076 M227.300 20.276 C 227.685 20.376,228.315 20.376,228.700 20.276 C 229.085 20.175,228.770 20.093,228.000 20.093 C 227.230 20.093,226.915 20.175,227.300 20.276 M157.000 22.989 C 154.852 23.697,155.697 23.724,158.200 23.028 C 159.300 22.722,159.840 22.469,159.400 22.467 C 158.960 22.464,157.880 22.699,157.000 22.989 M252.400 25.800 C 254.226 26.503,254.945 26.493,253.400 25.786 C 252.740 25.483,251.930 25.242,251.600 25.248 C 251.270 25.255,251.630 25.503,252.400 25.800 M261.233 28.558 C 261.573 28.880,264.400 29.952,264.400 29.759 C 264.400 29.649,263.776 29.298,263.013 28.980 C 261.669 28.418,260.891 28.234,261.233 28.558 M130.000 31.800 C 129.450 32.114,129.180 32.372,129.400 32.372 C 129.620 32.372,130.250 32.114,130.800 31.800 C 131.350 31.486,131.620 31.228,131.400 31.228 C 131.180 31.228,130.550 31.486,130.000 31.800 M271.000 32.570 C 273.076 33.588,274.058 33.870,273.380 33.255 C 273.031 32.937,271.827 32.460,269.800 31.835 C 269.360 31.700,269.900 32.030,271.000 32.570 M276.033 34.532 C 276.773 35.120,280.000 36.681,280.000 36.452 C 280.000 36.172,276.652 34.400,276.123 34.400 C 275.982 34.400,275.942 34.460,276.033 34.532 M121.900 35.429 C 120.349 36.270,120.525 36.561,122.100 35.759 C 123.608 34.993,123.875 34.794,123.367 34.816 C 123.165 34.825,122.505 35.101,121.900 35.429 M285.052 39.166 C 286.986 40.346,288.800 41.242,288.800 41.018 C 288.800 40.740,284.695 38.408,284.200 38.405 C 283.980 38.404,284.363 38.746,285.052 39.166 M104.678 44.791 C 103.645 45.446,102.800 46.069,102.800 46.175 C 102.800 46.280,103.700 45.807,104.800 45.124 C 106.564 44.027,107.091 43.600,106.678 43.600 C 106.611 43.600,105.711 44.136,104.678 44.791 M296.600 45.810 C 297.815 46.795,298.955 47.374,298.623 46.837 C 298.472 46.594,297.776 46.117,297.075 45.778 C 295.891 45.206,295.857 45.208,296.600 45.810 M98.200 49.035 L 97.000 50.066 98.400 49.163 C 100.196 48.004,100.201 48.000,99.767 48.002 C 99.565 48.003,98.860 48.468,98.200 49.035 M93.458 52.218 C 92.436 52.998,91.600 53.731,91.600 53.846 C 91.600 54.052,92.866 53.172,94.800 51.620 C 96.533 50.229,95.402 50.733,93.458 52.218 M87.490 56.779 C 85.863 58.088,84.278 59.471,83.966 59.853 C 83.655 60.235,85.020 59.233,87.000 57.626 C 91.252 54.175,90.995 54.400,90.690 54.400 C 90.557 54.400,89.117 55.471,87.490 56.779 M81.775 61.700 L 80.600 63.000 81.900 61.825 C 83.112 60.730,83.384 60.400,83.075 60.400 C 83.006 60.400,82.421 60.985,81.775 61.700 M317.000 60.677 C 318.483 62.159,321.283 64.494,320.990 64.005 C 320.795 63.677,320.102 62.957,319.451 62.405 C 318.148 61.299,316.365 60.042,317.000 60.677 M77.906 64.839 L 76.600 66.077 77.888 65.220 C 78.596 64.749,79.282 64.191,79.412 63.981 C 79.875 63.231,79.191 63.621,77.906 64.839 M323.400 66.347 C 326.076 69.180,330.263 72.811,329.565 71.693 C 329.258 71.202,328.867 70.800,328.694 70.800 C 328.522 70.800,326.810 69.322,324.891 67.515 C 322.971 65.708,322.300 65.183,323.400 66.347 M71.377 71.220 C 68.749 73.871,66.516 76.166,66.414 76.320 C 66.311 76.474,68.516 74.353,71.314 71.606 C 74.111 68.859,76.400 66.564,76.400 66.506 C 76.400 66.196,75.760 66.796,71.377 71.220 M332.600 75.600 C 334.128 77.140,335.469 78.400,335.579 78.400 C 335.689 78.400,334.528 77.140,333.000 75.600 C 331.472 74.060,330.131 72.800,330.021 72.800 C 329.911 72.800,331.072 74.060,332.600 75.600 M64.929 77.700 C 63.873 78.873,63.330 79.814,63.920 79.450 C 64.400 79.153,66.156 76.800,65.897 76.800 C 65.810 76.800,65.375 77.205,64.929 77.700 M194.500 78.687 C 195.105 78.778,196.095 78.778,196.700 78.687 C 197.305 78.595,196.810 78.520,195.600 78.520 C 194.390 78.520,193.895 78.595,194.500 78.687 M209.907 78.690 C 210.626 78.779,211.706 78.777,212.307 78.686 C 212.908 78.595,212.320 78.522,211.000 78.524 C 209.680 78.526,209.188 78.601,209.907 78.690 M337.853 81.400 C 339.750 83.597,340.708 84.425,339.329 82.675 C 337.675 80.576,336.437 79.200,336.203 79.200 C 336.066 79.200,336.809 80.190,337.853 81.400 M61.375 82.100 L 60.200 83.400 61.500 82.225 C 62.712 81.130,62.984 80.800,62.675 80.800 C 62.606 80.800,62.021 81.385,61.375 82.100 M59.163 84.700 C 57.450 86.611,56.669 87.600,56.875 87.600 C 56.985 87.600,57.834 86.700,58.761 85.600 C 60.545 83.485,60.835 82.836,59.163 84.700 M55.596 88.897 C 54.667 90.294,54.249 91.048,54.652 90.600 C 56.415 88.640,56.886 88.000,56.566 88.000 C 56.361 88.000,55.924 88.404,55.596 88.897 M263.600 90.596 C 263.600 90.870,266.049 92.084,266.232 91.901 C 266.319 91.814,265.762 91.444,264.995 91.078 C 264.228 90.712,263.600 90.495,263.600 90.596 M53.123 92.300 C 52.793 92.685,51.922 93.900,51.188 95.000 C 50.454 96.100,49.740 97.090,49.603 97.200 C 49.133 97.577,48.000 99.378,48.000 99.749 C 48.000 100.114,48.327 99.682,52.132 94.300 C 53.953 91.724,54.411 90.799,53.123 92.300 M353.199 101.900 C 353.898 103.055,354.539 104.000,354.624 104.000 C 355.034 104.000,353.894 101.854,352.971 100.889 C 352.012 99.885,352.030 99.965,353.199 101.900 M45.711 103.300 C 44.929 104.311,44.663 104.932,45.136 104.640 C 45.610 104.347,46.557 102.800,46.263 102.800 C 46.172 102.800,45.924 103.025,45.711 103.300 M120.400 105.649 C 119.006 106.871,119.005 106.872,120.288 106.019 C 120.996 105.548,121.682 104.991,121.812 104.781 C 122.197 104.157,121.877 104.354,120.400 105.649 M203.715 104.696 C 204.988 104.776,206.968 104.775,208.115 104.694 C 209.262 104.614,208.220 104.549,205.800 104.550 C 203.380 104.551,202.442 104.616,203.715 104.696 M42.716 108.100 C 42.042 109.154,41.548 110.400,41.804 110.400 C 41.903 110.400,42.351 109.680,42.800 108.800 C 43.687 107.061,43.639 106.658,42.716 108.100 M293.840 111.308 C 294.918 112.468,296.250 113.754,296.800 114.166 C 297.350 114.578,296.545 113.629,295.011 112.058 C 291.766 108.733,290.974 108.227,293.840 111.308 M112.386 112.700 L 110.200 115.000 112.500 112.814 C 114.637 110.782,114.983 110.400,114.686 110.400 C 114.624 110.400,113.589 111.435,112.386 112.700 M360.481 114.367 C 361.646 116.548,362.654 118.280,362.719 118.214 C 362.863 118.070,360.701 113.483,360.356 113.200 C 360.222 113.090,359.812 112.415,359.446 111.700 C 359.079 110.985,358.685 110.400,358.571 110.400 C 358.456 110.400,359.315 112.185,360.481 114.367 M38.000 116.800 C 37.551 117.680,37.274 118.400,37.384 118.400 C 37.494 118.400,37.951 117.680,38.400 116.800 C 38.849 115.920,39.126 115.200,39.016 115.200 C 38.906 115.200,38.449 115.920,38.000 116.800 M297.600 115.325 C 297.600 115.394,298.185 115.979,298.900 116.625 L 300.200 117.800 299.025 116.500 C 297.930 115.288,297.600 115.016,297.600 115.325 M107.600 117.400 C 106.628 118.390,105.923 119.200,106.033 119.200 C 106.143 119.200,107.028 118.390,108.000 117.400 C 108.972 116.410,109.677 115.600,109.567 115.600 C 109.457 115.600,108.572 116.410,107.600 117.400 M250.400 118.111 C 250.400 118.187,250.985 118.678,251.700 119.201 C 252.504 119.790,252.784 119.887,252.433 119.455 C 251.900 118.799,250.400 117.807,250.400 118.111 M364.056 121.280 C 364.543 122.316,365.125 123.047,365.350 122.907 C 365.615 122.744,365.590 122.597,365.280 122.493 C 365.016 122.405,364.796 122.123,364.791 121.867 C 364.786 121.610,364.420 120.950,363.977 120.400 C 363.230 119.473,363.236 119.537,364.056 121.280 M255.600 122.200 C 256.346 122.970,257.047 123.600,257.157 123.600 C 257.267 123.600,256.746 122.970,256.000 122.200 C 255.254 121.430,254.553 120.800,254.443 120.800 C 254.333 120.800,254.854 121.430,255.600 122.200 M260.000 126.200 C 261.417 127.630,262.667 128.800,262.777 128.800 C 262.887 128.800,261.817 127.630,260.400 126.200 C 258.983 124.770,257.733 123.600,257.623 123.600 C 257.513 123.600,258.583 124.770,260.000 126.200 M32.027 129.227 C 31.541 130.355,31.221 131.354,31.315 131.448 C 31.409 131.542,31.873 130.686,32.347 129.547 C 32.820 128.407,33.141 127.407,33.058 127.325 C 32.976 127.243,32.512 128.099,32.027 129.227 M263.983 130.700 C 264.726 131.635,265.406 132.400,265.494 132.400 C 265.777 132.400,264.063 130.149,263.335 129.564 C 262.948 129.254,263.240 129.765,263.983 130.700 M137.978 132.700 L 136.600 134.200 138.100 132.822 C 139.496 131.538,139.784 131.200,139.478 131.200 C 139.412 131.200,138.737 131.875,137.978 132.700 M94.553 134.500 C 93.176 136.836,93.086 137.035,93.787 136.200 C 94.600 135.232,95.300 134.000,95.038 134.000 C 94.933 134.000,94.715 134.225,94.553 134.500 M370.028 135.400 C 370.028 135.620,370.286 136.250,370.600 136.800 C 370.914 137.350,371.172 137.620,371.172 137.400 C 371.172 137.180,370.914 136.550,370.600 136.000 C 370.286 135.450,370.028 135.180,370.028 135.400 M133.375 137.700 L 132.200 139.000 133.500 137.825 C 134.712 136.730,134.984 136.400,134.675 136.400 C 134.606 136.400,134.021 136.985,133.375 137.700 M311.628 136.600 C 311.628 136.820,311.886 137.450,312.200 138.000 C 312.514 138.550,312.772 138.820,312.772 138.600 C 312.772 138.380,312.514 137.750,312.200 137.200 C 311.886 136.650,311.628 136.380,311.628 136.600 M90.800 141.200 C 90.351 142.080,90.074 142.800,90.184 142.800 C 90.294 142.800,90.751 142.080,91.200 141.200 C 91.649 140.320,91.926 139.600,91.816 139.600 C 91.706 139.600,91.249 140.320,90.800 141.200 M172.400 145.000 C 171.850 145.314,171.580 145.572,171.800 145.572 C 172.020 145.572,172.650 145.314,173.200 145.000 C 173.750 144.686,174.020 144.428,173.800 144.428 C 173.580 144.428,172.950 144.686,172.400 145.000 M373.214 144.454 C 373.206 144.594,373.463 145.314,373.784 146.054 C 374.106 146.794,374.369 147.130,374.370 146.800 C 374.372 146.224,373.243 143.934,373.214 144.454 M198.800 146.911 C 198.800 146.987,199.385 147.478,200.100 148.001 C 200.904 148.590,201.184 148.687,200.833 148.255 C 200.300 147.599,198.800 146.607,198.800 146.911 M203.201 150.600 C 204.124 151.700,205.137 153.095,205.450 153.700 C 205.764 154.305,206.111 154.800,206.221 154.800 C 206.717 154.800,205.074 152.347,203.383 150.564 L 201.521 148.600 203.201 150.600 M273.656 150.400 C 273.656 150.730,273.811 151.360,274.000 151.800 C 274.217 152.304,274.344 152.378,274.344 152.000 C 274.344 151.670,274.189 151.040,274.000 150.600 C 273.783 150.096,273.656 150.022,273.656 150.400 M161.578 153.500 L 160.200 155.000 161.700 153.622 C 162.525 152.863,163.200 152.188,163.200 152.122 C 163.200 151.816,162.862 152.104,161.578 153.500 M23.049 156.615 C 22.912 156.973,22.815 157.566,22.834 157.933 C 22.853 158.300,23.027 158.069,23.221 157.420 C 23.598 156.158,23.465 155.533,23.049 156.615 M83.829 159.029 C 83.681 159.615,83.638 160.172,83.732 160.266 C 83.827 160.360,84.024 159.958,84.171 159.371 C 84.319 158.785,84.362 158.228,84.268 158.134 C 84.173 158.040,83.976 158.442,83.829 159.029 M157.753 158.500 C 156.376 160.836,156.286 161.035,156.987 160.200 C 157.800 159.232,158.500 158.000,158.238 158.000 C 158.133 158.000,157.915 158.225,157.753 158.500 M377.268 159.000 C 377.262 159.440,377.411 160.160,377.600 160.600 C 378.038 161.619,378.038 160.568,377.600 159.200 C 377.343 158.396,377.277 158.357,377.268 159.000 M22.222 160.222 C 22.072 161.025,22.028 161.762,22.126 161.860 C 22.224 161.957,22.427 161.381,22.578 160.578 C 22.728 159.775,22.772 159.038,22.674 158.940 C 22.576 158.843,22.373 159.419,22.222 160.222 M318.893 163.600 C 318.893 164.370,318.975 164.685,319.076 164.300 C 319.176 163.915,319.176 163.285,319.076 162.900 C 318.975 162.515,318.893 162.830,318.893 163.600 M154.065 165.417 C 153.395 166.888,153.523 167.202,154.247 165.865 C 154.586 165.240,154.788 164.654,154.696 164.563 C 154.605 164.471,154.321 164.856,154.065 165.417 M208.509 166.000 C 208.509 166.990,208.587 167.395,208.682 166.900 C 208.778 166.405,208.778 165.595,208.682 165.100 C 208.587 164.605,208.509 165.010,208.509 166.000 M319.301 167.000 C 319.305 167.880,319.387 168.193,319.483 167.695 C 319.579 167.198,319.575 166.478,319.475 166.095 C 319.375 165.713,319.296 166.120,319.301 167.000 M379.600 171.400 C 379.600 171.950,379.755 172.400,379.945 172.400 C 380.134 172.400,380.203 171.950,380.098 171.400 C 379.993 170.850,379.838 170.400,379.753 170.400 C 379.669 170.400,379.600 170.850,379.600 171.400 M277.365 177.800 C 277.366 181.760,277.426 183.326,277.498 181.280 C 277.571 179.234,277.571 175.994,277.498 174.080 C 277.424 172.166,277.365 173.840,277.365 177.800 M319.714 172.600 C 319.717 173.700,319.795 174.103,319.887 173.495 C 319.979 172.886,319.977 171.986,319.882 171.495 C 319.787 171.003,319.711 171.500,319.714 172.600 M19.701 175.000 C 19.705 175.880,19.787 176.193,19.883 175.695 C 19.979 175.198,19.975 174.478,19.875 174.095 C 19.775 173.713,19.696 174.120,19.701 175.000 M80.928 177.600 C 80.928 179.030,81.001 179.615,81.089 178.900 C 81.178 178.185,81.178 177.015,81.089 176.300 C 81.001 175.585,80.928 176.170,80.928 177.600 M150.446 176.467 C 150.421 176.834,150.296 177.464,150.170 177.867 C 149.952 178.562,149.963 178.563,150.397 177.887 C 150.648 177.496,150.773 176.866,150.673 176.487 C 150.511 175.868,150.488 175.866,150.446 176.467 M18.993 179.738 C 18.838 181.387,18.792 182.975,18.890 183.268 C 18.988 183.561,19.194 182.291,19.348 180.447 C 19.502 178.603,19.548 177.015,19.451 176.917 C 19.353 176.820,19.147 178.089,18.993 179.738 M380.893 180.400 C 380.893 181.170,380.975 181.485,381.076 181.100 C 381.176 180.715,381.176 180.085,381.076 179.700 C 380.975 179.315,380.893 179.630,380.893 180.400 M80.534 184.800 C 80.534 186.450,80.605 187.125,80.691 186.300 C 80.778 185.475,80.778 184.125,80.691 183.300 C 80.605 182.475,80.534 183.150,80.534 184.800 M381.309 183.600 C 381.309 184.590,381.387 184.995,381.482 184.500 C 381.578 184.005,381.578 183.195,381.482 182.700 C 381.387 182.205,381.309 182.610,381.309 183.600 M18.509 186.800 C 18.509 187.790,18.587 188.195,18.682 187.700 C 18.778 187.205,18.778 186.395,18.682 185.900 C 18.587 185.405,18.509 185.810,18.509 186.800 M319.709 186.800 C 319.709 187.790,319.787 188.195,319.882 187.700 C 319.978 187.205,319.978 186.395,319.882 185.900 C 319.787 185.405,319.709 185.810,319.709 186.800 M276.901 187.000 C 276.905 187.880,276.987 188.193,277.083 187.695 C 277.179 187.198,277.175 186.478,277.075 186.095 C 276.975 185.713,276.896 186.120,276.901 187.000 M148.934 190.800 C 148.934 192.450,149.005 193.125,149.091 192.300 C 149.178 191.475,149.178 190.125,149.091 189.300 C 149.005 188.475,148.934 189.150,148.934 190.800 M381.720 190.400 C 381.720 191.610,381.795 192.105,381.887 191.500 C 381.978 190.895,381.978 189.905,381.887 189.300 C 381.795 188.695,381.720 189.190,381.720 190.400 M80.920 191.600 C 80.920 192.810,80.995 193.305,81.087 192.700 C 81.178 192.095,81.178 191.105,81.087 190.500 C 80.995 189.895,80.920 190.390,80.920 191.600 M319.301 191.400 C 319.305 192.280,319.387 192.593,319.483 192.095 C 319.579 191.598,319.575 190.878,319.475 190.495 C 319.375 190.113,319.296 190.520,319.301 191.400 M18.153 195.400 C 18.153 198.040,18.218 199.068,18.297 197.684 C 18.375 196.301,18.374 194.141,18.295 192.884 C 18.216 191.628,18.152 192.760,18.153 195.400 M114.893 193.200 C 114.893 193.970,114.975 194.285,115.076 193.900 C 115.176 193.515,115.176 192.885,115.076 192.500 C 114.975 192.115,114.893 192.430,114.893 193.200 M202.444 194.044 C 202.198 194.751,202.066 195.400,202.152 195.485 C 202.238 195.571,202.509 195.062,202.756 194.356 C 203.002 193.649,203.134 193.000,203.048 192.915 C 202.962 192.829,202.691 193.338,202.444 194.044 M318.901 195.000 C 318.905 195.880,318.987 196.193,319.083 195.695 C 319.179 195.198,319.175 194.478,319.075 194.095 C 318.975 193.713,318.896 194.120,318.901 195.000 M115.628 198.833 C 115.644 199.365,115.819 200.160,116.019 200.600 C 116.271 201.158,116.307 200.915,116.138 199.800 C 115.855 197.943,115.587 197.436,115.628 198.833 M18.150 205.000 C 18.151 207.420,18.216 208.358,18.296 207.085 C 18.376 205.812,18.375 203.832,18.294 202.685 C 18.214 201.538,18.149 202.580,18.150 205.000 M199.046 204.246 C 198.692 205.285,198.472 206.205,198.556 206.290 C 198.641 206.374,199.000 205.593,199.354 204.554 C 199.708 203.515,199.928 202.595,199.844 202.510 C 199.759 202.426,199.400 203.207,199.046 204.246 M118.349 205.800 C 118.565 206.240,119.034 206.960,119.393 207.400 L 120.044 208.200 119.651 207.400 C 119.435 206.960,118.966 206.240,118.607 205.800 L 117.956 205.000 118.349 205.800 M381.724 209.400 C 381.726 210.720,381.801 211.212,381.890 210.493 C 381.979 209.774,381.977 208.694,381.886 208.093 C 381.795 207.492,381.722 208.080,381.724 209.400 M83.656 208.000 C 83.656 208.330,83.811 208.960,84.000 209.400 C 84.217 209.904,84.344 209.978,84.344 209.600 C 84.344 209.270,84.189 208.640,84.000 208.200 C 83.783 207.696,83.656 207.622,83.656 208.000 M18.509 214.000 C 18.509 214.990,18.587 215.395,18.682 214.900 C 18.778 214.405,18.778 213.595,18.682 213.100 C 18.587 212.605,18.509 213.010,18.509 214.000 M381.309 215.200 C 381.309 216.190,381.387 216.595,381.482 216.100 C 381.578 215.605,381.578 214.795,381.482 214.300 C 381.387 213.805,381.309 214.210,381.309 215.200 M86.800 216.553 C 86.800 216.982,87.990 219.200,88.221 219.200 C 88.331 219.200,88.123 218.615,87.759 217.900 C 87.017 216.440,86.800 216.136,86.800 216.553 M18.893 218.000 C 18.893 218.770,18.975 219.085,19.076 218.700 C 19.176 218.315,19.176 217.685,19.076 217.300 C 18.975 216.915,18.893 217.230,18.893 218.000 M380.504 222.170 C 380.231 224.574,380.076 226.609,380.159 226.693 C 380.420 226.953,381.272 220.185,381.133 218.962 C 381.060 218.323,380.777 219.767,380.504 222.170 M153.850 222.450 C 153.517 224.117,153.840 224.440,154.200 222.800 C 154.352 222.109,154.393 221.459,154.291 221.358 C 154.189 221.256,153.991 221.747,153.850 222.450 M132.093 224.800 C 132.093 225.570,132.175 225.885,132.276 225.500 C 132.376 225.115,132.376 224.485,132.276 224.100 C 132.175 223.715,132.093 224.030,132.093 224.800 M19.884 227.200 C 19.769 227.639,19.838 228.100,20.038 228.223 C 20.237 228.346,20.400 227.987,20.400 227.424 C 20.400 226.198,20.172 226.099,19.884 227.200 M264.200 231.600 C 263.859 232.260,263.669 232.800,263.779 232.800 C 263.889 232.800,264.259 232.260,264.600 231.600 C 264.941 230.940,265.131 230.400,265.021 230.400 C 264.911 230.400,264.541 230.940,264.200 231.600 M98.383 232.900 C 99.364 233.945,100.219 234.800,100.283 234.800 C 100.584 234.800,100.266 234.441,98.500 232.783 L 96.600 231.000 98.383 232.900 M308.465 233.817 C 307.795 235.288,307.923 235.602,308.647 234.265 C 308.986 233.640,309.188 233.054,309.096 232.963 C 309.005 232.871,308.721 233.256,308.465 233.817 M150.629 235.429 C 150.481 236.015,150.438 236.572,150.532 236.666 C 150.627 236.760,150.824 236.358,150.971 235.771 C 151.119 235.185,151.162 234.628,151.068 234.534 C 150.973 234.440,150.776 234.842,150.629 235.429 M100.800 234.933 C 100.800 235.043,101.520 235.703,102.400 236.400 C 103.280 237.097,104.000 237.577,104.000 237.467 C 104.000 237.357,103.280 236.697,102.400 236.000 C 101.520 235.303,100.800 234.823,100.800 234.933 M377.492 239.893 C 377.105 241.602,376.696 243.450,376.583 244.000 L 376.377 245.000 376.797 244.043 C 377.367 242.742,378.497 237.692,378.330 237.191 C 378.256 236.969,377.879 238.185,377.492 239.893 M252.589 247.700 L 249.800 250.600 252.700 247.811 C 255.394 245.220,255.783 244.800,255.489 244.800 C 255.428 244.800,254.123 246.105,252.589 247.700 M25.347 251.682 C 25.703 253.167,26.341 254.800,26.566 254.800 C 26.775 254.800,25.594 251.111,25.286 250.800 C 25.177 250.690,25.204 251.087,25.347 251.682 M197.183 254.100 C 198.841 255.866,199.200 256.184,199.200 255.883 C 199.200 255.819,198.345 254.964,197.300 253.983 L 195.400 252.200 197.183 254.100 M373.646 253.867 C 373.621 254.124,373.484 254.664,373.341 255.067 C 373.140 255.636,373.194 255.697,373.579 255.342 C 373.852 255.091,373.989 254.551,373.884 254.142 C 373.779 253.734,373.672 253.610,373.646 253.867 M201.600 257.397 C 201.600 257.668,204.849 259.284,205.030 259.103 C 205.114 259.019,204.376 258.559,203.391 258.081 C 202.406 257.602,201.600 257.294,201.600 257.397 M291.974 260.500 C 291.010 261.655,290.539 262.347,290.926 262.038 C 291.704 261.418,294.168 258.400,293.896 258.400 C 293.802 258.400,292.937 259.345,291.974 260.500 M28.400 260.946 C 28.400 261.422,29.548 264.000,29.759 264.000 C 29.869 264.000,29.679 263.325,29.338 262.500 C 28.696 260.951,28.400 260.461,28.400 260.946 M215.900 261.882 C 216.395 261.978,217.205 261.978,217.700 261.882 C 218.195 261.787,217.790 261.709,216.800 261.709 C 215.810 261.709,215.405 261.787,215.900 261.882 M224.305 261.883 C 224.802 261.979,225.522 261.975,225.905 261.875 C 226.287 261.775,225.880 261.696,225.000 261.701 C 224.120 261.705,223.807 261.787,224.305 261.883 M370.239 263.868 C 369.551 265.885,369.617 266.742,370.319 264.913 C 370.958 263.247,371.278 262.000,371.065 262.000 C 370.960 262.000,370.589 262.841,370.239 263.868 M286.175 266.900 L 285.000 268.200 286.300 267.025 C 287.512 265.930,287.784 265.600,287.475 265.600 C 287.406 265.600,286.821 266.185,286.175 266.900 M367.520 270.819 C 366.941 272.129,366.552 273.200,366.656 273.200 C 366.926 273.200,368.913 268.780,368.727 268.594 C 368.642 268.508,368.098 269.510,367.520 270.819 M282.575 270.100 L 281.400 271.400 282.700 270.225 C 283.415 269.579,284.000 268.994,284.000 268.925 C 284.000 268.616,283.670 268.888,282.575 270.100 M34.400 275.747 C 34.400 276.180,36.388 280.000,36.613 280.000 C 36.723 280.000,36.339 279.055,35.759 277.900 C 34.643 275.679,34.400 275.294,34.400 275.747 M274.200 276.635 L 273.000 277.666 274.300 276.806 C 275.015 276.333,275.600 275.868,275.600 275.773 C 275.600 275.473,275.431 275.578,274.200 276.635 M364.475 277.419 C 363.270 279.900,363.405 280.247,364.646 277.861 C 365.201 276.794,365.587 275.853,365.503 275.770 C 365.419 275.686,364.957 276.428,364.475 277.419 M37.600 282.147 C 37.600 282.580,39.588 286.400,39.813 286.400 C 39.923 286.400,39.539 285.455,38.959 284.300 C 37.843 282.079,37.600 281.694,37.600 282.147 M360.600 285.200 C 360.259 285.860,360.069 286.400,360.179 286.400 C 360.289 286.400,360.659 285.860,361.000 285.200 C 361.341 284.540,361.531 284.000,361.421 284.000 C 361.311 284.000,360.941 284.540,360.600 285.200 M137.050 285.650 C 136.717 287.317,137.040 287.640,137.400 286.000 C 137.552 285.309,137.593 284.659,137.491 284.558 C 137.389 284.456,137.191 284.947,137.050 285.650 M253.000 287.014 C 252.000 287.496,251.966 287.551,252.800 287.348 C 253.933 287.071,255.207 286.421,254.600 286.430 C 254.380 286.433,253.660 286.696,253.000 287.014 M40.281 287.587 C 40.394 288.020,40.765 288.605,41.105 288.887 C 41.628 289.321,41.620 289.199,41.052 288.100 C 40.292 286.631,39.976 286.420,40.281 287.587 M41.614 289.822 C 41.630 290.224,43.595 292.755,43.598 292.378 C 43.599 292.255,43.150 291.545,42.600 290.800 C 42.050 290.055,41.606 289.615,41.614 289.822 M356.816 292.100 C 355.985 293.618,355.971 293.711,356.694 292.969 C 357.424 292.219,358.278 290.400,357.901 290.400 C 357.816 290.400,357.328 291.165,356.816 292.100 M222.305 291.083 C 222.802 291.179,223.522 291.175,223.905 291.075 C 224.287 290.975,223.880 290.896,223.000 290.901 C 222.120 290.905,221.807 290.987,222.305 291.083 M230.705 291.083 C 231.202 291.179,231.922 291.175,232.305 291.075 C 232.687 290.975,232.280 290.896,231.400 290.901 C 230.520 290.905,230.207 290.987,230.705 291.083 M354.879 295.283 C 354.427 296.007,353.654 297.230,353.160 298.000 C 351.932 299.917,352.733 299.058,354.578 296.481 C 355.413 295.316,356.007 294.273,355.897 294.164 C 355.788 294.055,355.330 294.559,354.879 295.283 M45.778 296.675 C 46.117 297.376,46.594 298.072,46.837 298.223 C 47.374 298.555,46.795 297.415,45.810 296.200 C 45.208 295.457,45.206 295.491,45.778 296.675 M351.095 301.200 C 350.518 302.080,350.183 302.800,350.350 302.800 C 350.516 302.800,351.057 302.080,351.552 301.200 C 352.047 300.320,352.382 299.600,352.297 299.600 C 352.212 299.600,351.671 300.320,351.095 301.200 M347.938 305.687 C 347.119 306.837,346.648 308.000,347.001 308.000 C 347.073 308.000,347.584 307.190,348.138 306.200 C 349.317 304.090,349.232 303.870,347.938 305.687 M343.802 311.239 C 342.748 312.581,342.226 313.458,342.643 313.188 C 343.319 312.750,346.217 308.800,345.862 308.800 C 345.783 308.800,344.856 309.898,343.802 311.239 M339.419 316.700 C 337.368 319.083,337.325 319.165,339.050 317.400 C 341.148 315.254,342.207 314.000,341.920 314.000 C 341.822 314.000,340.696 315.215,339.419 316.700 M61.964 318.733 C 62.180 319.136,62.674 319.721,63.063 320.033 C 63.564 320.435,63.504 320.222,62.857 319.300 C 61.869 317.891,61.331 317.549,61.964 318.733 M130.901 321.000 C 130.905 321.880,130.987 322.193,131.083 321.695 C 131.179 321.198,131.175 320.478,131.075 320.095 C 130.975 319.713,130.896 320.120,130.901 321.000 M330.020 326.933 C 326.181 330.930,324.893 332.400,327.158 330.200 C 333.234 324.298,337.798 319.462,337.129 319.633 C 337.058 319.651,333.859 322.936,330.020 326.933 M66.000 323.000 C 67.195 324.210,68.263 325.200,68.373 325.200 C 68.483 325.200,67.595 324.210,66.400 323.000 C 65.205 321.790,64.137 320.800,64.027 320.800 C 63.917 320.800,64.805 321.790,66.000 323.000 M130.509 325.200 C 130.509 326.190,130.587 326.595,130.682 326.100 C 130.778 325.605,130.778 324.795,130.682 324.300 C 130.587 323.805,130.509 324.210,130.509 325.200 M71.200 328.600 C 71.946 329.370,72.647 330.000,72.757 330.000 C 72.867 330.000,72.346 329.370,71.600 328.600 C 70.854 327.830,70.153 327.200,70.043 327.200 C 69.933 327.200,70.454 327.830,71.200 328.600 M162.465 330.217 C 161.795 331.688,161.923 332.002,162.647 330.665 C 162.986 330.040,163.188 329.454,163.096 329.363 C 163.005 329.271,162.721 329.656,162.465 330.217 M77.200 334.144 C 77.970 334.984,79.500 336.407,80.600 337.306 C 82.915 339.199,82.104 338.340,78.400 334.977 C 76.970 333.679,76.430 333.304,77.200 334.144 M321.185 335.632 L 319.800 336.863 321.088 336.013 C 322.230 335.259,323.093 334.400,322.708 334.400 C 322.632 334.400,321.947 334.954,321.185 335.632 M129.765 343.000 C 129.766 346.960,129.826 348.526,129.898 346.480 C 129.971 344.434,129.971 341.194,129.898 339.280 C 129.824 337.366,129.765 339.040,129.765 343.000 M159.078 337.805 C 158.712 338.572,158.495 339.200,158.596 339.200 C 158.870 339.200,160.084 336.751,159.901 336.568 C 159.814 336.481,159.444 337.038,159.078 337.805 M317.578 338.700 L 316.200 340.200 317.700 338.822 C 319.096 337.538,319.384 337.200,319.078 337.200 C 319.012 337.200,318.337 337.875,317.578 338.700 M314.000 341.654 L 312.200 343.285 313.894 342.013 C 315.368 340.907,316.314 339.974,315.924 340.012 C 315.856 340.019,314.990 340.758,314.000 341.654 M155.908 343.700 C 155.033 345.049,154.248 346.656,154.687 346.200 C 155.248 345.617,156.898 342.800,156.679 342.800 C 156.576 342.800,156.229 343.205,155.908 343.700 M310.200 344.639 C 308.973 345.734,308.888 345.877,309.836 345.252 C 310.952 344.516,312.320 343.191,311.949 343.206 C 311.867 343.209,311.080 343.854,310.200 344.639 M90.000 344.954 C 90.000 345.039,90.495 345.427,91.100 345.816 L 92.200 346.524 91.438 345.662 C 90.764 344.899,90.000 344.523,90.000 344.954 M307.000 347.035 L 305.800 348.066 307.100 347.206 C 307.815 346.733,308.400 346.268,308.400 346.173 C 308.400 345.873,308.231 345.978,307.000 347.035 M304.200 349.023 C 303.454 349.656,303.315 349.891,303.833 349.643 C 304.576 349.287,305.925 347.997,305.549 348.002 C 305.467 348.003,304.860 348.463,304.200 349.023 M95.200 348.546 C 95.200 348.656,95.740 349.130,96.400 349.600 C 97.060 350.070,97.600 350.364,97.600 350.254 C 97.600 350.144,97.060 349.670,96.400 349.200 C 95.740 348.730,95.200 348.436,95.200 348.546 M300.297 351.566 C 298.653 352.619,298.425 352.991,299.875 352.254 C 300.576 351.897,301.261 351.424,301.398 351.203 C 301.719 350.684,301.623 350.715,300.297 351.566 M99.889 352.030 C 100.378 352.539,100.878 352.855,101.001 352.732 C 101.124 352.609,100.724 352.192,100.112 351.806 L 99.000 351.104 99.889 352.030 M294.818 355.050 C 292.936 356.386,292.771 356.618,294.229 355.877 C 294.905 355.534,295.692 354.971,295.978 354.626 C 296.660 353.805,296.477 353.872,294.818 355.050 M109.000 357.496 C 109.220 357.725,110.480 358.501,111.800 359.221 C 113.120 359.941,114.020 360.348,113.800 360.125 C 113.580 359.902,112.320 359.126,111.000 358.400 C 109.680 357.674,108.780 357.267,109.000 357.496 M144.981 359.300 L 143.400 361.000 145.100 359.419 C 146.681 357.948,146.984 357.600,146.681 357.600 C 146.616 357.600,145.851 358.365,144.981 359.300 M130.501 360.600 C 130.505 361.480,130.587 361.793,130.683 361.295 C 130.779 360.798,130.775 360.078,130.675 359.695 C 130.575 359.313,130.496 359.720,130.501 360.600 M281.900 362.229 C 280.405 363.040,280.496 363.378,282.000 362.600 C 282.660 362.259,283.200 361.894,283.200 361.790 C 283.200 361.532,283.157 361.547,281.900 362.229 M130.901 364.600 C 130.905 365.480,130.987 365.793,131.083 365.295 C 131.179 364.798,131.175 364.078,131.075 363.695 C 130.975 363.313,130.896 363.720,130.901 364.600 M121.600 364.395 C 121.600 364.618,121.876 364.800,122.213 364.800 C 122.551 364.800,123.715 365.250,124.800 365.800 C 125.885 366.350,126.914 366.792,127.087 366.782 C 127.458 366.761,124.752 365.308,122.900 364.533 C 122.113 364.204,121.600 364.149,121.600 364.395 M275.600 365.200 C 274.830 365.622,274.380 365.966,274.600 365.966 C 274.820 365.966,275.630 365.622,276.400 365.200 C 277.170 364.778,277.620 364.434,277.400 364.434 C 277.180 364.434,276.370 364.778,275.600 365.200 M268.600 368.378 C 267.720 368.795,267.113 369.150,267.251 369.168 C 267.640 369.218,270.400 368.014,270.400 367.795 C 270.400 367.527,270.399 367.527,268.600 368.378 M138.236 371.168 C 138.709 371.604,141.604 372.530,141.819 372.314 C 141.911 372.223,141.060 371.852,139.929 371.490 C 138.798 371.129,138.037 370.984,138.236 371.168 M148.800 374.545 C 148.800 374.809,153.241 376.093,153.446 375.888 C 153.533 375.800,152.839 375.508,151.903 375.239 C 150.966 374.969,149.885 374.658,149.500 374.548 C 149.115 374.437,148.800 374.435,148.800 374.545 M237.400 377.840 L 235.000 378.377 237.104 378.174 C 238.261 378.063,239.611 377.809,240.104 377.611 C 241.350 377.110,240.241 377.204,237.400 377.840 M164.800 378.581 C 165.570 378.888,166.740 379.137,167.400 379.135 C 168.895 379.130,167.676 378.693,165.000 378.274 L 163.400 378.024 164.800 378.581 M232.200 378.800 C 231.122 379.074,231.102 379.106,232.000 379.113 C 232.550 379.117,233.450 378.976,234.000 378.800 C 235.344 378.369,233.892 378.369,232.200 378.800 M171.700 379.876 C 172.085 379.976,172.715 379.976,173.100 379.876 C 173.485 379.775,173.170 379.693,172.400 379.693 C 171.630 379.693,171.315 379.775,171.700 379.876 M182.433 380.947 C 182.525 381.028,183.320 381.204,184.200 381.338 C 185.315 381.507,185.558 381.471,185.000 381.219 C 184.232 380.871,182.090 380.644,182.433 380.947 M186.900 381.487 C 187.505 381.578,188.495 381.578,189.100 381.487 C 189.705 381.395,189.210 381.320,188.000 381.320 C 186.790 381.320,186.295 381.395,186.900 381.487 M209.200 381.600 C 209.200 382.106,210.017 382.106,210.800 381.600 C 211.268 381.298,211.157 381.211,210.300 381.206 C 209.695 381.203,209.200 381.380,209.200 381.600 M194.721 381.899 C 196.988 381.970,200.588 381.970,202.721 381.898 C 204.855 381.826,203.000 381.768,198.600 381.768 C 194.200 381.768,192.455 381.827,194.721 381.899 " stroke="none" fill="#fbc9ca" fill-rule="evenodd"></path></g></svg>