<svg xmlns="http://www.w3.org/2000/svg" width="512" height="512" viewBox="0 0 512 512">
<g>
<path d="M 434.00 398.50 C431.45,399.82 409.66,400.00 256.20,400.00 L 81.30 400.00 L 77.92 397.73 C72.70,394.21 70.00,389.49 70.00,383.89 C70.00,379.71 70.71,378.03 75.43,371.11 C94.84,342.59 105.82,315.42 110.52,284.22 C111.62,276.91 111.99,264.33 112.01,233.50 C112.03,190.72 112.76,175.91 115.50,162.50 C121.67,132.32 139.81,101.75 162.92,82.61 C190.74,59.58 220.86,48.64 256.50,48.64 C274.14,48.64 283.98,50.08 300.00,55.00 C348.69,69.95 385.37,110.46 397.18,162.31 C399.10,170.74 399.34,175.88 400.01,224.50 C400.45,256.23 401.21,280.31 401.90,284.50 C406.81,314.16 417.42,341.01 434.12,366.00 C442.09,377.92 442.48,378.76 442.49,384.08 C442.50,388.66 442.00,390.31 439.70,393.33 C438.16,395.35 435.59,397.68 434.00,398.50 ZM 116.00 367.57 C116.00,367.81 179.26,368.00 256.58,368.00 C333.90,368.00 397.01,367.66 396.82,367.25 C396.63,366.84 393.95,361.55 390.87,355.50 C378.85,331.96 371.79,307.58 369.04,280.14 C368.47,274.45 368.00,250.12 368.00,226.07 C368.00,190.35 367.70,180.63 366.38,172.93 C355.18,107.67 291.06,67.14 226.39,84.45 C207.70,89.45 192.27,98.58 177.44,113.43 C163.76,127.13 156.09,139.26 150.50,156.01 C144.96,172.63 144.87,173.62 144.02,233.00 C143.30,283.23 143.03,289.42 141.17,298.21 C136.14,322.09 130.20,339.49 120.95,357.49 C118.23,362.80 116.00,367.33 116.00,367.57 ZM 270.54 462.48 C263.13,464.37 249.25,464.34 242.11,462.42 C232.50,459.83 224.52,455.29 216.62,447.92 C207.36,439.27 202.44,430.50 203.55,424.61 C205.49,414.22 215.57,408.51 225.72,412.05 C227.38,412.63 231.35,416.06 234.55,419.68 C241.76,427.84 247.85,430.98 256.50,430.98 C265.15,430.98 271.24,427.84 278.45,419.68 C281.65,416.06 285.62,412.63 287.28,412.05 C298.34,408.20 309.00,415.14 309.00,426.19 C309.00,433.02 306.09,438.14 297.11,447.09 C288.88,455.29 281.14,459.77 270.54,462.48 Z" fill="rgb(0,0,0)"/>
<path d="M 0.00 256.00 L 0.00 0.00 L 256.00 0.00 L 512.00 0.00 L 512.00 256.00 L 512.00 512.00 L 256.00 512.00 L 0.00 512.00 L 0.00 256.00 ZM 270.54 462.48 C281.14,459.77 288.88,455.29 297.11,447.09 C306.09,438.14 309.00,433.02 309.00,426.19 C309.00,415.14 298.34,408.20 287.28,412.05 C285.62,412.63 281.65,416.06 278.45,419.68 C271.24,427.84 265.15,430.98 256.50,430.98 C247.85,430.98 241.76,427.84 234.55,419.68 C231.35,416.06 227.38,412.63 225.72,412.05 C215.57,408.51 205.49,414.22 203.55,424.61 C202.44,430.50 207.36,439.27 216.62,447.92 C224.52,455.29 232.50,459.83 242.11,462.42 C249.25,464.34 263.13,464.37 270.54,462.48 ZM 434.00 398.50 C435.59,397.68 438.16,395.35 439.70,393.33 C442.00,390.31 442.50,388.66 442.49,384.08 C442.48,378.76 442.09,377.92 434.12,366.00 C417.42,341.01 406.81,314.16 401.90,284.50 C401.21,280.31 400.45,256.23 400.01,224.50 C399.34,175.88 399.10,170.74 397.18,162.31 C385.37,110.46 348.69,69.95 300.00,55.00 C283.98,50.08 274.14,48.64 256.50,48.64 C220.86,48.64 190.74,59.58 162.92,82.61 C139.81,101.75 121.67,132.32 115.50,162.50 C112.76,175.91 112.03,190.72 112.01,233.50 C111.99,264.33 111.62,276.91 110.52,284.22 C105.82,315.42 94.84,342.59 75.43,371.11 C70.71,378.03 70.00,379.71 70.00,383.89 C70.00,389.49 72.70,394.21 77.92,397.73 L 81.30 400.00 L 256.20 400.00 C409.66,400.00 431.45,399.82 434.00,398.50 ZM 116.00 367.57 C116.00,367.33 118.23,362.80 120.95,357.49 C130.20,339.49 136.14,322.09 141.17,298.21 C143.03,289.42 143.30,283.23 144.02,233.00 C144.87,173.62 144.96,172.63 150.50,156.01 C156.09,139.26 163.76,127.13 177.44,113.43 C192.27,98.58 207.70,89.45 226.39,84.45 C291.06,67.14 355.18,107.67 366.38,172.93 C367.70,180.63 368.00,190.35 368.00,226.07 C368.00,250.12 368.47,274.45 369.04,280.14 C371.79,307.58 378.85,331.96 390.87,355.50 C393.95,361.55 396.63,366.84 396.82,367.25 C397.01,367.66 333.90,368.00 256.58,368.00 C179.26,368.00 116.00,367.81 116.00,367.57 Z" fill="rgb(254,254,254)"/>
</g>
</svg>