<svg xmlns="http://www.w3.org/2000/svg" width="512" height="512" viewBox="0 0 512 512">
<g>
<path d="M 314.00 490.41 L 307.50 493.50 L 258.50 493.67 C231.55,493.77 207.81,493.44 205.75,492.94 C188.04,488.66 176.00,472.43 176.00,452.85 C176.00,446.46 172.30,438.44 166.43,432.09 C159.65,424.77 153.34,421.85 143.00,421.23 C135.07,420.76 132.14,421.50 118.00,427.55 C112.80,429.77 109.96,430.33 103.82,430.35 C96.97,430.37 95.33,429.97 88.82,426.75 C84.79,424.75 79.84,421.41 77.80,419.31 C73.76,415.15 29.53,339.53 26.42,331.48 C23.50,323.91 23.87,312.15 27.25,304.76 C30.31,298.09 37.43,290.11 43.51,286.55 C45.87,285.16 49.63,281.95 51.87,279.41 C66.13,263.21 61.96,236.26 43.51,225.45 C37.43,221.89 30.31,213.91 27.25,207.24 C23.86,199.84 23.50,188.09 26.43,180.50 C29.55,172.41 73.75,96.85 77.80,92.69 C79.83,90.60 84.42,87.45 87.98,85.69 C93.99,82.73 95.19,82.50 104.48,82.54 C114.19,82.58 114.80,82.72 124.00,86.99 C132.57,90.98 134.24,91.41 141.00,91.41 C150.98,91.41 158.89,87.93 166.03,80.38 C172.53,73.50 175.08,67.63 176.15,57.13 C177.26,46.12 178.27,42.62 182.22,36.03 C186.04,29.67 193.27,23.83 200.88,20.96 C206.07,19.00 208.09,18.94 257.88,19.22 L 309.50 19.50 L 315.24 22.32 C327.87,28.52 334.57,38.82 336.03,54.28 C337.07,65.25 338.89,70.60 343.87,77.26 C350.67,86.37 360.67,91.39 372.00,91.42 C378.81,91.43 380.38,91.02 389.00,86.97 C398.26,82.62 398.75,82.51 408.50,82.51 C417.17,82.51 419.23,82.85 424.00,85.10 C430.72,88.25 435.17,91.92 438.89,97.37 C444.25,105.22 484.35,175.51 486.17,180.26 C487.35,183.34 488.00,187.66 488.00,192.47 C488.00,204.95 482.71,215.60 472.97,222.71 C463.38,229.71 458.07,235.15 455.33,240.80 C452.89,245.80 452.56,247.66 452.55,256.00 C452.55,264.52 452.85,266.10 455.49,271.35 C458.38,277.11 463.54,282.41 472.97,289.29 C482.71,296.40 488.00,307.05 488.00,319.53 C488.00,324.34 487.35,328.66 486.17,331.74 C484.35,336.49 444.25,406.78 438.89,414.63 C431.19,425.91 416.20,432.43 403.42,430.07 C400.35,429.50 394.16,427.38 389.67,425.35 C371.83,417.30 354.20,420.89 343.91,434.68 C338.89,441.40 337.07,446.73 336.03,457.72 C334.54,473.46 327.41,484.05 314.00,490.41 ZM 210.19 459.96 C212.32,461.95 213.48,462.00 256.53,462.00 C260.42,462.00 263.99,462.01 267.26,462.01 C293.89,462.05 301.11,462.06 303.28,458.76 C304.36,457.12 304.20,454.67 304.55,451.00 C306.33,432.00 315.72,414.48 330.02,403.48 C343.45,393.15 358.59,388.44 375.50,389.33 C386.56,389.91 393.52,391.68 402.43,396.16 C406.66,398.30 408.90,398.91 410.26,398.30 C413.04,397.06 456.00,322.50 456.00,318.92 C456.00,316.57 454.99,315.39 450.24,312.16 C431.49,299.43 420.03,278.13 420.03,256.00 C420.03,233.87 431.49,212.57 450.24,199.84 C454.99,196.61 456.00,195.43 456.00,193.08 C456.00,191.19 448.63,177.51 434.08,152.37 C416.19,121.48 412.17,114.13 408.03,114.07 C406.76,114.05 405.47,114.71 403.78,115.60 C403.49,115.75 403.19,115.90 402.87,116.06 C390.89,122.18 376.18,124.86 364.33,123.10 C348.02,120.68 335.93,114.71 324.58,103.49 C312.89,91.93 306.11,77.55 304.54,61.00 C304.15,56.88 303.36,52.94 302.79,52.25 C301.99,51.28 291.47,51.00 256.45,51.00 C253.45,51.00 250.64,51.00 248.00,51.00 C217.43,50.98 210.12,50.97 208.44,54.04 C207.92,55.01 207.94,56.28 207.98,57.94 C207.99,58.40 208.00,58.89 208.00,59.41 C208.00,62.31 207.13,68.08 206.07,72.23 C198.31,102.56 171.91,123.30 141.00,123.35 C130.27,123.37 121.99,121.53 111.88,116.87 C108.24,115.20 104.22,113.98 102.95,114.16 C100.48,114.52 100.02,115.27 70.09,167.23 C59.63,185.39 56.02,192.49 56.50,193.99 C56.85,195.11 59.70,197.78 62.82,199.92 C76.79,209.50 86.33,223.36 91.13,241.00 C92.77,247.06 92.78,264.21 91.14,271.00 C90.41,274.02 87.82,280.65 85.39,285.72 C80.39,296.18 72.23,305.73 62.85,312.10 C59.71,314.23 56.85,316.89 56.50,318.00 C55.84,320.07 57.33,322.82 83.50,368.00 C89.40,378.17 95.59,388.90 97.25,391.84 C101.49,399.29 103.24,399.86 110.57,396.17 C119.48,391.68 126.44,389.91 137.50,389.33 C154.73,388.42 171.36,393.80 184.18,404.42 C197.83,415.74 208.00,436.31 208.00,452.62 C208.00,456.79 208.47,458.36 210.19,459.96 ZM 275.12 366.53 C265.00,368.30 247.14,368.30 237.33,366.52 C213.73,362.24 192.05,350.38 174.99,332.41 C154.89,311.25 144.63,285.42 144.63,256.00 C144.63,225.98 154.95,200.50 175.98,178.64 C218.39,134.53 289.56,132.85 333.33,174.91 C355.90,196.61 368.00,224.91 368.00,256.00 C368.00,310.66 328.99,357.08 275.12,366.53 ZM 240.50 334.52 C248.71,336.33 263.57,336.31 272.39,334.49 C300.05,328.78 322.62,308.58 332.17,281.00 C335.34,271.85 335.46,270.93 335.46,256.00 C335.46,241.07 335.34,240.15 332.17,231.00 C322.93,204.31 302.44,185.31 275.50,178.45 C265.96,176.03 247.04,176.03 237.50,178.45 C213.39,184.59 193.79,200.88 183.52,223.33 C178.45,234.41 176.68,242.84 176.68,256.00 C176.68,269.22 178.45,277.59 183.59,288.84 C194.18,311.97 215.39,329.00 240.50,334.52 Z" fill="rgb(0,0,0)"/>
<path d="M 0.00 256.00 L 0.00 0.00 L 256.00 0.00 L 512.00 0.00 L 512.00 256.00 L 512.00 512.00 L 256.00 512.00 L 0.00 512.00 L 0.00 256.00 ZM 314.00 490.41 C327.41,484.05 334.54,473.46 336.03,457.72 C337.07,446.73 338.89,441.40 343.91,434.68 C354.20,420.89 371.83,417.30 389.67,425.35 C394.16,427.38 400.35,429.50 403.42,430.07 C416.20,432.43 431.19,425.91 438.89,414.63 C444.25,406.78 484.35,336.49 486.17,331.74 C487.35,328.66 488.00,324.34 488.00,319.53 C488.00,307.05 482.71,296.40 472.97,289.29 C463.54,282.41 458.38,277.11 455.49,271.35 C452.85,266.10 452.55,264.52 452.55,256.00 C452.56,247.66 452.89,245.80 455.33,240.80 C458.07,235.15 463.38,229.71 472.97,222.71 C482.71,215.60 488.00,204.95 488.00,192.47 C488.00,187.66 487.35,183.34 486.17,180.26 C484.35,175.51 444.25,105.22 438.89,97.37 C435.17,91.92 430.72,88.25 424.00,85.10 C419.23,82.85 417.17,82.51 408.50,82.51 C398.75,82.51 398.26,82.62 389.00,86.97 C380.38,91.02 378.81,91.43 372.00,91.42 C360.67,91.39 350.67,86.37 343.87,77.26 C338.89,70.60 337.07,65.25 336.03,54.28 C334.57,38.82 327.87,28.52 315.24,22.32 L 309.50 19.50 L 257.88 19.22 C208.09,18.94 206.07,19.00 200.88,20.96 C193.27,23.83 186.04,29.67 182.22,36.03 C178.27,42.62 177.26,46.12 176.15,57.13 C175.08,67.63 172.53,73.50 166.03,80.38 C158.89,87.93 150.98,91.41 141.00,91.41 C134.24,91.41 132.57,90.98 124.00,86.99 C114.80,82.72 114.19,82.58 104.48,82.54 C95.19,82.50 93.99,82.73 87.98,85.69 C84.42,87.45 79.83,90.60 77.80,92.69 C73.75,96.85 29.55,172.41 26.43,180.50 C23.50,188.09 23.86,199.84 27.25,207.24 C30.31,213.91 37.43,221.89 43.51,225.45 C61.96,236.26 66.13,263.21 51.87,279.41 C49.63,281.95 45.87,285.16 43.51,286.55 C37.43,290.11 30.31,298.09 27.25,304.76 C23.87,312.15 23.50,323.91 26.42,331.48 C29.53,339.53 73.76,415.15 77.80,419.31 C79.84,421.41 84.79,424.75 88.82,426.75 C95.33,429.97 96.97,430.37 103.82,430.35 C109.96,430.33 112.80,429.77 118.00,427.55 C132.14,421.50 135.07,420.76 143.00,421.23 C153.34,421.85 159.65,424.77 166.43,432.09 C172.30,438.44 176.00,446.46 176.00,452.85 C176.00,472.43 188.04,488.66 205.75,492.94 C207.81,493.44 231.55,493.77 258.50,493.67 L 307.50 493.50 L 314.00 490.41 ZM 210.19 459.96 C208.47,458.36 208.00,456.79 208.00,452.62 C208.00,436.31 197.83,415.74 184.18,404.42 C171.36,393.80 154.73,388.42 137.50,389.33 C126.44,389.91 119.48,391.68 110.57,396.17 C103.24,399.86 101.49,399.29 97.25,391.84 C95.59,388.90 89.40,378.17 83.50,368.00 C57.33,322.82 55.84,320.07 56.50,318.00 C56.85,316.89 59.71,314.23 62.85,312.10 C72.23,305.73 80.39,296.18 85.39,285.72 C87.82,280.65 90.41,274.02 91.14,271.00 C92.78,264.21 92.77,247.06 91.13,241.00 C86.33,223.36 76.79,209.50 62.82,199.92 C59.70,197.78 56.85,195.11 56.50,193.99 C56.02,192.49 59.63,185.39 70.09,167.23 C100.02,115.27 100.48,114.52 102.95,114.16 C104.22,113.98 108.24,115.20 111.88,116.87 C121.99,121.53 130.27,123.37 141.00,123.35 C171.91,123.30 198.31,102.56 206.07,72.23 C207.13,68.08 208.00,62.31 208.00,59.41 C208.00,50.45 204.83,51.00 256.45,51.00 C291.47,51.00 301.99,51.28 302.79,52.25 C303.36,52.94 304.15,56.88 304.54,61.00 C306.11,77.55 312.89,91.93 324.58,103.49 C335.93,114.71 348.02,120.68 364.33,123.10 C376.18,124.86 390.89,122.18 402.87,116.06 C411.06,111.89 409.77,110.38 434.08,152.37 C448.63,177.51 456.00,191.19 456.00,193.08 C456.00,195.43 454.99,196.61 450.24,199.84 C431.49,212.57 420.03,233.87 420.03,256.00 C420.03,278.13 431.49,299.43 450.24,312.16 C454.99,315.39 456.00,316.57 456.00,318.92 C456.00,322.50 413.04,397.06 410.26,398.30 C408.90,398.91 406.66,398.30 402.43,396.16 C393.52,391.68 386.56,389.91 375.50,389.33 C358.59,388.44 343.45,393.15 330.02,403.48 C315.72,414.48 306.33,432.00 304.55,451.00 C303.42,462.98 307.69,462.00 256.53,462.00 C213.48,462.00 212.32,461.95 210.19,459.96 ZM 275.12 366.53 C328.99,357.08 368.00,310.66 368.00,256.00 C368.00,224.91 355.90,196.61 333.33,174.91 C289.56,132.85 218.39,134.53 175.98,178.64 C154.95,200.50 144.63,225.98 144.63,256.00 C144.63,285.42 154.89,311.25 174.99,332.41 C192.05,350.38 213.73,362.24 237.33,366.52 C247.14,368.30 265.00,368.30 275.12,366.53 ZM 240.50 334.52 C215.39,329.00 194.18,311.97 183.59,288.84 C178.45,277.59 176.68,269.22 176.68,256.00 C176.68,242.84 178.45,234.41 183.52,223.33 C193.79,200.88 213.39,184.59 237.50,178.45 C247.04,176.03 265.96,176.03 275.50,178.45 C302.44,185.31 322.93,204.31 332.17,231.00 C335.34,240.15 335.46,241.07 335.46,256.00 C335.46,270.93 335.34,271.85 332.17,281.00 C322.62,308.58 300.05,328.78 272.39,334.49 C263.57,336.31 248.71,336.33 240.50,334.52 Z" fill="rgb(254,254,254)"/>
</g>
</svg>