<svg id="svg" version="1.1" width="400" height="400" viewBox="0 0 400 400" xmlns="http://www.w3.org/2000/svg" xmlns:xlink="http://www.w3.org/1999/xlink"><g id="svgg"><path id="path0" d="M0.000 200.000 L 0.000 400.000 200.000 400.000 L 400.000 400.000 400.000 200.000 L 400.000 0.000 200.000 0.000 L 0.000 0.000 0.000 200.000 M219.000 19.543 C 220.320 19.769,223.110 20.162,225.200 20.416 C 241.877 22.443,265.025 29.474,279.400 36.878 C 292.311 43.528,295.660 45.521,304.387 51.751 C 309.774 55.597,318.004 62.071,320.309 64.276 C 335.041 78.368,340.850 84.937,349.066 96.800 C 403.829 175.870,387.317 283.859,311.400 343.136 C 309.640 344.510,307.913 345.871,307.562 346.160 C 305.975 347.468,297.813 352.818,293.000 355.705 C 232.250 392.142,153.740 389.399,96.391 348.836 C 84.415 340.365,77.399 334.134,64.276 320.314 C 60.763 316.615,49.375 301.539,46.514 296.800 C 25.367 261.774,16.438 225.920,19.170 187.000 C 25.418 98.009,96.314 26.370,185.200 19.230 C 190.994 18.764,215.794 18.994,219.000 19.543 M195.000 91.783 C 125.697 99.095,82.863 168.839,108.180 233.149 C 112.701 244.633,112.670 246.089,107.631 258.724 C 102.834 270.752,100.140 278.816,92.380 304.367 C 91.396 307.608,91.404 308.000,92.453 308.000 C 93.148 308.000,108.251 302.741,116.600 299.591 C 117.700 299.177,123.100 297.193,128.600 295.184 C 134.100 293.175,141.570 290.440,145.200 289.107 C 153.510 286.055,153.633 286.055,160.000 289.105 C 224.632 320.069,300.230 278.038,308.199 206.708 C 315.478 141.559,259.723 84.954,195.000 91.783 M215.000 109.443 C 260.486 115.649,290.950 150.274,290.981 195.800 C 291.026 262.466,217.372 304.275,160.848 269.669 C 159.004 268.540,156.861 267.498,156.085 267.352 C 154.448 267.045,154.480 267.035,141.200 271.911 C 120.717 279.431,119.200 279.895,119.200 278.628 C 119.200 277.380,125.866 259.779,130.941 247.626 C 132.689 243.440,132.657 243.242,129.171 236.800 C 106.572 195.041,120.076 146.177,161.314 120.492 C 177.383 110.482,195.416 106.771,215.000 109.443 M162.400 142.921 C 158.083 144.527,152.678 150.751,150.231 156.931 C 145.481 168.930,148.182 181.686,158.714 197.000 C 178.577 225.881,199.136 240.527,228.326 246.592 C 244.868 250.029,259.836 240.030,260.695 224.969 C 260.982 219.937,261.206 220.180,252.279 215.840 C 231.084 205.536,233.002 205.730,227.115 213.296 C 219.555 223.011,219.409 223.092,213.735 220.652 C 198.647 214.163,187.808 204.842,178.637 190.471 C 175.613 185.732,175.669 185.261,179.813 180.600 C 186.973 172.546,186.970 172.589,181.045 158.196 C 174.593 142.525,174.700 142.655,168.072 142.500 C 165.312 142.436,163.305 142.585,162.400 142.921 " stroke="none" fill="#f1f2f1" fill-rule="evenodd"></path><path id="path1" d="M189.800 19.435 C 188.480 19.515,185.870 19.769,184.000 20.000 C 182.130 20.230,179.700 20.496,178.600 20.591 C 177.500 20.685,175.250 20.964,173.600 21.211 C 171.950 21.458,169.583 21.805,168.340 21.982 C 167.097 22.159,165.927 22.398,165.740 22.513 C 165.553 22.628,164.410 22.837,163.200 22.977 C 161.990 23.117,160.640 23.386,160.200 23.574 C 159.760 23.762,158.320 24.131,157.000 24.393 C 155.680 24.656,154.287 25.035,153.905 25.235 C 153.523 25.436,152.959 25.600,152.651 25.600 C 152.344 25.600,151.126 25.894,149.946 26.254 C 143.348 28.265,141.282 28.933,140.200 29.410 C 139.540 29.701,138.505 30.062,137.900 30.213 C 137.295 30.363,136.800 30.647,136.800 30.843 C 136.800 31.040,136.382 31.200,135.871 31.200 C 135.360 31.200,133.875 31.714,132.571 32.342 C 131.267 32.970,129.480 33.716,128.600 33.999 C 127.218 34.445,122.075 36.868,118.200 38.900 C 117.540 39.246,115.583 40.220,113.851 41.065 C 112.119 41.909,110.615 42.824,110.509 43.098 C 110.403 43.371,110.162 43.500,109.973 43.383 C 109.784 43.266,109.263 43.537,108.815 43.985 C 108.367 44.433,107.810 44.800,107.577 44.800 C 107.344 44.800,105.994 45.611,104.577 46.601 C 103.160 47.592,102.000 48.308,102.000 48.193 C 102.000 47.991,99.140 49.910,92.707 54.428 C 91.006 55.623,89.611 56.825,89.607 57.100 C 89.603 57.375,89.364 57.600,89.075 57.600 C 88.787 57.600,88.202 57.921,87.775 58.314 C 87.349 58.707,86.623 59.292,86.163 59.614 C 82.867 61.920,66.705 77.772,62.085 83.230 C 57.987 88.071,57.601 88.576,57.600 89.100 C 57.600 89.375,57.330 89.600,57.000 89.600 C 56.670 89.600,56.400 89.870,56.400 90.200 C 56.400 90.530,56.244 90.800,56.054 90.800 C 55.864 90.800,55.189 91.562,54.554 92.494 C 53.919 93.425,52.268 95.770,50.884 97.705 C 49.499 99.640,48.468 101.387,48.592 101.587 C 48.716 101.787,48.566 102.097,48.260 102.275 C 47.954 102.454,47.334 103.332,46.881 104.227 C 46.429 105.121,45.775 106.089,45.429 106.376 C 45.083 106.663,44.800 107.227,44.800 107.629 C 44.800 108.031,44.575 108.504,44.300 108.680 C 44.025 108.856,43.582 109.360,43.316 109.800 C 41.363 113.029,40.019 115.586,39.786 116.512 C 39.636 117.110,39.323 117.600,39.090 117.600 C 38.857 117.600,38.781 117.715,38.922 117.855 C 39.062 117.995,38.844 118.580,38.437 119.155 C 37.802 120.053,36.229 123.410,34.152 128.300 C 33.848 129.015,33.336 130.185,33.014 130.900 C 32.691 131.615,32.312 132.695,32.170 133.300 C 32.029 133.905,31.753 134.400,31.557 134.400 C 31.360 134.400,31.200 134.767,31.200 135.216 C 31.200 135.665,30.813 136.790,30.340 137.716 C 29.536 139.292,26.778 147.823,25.917 151.400 C 25.705 152.280,25.389 153.360,25.216 153.800 C 24.716 155.063,23.217 161.617,22.973 163.600 C 22.851 164.590,22.647 165.670,22.519 166.000 C 22.060 167.182,21.151 173.222,20.200 181.400 C 19.379 188.464,19.035 203.752,19.543 210.600 C 19.772 213.680,20.057 217.550,20.177 219.200 C 20.297 220.850,20.670 223.730,21.006 225.600 C 21.342 227.470,21.899 230.620,22.243 232.600 C 23.447 239.526,25.844 249.096,28.004 255.600 C 30.044 261.740,32.187 267.649,32.723 268.615 C 32.963 269.047,33.635 270.570,34.217 272.000 C 34.799 273.430,35.438 274.915,35.638 275.300 C 36.438 276.847,36.770 277.521,38.150 280.400 C 38.940 282.050,40.064 284.210,40.647 285.200 C 41.230 286.190,42.252 288.080,42.918 289.400 C 43.584 290.720,44.885 292.970,45.808 294.400 C 46.731 295.830,47.766 297.540,48.109 298.200 C 48.452 298.860,49.062 299.760,49.466 300.200 C 49.870 300.640,50.704 301.774,51.319 302.720 C 51.935 303.666,52.790 304.741,53.219 305.109 C 53.649 305.477,54.000 305.982,54.000 306.230 C 54.000 306.479,54.441 307.159,54.981 307.742 C 55.520 308.324,55.835 308.806,55.681 308.813 C 55.526 308.821,55.797 309.158,56.283 309.564 C 56.769 309.969,57.076 310.391,56.966 310.501 C 56.856 310.611,57.269 311.137,57.883 311.671 C 58.497 312.205,59.270 313.116,59.600 313.696 C 60.202 314.754,63.532 318.603,67.552 322.888 C 68.736 324.150,69.889 325.069,70.114 324.929 C 70.341 324.789,70.403 324.871,70.254 325.113 C 69.913 325.665,77.495 333.042,78.240 332.884 C 78.555 332.817,78.701 332.993,78.584 333.298 C 78.331 333.956,88.947 343.200,89.956 343.200 C 90.200 343.200,90.400 343.380,90.400 343.600 C 90.400 343.820,90.630 344.000,90.911 344.000 C 91.192 344.000,91.712 344.315,92.066 344.700 C 92.419 345.085,93.134 345.722,93.654 346.115 C 97.227 348.816,98.430 349.600,99.000 349.600 C 99.356 349.600,99.557 349.747,99.446 349.926 C 99.221 350.290,105.650 354.404,110.144 356.770 C 113.677 358.631,114.935 359.335,115.200 359.600 C 115.628 360.028,117.213 360.800,117.663 360.800 C 117.924 360.800,118.421 361.051,118.769 361.357 C 119.116 361.664,121.470 362.853,124.000 364.000 C 126.530 365.148,129.366 366.440,130.301 366.872 C 131.237 367.304,133.397 368.159,135.101 368.772 C 145.445 372.490,148.297 373.389,149.300 373.248 C 149.685 373.194,150.000 373.320,150.000 373.528 C 150.000 373.736,150.405 373.994,150.900 374.101 C 151.395 374.208,153.150 374.662,154.800 375.109 C 156.450 375.557,158.610 376.042,159.600 376.187 C 160.590 376.333,162.840 376.782,164.600 377.184 C 167.586 377.868,170.319 378.346,176.200 379.214 C 185.512 380.588,200.142 381.091,211.400 380.424 C 219.152 379.965,221.309 379.736,226.800 378.791 C 228.230 378.544,229.760 378.331,230.200 378.316 C 230.640 378.302,231.888 378.045,232.973 377.745 C 234.058 377.445,235.453 377.200,236.073 377.200 C 236.693 377.200,237.200 377.039,237.200 376.842 C 237.200 376.646,237.605 376.487,238.100 376.489 C 239.573 376.496,243.927 375.621,246.344 374.832 C 247.585 374.427,250.040 373.707,251.800 373.232 C 255.238 372.305,261.631 370.091,265.200 368.592 C 268.748 367.101,270.114 366.551,271.600 366.014 C 274.117 365.106,285.392 359.432,285.720 358.910 C 285.896 358.629,286.357 358.400,286.744 358.400 C 287.132 358.400,287.843 358.033,288.325 357.584 C 288.806 357.136,289.200 356.870,289.200 356.995 C 289.200 357.361,291.595 356.018,294.648 353.939 C 296.215 352.873,297.648 352.000,297.833 352.000 C 298.019 352.000,298.537 351.546,298.985 350.991 C 299.433 350.436,300.182 349.911,300.648 349.824 C 301.420 349.680,305.440 347.115,307.400 345.515 C 307.840 345.156,310.045 343.407,312.300 341.628 C 314.555 339.849,316.401 338.260,316.402 338.097 C 316.403 337.934,317.348 337.118,318.502 336.283 C 320.704 334.692,334.679 320.770,336.400 318.453 C 336.950 317.713,337.635 316.903,337.923 316.654 C 338.210 316.404,339.889 314.400,341.654 312.200 C 343.418 310.000,345.156 307.840,345.515 307.400 C 347.055 305.513,349.678 301.433,349.818 300.707 C 350.018 299.671,350.799 298.752,351.245 299.028 C 351.440 299.149,351.623 299.057,351.650 298.824 C 351.678 298.591,351.727 298.265,351.760 298.100 C 351.850 297.653,353.248 295.514,354.048 294.600 C 354.432 294.160,355.394 292.540,356.184 291.000 C 356.974 289.460,357.961 287.660,358.376 287.000 C 359.853 284.655,364.802 274.589,364.801 273.933 C 364.800 273.567,364.939 273.207,365.108 273.133 C 365.525 272.953,367.603 267.966,367.601 267.149 C 367.601 266.791,367.858 266.283,368.174 266.021 C 368.490 265.759,368.874 264.972,369.028 264.272 C 369.181 263.573,369.979 261.200,370.801 259.000 C 371.623 256.800,372.664 253.740,373.114 252.200 C 373.565 250.660,374.205 248.500,374.538 247.400 C 375.271 244.973,377.347 235.585,377.943 232.000 C 378.181 230.570,378.646 227.780,378.976 225.800 C 380.046 219.393,380.458 213.611,380.618 202.800 C 380.778 191.978,380.494 186.707,379.164 175.800 C 378.323 168.907,374.208 150.000,373.549 150.000 C 373.362 150.000,373.242 149.595,373.282 149.100 C 373.362 148.120,372.694 145.951,370.419 139.800 C 369.605 137.600,368.704 135.080,368.416 134.200 C 368.128 133.320,367.531 131.790,367.090 130.800 C 363.523 122.793,359.941 115.458,359.505 115.267 C 359.337 115.193,359.200 114.954,359.200 114.734 C 359.200 114.515,358.570 113.386,357.800 112.226 C 357.030 111.066,356.400 109.815,356.400 109.446 C 356.400 109.077,356.130 108.671,355.800 108.545 C 355.470 108.418,355.200 108.082,355.200 107.798 C 355.200 107.062,350.798 100.000,350.340 100.000 C 350.130 100.000,349.770 99.460,349.540 98.800 C 349.310 98.140,348.959 97.600,348.761 97.600 C 348.562 97.600,348.400 97.356,348.400 97.058 C 348.400 96.761,347.955 96.036,347.410 95.449 C 346.866 94.862,346.420 94.292,346.419 94.183 C 346.416 93.926,345.633 92.960,344.500 91.816 C 344.005 91.317,343.600 90.727,343.600 90.505 C 343.600 90.026,339.695 85.059,339.166 84.867 C 338.965 84.793,338.800 84.553,338.800 84.333 C 338.800 84.113,337.855 82.943,336.700 81.734 C 335.545 80.525,334.456 79.280,334.280 78.968 C 334.104 78.656,333.699 78.400,333.380 78.400 C 333.061 78.400,332.845 78.238,332.900 78.040 C 333.131 77.210,316.097 60.808,313.729 59.581 C 313.112 59.261,312.178 58.497,311.654 57.883 C 311.129 57.269,310.627 56.840,310.536 56.930 C 310.446 57.021,309.867 56.623,309.249 56.047 C 308.632 55.471,307.603 54.734,306.963 54.409 C 306.324 54.083,305.350 53.380,304.800 52.846 C 303.228 51.320,294.260 45.521,289.200 42.758 C 281.743 38.686,274.695 35.200,273.921 35.200 C 273.524 35.200,273.200 35.027,273.200 34.816 C 273.200 34.605,272.435 34.209,271.500 33.936 C 270.565 33.662,269.710 33.322,269.600 33.179 C 269.396 32.913,266.741 31.894,260.000 29.494 C 253.616 27.221,244.662 24.570,242.000 24.164 C 241.010 24.014,239.921 23.748,239.580 23.574 C 239.239 23.400,237.889 23.135,236.580 22.984 C 235.271 22.834,234.058 22.626,233.884 22.522 C 232.734 21.835,218.735 19.970,217.101 20.287 C 216.497 20.404,215.746 20.287,215.433 20.027 C 214.866 19.557,195.276 19.104,189.800 19.435 M220.846 92.016 C 230.466 93.603,246.305 98.425,248.580 100.460 C 248.789 100.647,249.424 100.800,249.991 100.800 C 250.558 100.800,251.330 101.160,251.707 101.600 C 252.084 102.040,252.664 102.400,252.996 102.400 C 253.328 102.400,253.600 102.599,253.600 102.843 C 253.600 103.086,253.879 103.178,254.221 103.047 C 254.562 102.916,254.740 102.974,254.615 103.176 C 254.490 103.377,254.733 103.652,255.154 103.785 C 255.576 103.919,257.024 104.742,258.374 105.614 C 259.723 106.486,260.935 107.200,261.066 107.200 C 261.405 107.200,269.338 112.891,269.694 113.389 C 269.856 113.615,269.991 113.646,269.994 113.458 C 269.997 113.269,270.519 113.629,271.154 114.258 C 271.789 114.886,272.980 115.940,273.800 116.600 C 274.620 117.260,276.666 119.222,278.346 120.960 C 280.026 122.698,282.120 124.842,283.000 125.724 C 283.880 126.605,284.330 127.182,284.000 127.005 C 283.532 126.754,284.971 128.492,286.802 130.390 C 287.423 131.034,289.666 134.186,291.499 136.989 C 292.653 138.755,293.733 140.381,293.899 140.602 C 294.064 140.824,294.636 141.814,295.169 142.802 C 295.702 143.791,296.381 144.746,296.677 144.925 C 296.974 145.103,297.131 145.388,297.025 145.559 C 296.920 145.729,297.726 147.653,298.817 149.834 C 299.908 152.015,300.800 153.946,300.800 154.125 C 300.800 154.303,301.234 155.383,301.765 156.525 C 303.360 159.956,305.295 166.479,307.603 176.200 C 309.315 183.413,309.595 213.985,307.939 212.962 C 307.752 212.847,307.600 213.262,307.600 213.885 C 307.600 216.701,303.284 231.130,300.805 236.600 C 298.629 241.403,295.882 246.991,295.595 247.200 C 295.444 247.310,295.083 247.850,294.794 248.400 C 294.505 248.950,293.332 250.840,292.186 252.600 C 291.041 254.360,289.988 256.289,289.848 256.886 C 289.701 257.508,289.380 257.897,289.096 257.797 C 288.823 257.700,288.254 258.096,287.832 258.677 C 287.348 259.341,287.274 259.614,287.632 259.413 C 287.944 259.238,287.570 259.651,286.800 260.331 C 286.030 261.011,285.535 261.575,285.700 261.584 C 286.138 261.607,285.219 262.605,279.000 268.859 C 271.173 276.730,270.183 277.650,269.873 277.340 C 269.723 277.190,269.600 277.265,269.600 277.506 C 269.600 277.748,269.258 278.055,268.840 278.187 C 268.423 278.320,267.658 278.841,267.140 279.345 C 266.221 280.241,260.160 284.135,255.125 287.065 C 253.736 287.873,252.485 288.706,252.345 288.917 C 252.205 289.128,251.642 289.349,251.093 289.410 C 250.544 289.470,249.669 289.787,249.148 290.115 C 248.626 290.443,247.523 290.925,246.696 291.188 C 245.805 291.470,245.301 291.839,245.458 292.094 C 245.610 292.339,245.537 292.408,245.289 292.255 C 245.050 292.107,243.537 292.499,241.927 293.125 C 237.002 295.039,228.174 297.554,224.200 298.174 C 212.626 299.981,199.572 300.346,191.600 299.088 C 189.290 298.724,186.590 298.319,185.600 298.190 C 184.610 298.060,182.900 297.700,181.800 297.390 C 180.700 297.080,178.115 296.366,176.054 295.805 C 173.994 295.243,170.124 293.880,167.454 292.776 C 164.785 291.671,161.484 290.383,160.121 289.912 C 158.757 289.442,157.728 288.916,157.835 288.744 C 157.941 288.571,156.992 288.129,155.726 287.761 C 153.200 287.027,150.212 287.501,146.000 289.303 C 145.010 289.727,142.683 290.593,140.829 291.228 C 138.974 291.863,137.273 292.567,137.049 292.791 C 136.824 293.016,136.250 293.200,135.773 293.200 C 134.775 293.200,130.666 294.815,130.467 295.285 C 130.393 295.458,129.992 295.600,129.574 295.600 C 129.156 295.600,126.336 296.512,123.307 297.628 C 109.087 302.863,98.046 306.812,96.300 307.288 C 95.475 307.513,94.800 307.855,94.800 308.049 C 94.800 308.242,93.879 308.400,92.753 308.400 C 90.819 308.400,90.721 308.351,90.972 307.500 C 92.047 303.854,92.447 302.521,93.571 298.843 C 94.270 296.556,94.748 294.441,94.633 294.143 C 94.519 293.844,94.585 293.600,94.781 293.600 C 94.977 293.600,96.062 290.675,97.193 287.100 C 98.324 283.525,99.688 279.294,100.224 277.698 C 100.760 276.102,101.178 274.662,101.152 274.498 C 101.010 273.594,101.252 272.785,101.600 273.000 C 101.820 273.136,102.001 273.012,102.002 272.724 C 102.003 272.436,102.440 271.128,102.974 269.817 C 103.508 268.507,103.856 267.290,103.747 267.114 C 103.638 266.938,103.830 266.512,104.174 266.168 C 104.519 265.824,104.800 265.305,104.800 265.014 C 104.800 264.479,107.446 257.574,108.801 254.574 C 111.442 248.724,111.597 241.273,109.170 236.822 C 108.396 235.403,106.800 231.693,106.800 231.315 C 106.800 231.090,106.457 230.028,106.039 228.953 C 104.908 226.053,102.701 217.710,102.188 214.400 C 102.035 213.410,101.734 212.383,101.520 212.118 C 101.306 211.852,101.228 211.479,101.345 211.288 C 101.463 211.098,101.304 208.795,100.992 206.171 C 99.289 191.847,101.005 176.197,105.809 162.239 C 106.559 160.061,107.078 158.126,106.962 157.939 C 106.847 157.753,106.919 157.600,107.122 157.600 C 107.325 157.600,107.814 156.745,108.209 155.700 C 110.130 150.613,114.736 142.025,118.280 136.923 C 119.226 135.561,120.000 134.136,120.000 133.756 C 120.000 133.377,120.115 133.182,120.255 133.322 C 120.396 133.462,121.940 131.771,123.687 129.563 C 125.434 127.355,127.435 124.954,128.132 124.227 C 128.829 123.500,130.242 122.026,131.271 120.952 C 133.299 118.836,136.319 116.186,137.885 115.150 C 138.424 114.793,138.806 114.345,138.733 114.154 C 138.660 113.963,139.247 113.445,140.039 113.003 C 141.752 112.047,143.298 111.011,145.200 109.544 C 145.970 108.950,148.580 107.284,151.000 105.842 C 153.420 104.400,155.617 103.035,155.883 102.810 C 156.149 102.584,156.652 102.400,157.001 102.400 C 157.351 102.400,158.090 101.947,158.644 101.392 C 159.198 100.838,159.803 100.478,159.988 100.593 C 160.173 100.707,161.556 100.247,163.062 99.570 C 179.874 92.016,202.733 89.028,220.846 92.016 M197.000 109.210 C 191.821 109.770,190.757 109.920,187.600 110.542 C 181.604 111.722,172.505 114.751,169.800 116.468 C 168.920 117.026,167.750 117.625,167.200 117.798 C 165.682 118.275,162.000 120.428,162.000 120.838 C 162.000 121.037,161.737 121.200,161.416 121.200 C 161.094 121.200,160.438 121.605,159.957 122.100 C 159.476 122.595,159.221 122.756,159.390 122.459 C 159.597 122.096,159.352 122.144,158.649 122.605 C 158.072 122.983,157.600 123.451,157.600 123.646 C 157.600 123.841,157.364 124.000,157.075 124.000 C 156.787 124.000,156.202 124.315,155.775 124.700 C 155.349 125.085,154.339 125.844,153.530 126.387 C 152.722 126.930,152.147 127.515,152.254 127.687 C 152.360 127.859,152.161 128.000,151.811 128.000 C 150.246 128.000,134.267 145.003,134.267 146.669 C 134.267 146.941,134.126 147.078,133.953 146.971 C 133.558 146.727,132.739 148.206,133.081 148.547 C 133.220 148.686,133.150 148.800,132.926 148.800 C 132.457 148.800,129.984 152.642,129.784 153.684 C 129.614 154.568,128.832 155.935,128.802 155.400 C 128.790 155.180,128.063 156.440,127.187 158.200 C 126.310 159.960,125.683 161.634,125.792 161.921 C 125.901 162.207,125.835 162.345,125.644 162.227 C 125.208 161.958,123.106 167.675,121.609 173.200 C 116.877 190.663,118.345 211.910,125.381 227.800 C 127.181 231.864,128.552 234.576,129.087 235.128 C 129.369 235.418,129.714 236.138,129.855 236.728 C 129.997 237.318,130.664 238.610,131.338 239.600 C 132.974 242.002,133.016 245.276,131.447 248.000 C 130.876 248.990,130.407 250.105,130.405 250.477 C 130.402 250.850,130.049 251.750,129.620 252.477 C 128.142 254.983,124.936 263.336,125.142 264.145 C 125.190 264.335,124.976 264.695,124.665 264.945 C 124.017 265.466,122.716 269.140,123.010 269.616 C 123.117 269.790,123.058 269.992,122.877 270.066 C 122.396 270.263,120.482 275.715,120.690 276.300 C 120.787 276.575,120.693 276.800,120.480 276.800 C 119.957 276.800,119.583 278.342,120.037 278.623 C 120.586 278.962,125.993 277.112,125.723 276.676 C 125.594 276.467,125.739 276.383,126.044 276.489 C 126.350 276.595,128.040 276.157,129.800 275.517 C 131.560 274.876,133.847 274.088,134.883 273.766 C 135.918 273.443,136.874 273.004,137.006 272.790 C 137.139 272.575,137.676 272.400,138.200 272.400 C 138.724 272.400,139.251 272.240,139.372 272.045 C 139.493 271.850,140.178 271.580,140.896 271.444 C 142.268 271.184,146.636 269.498,147.076 269.057 C 147.217 268.916,147.621 268.800,147.973 268.800 C 148.324 268.800,149.246 268.460,150.021 268.045 C 152.261 266.844,157.148 266.348,158.031 267.231 C 158.417 267.617,158.838 267.828,158.967 267.700 C 159.095 267.572,159.200 267.687,159.200 267.957 C 159.200 268.227,159.380 268.336,159.600 268.200 C 159.820 268.064,160.000 268.140,160.000 268.369 C 160.000 268.598,160.458 268.900,161.019 269.040 C 161.579 269.181,161.933 269.401,161.804 269.529 C 161.504 269.829,164.952 271.648,172.072 274.946 C 174.103 275.886,176.289 276.621,183.000 278.620 C 192.392 281.417,207.061 282.166,217.800 280.396 C 222.761 279.579,224.544 279.218,226.346 278.666 C 227.366 278.354,229.010 277.877,230.000 277.608 C 233.777 276.579,239.971 274.117,243.400 272.283 C 243.840 272.047,245.144 271.376,246.297 270.791 C 247.450 270.206,248.260 269.593,248.097 269.430 C 247.934 269.267,248.010 269.193,248.267 269.267 C 248.801 269.419,252.000 267.568,252.000 267.106 C 252.000 266.938,252.245 266.800,252.545 266.800 C 253.191 266.800,257.370 263.682,259.248 261.800 C 259.687 261.360,260.260 260.992,260.523 260.982 C 260.785 260.972,260.955 260.747,260.900 260.482 C 260.845 260.217,260.954 260.000,261.142 260.000 C 261.329 260.000,261.939 259.595,262.495 259.100 C 263.052 258.605,264.241 257.570,265.138 256.800 C 266.034 256.030,266.775 255.085,266.784 254.700 C 266.793 254.315,266.966 254.000,267.168 254.000 C 267.607 254.000,270.800 250.899,270.800 250.473 C 270.800 250.310,271.389 249.552,272.109 248.788 C 273.626 247.179,275.734 244.400,275.439 244.400 C 275.327 244.400,275.671 243.966,276.202 243.434 C 276.733 242.903,277.284 242.003,277.427 241.434 C 277.570 240.866,277.840 240.400,278.027 240.400 C 278.423 240.400,280.457 237.046,280.366 236.541 C 280.231 235.784,280.419 235.165,280.728 235.355 C 281.275 235.693,286.400 224.294,286.400 222.740 C 286.400 222.327,286.570 221.677,286.779 221.295 C 292.037 211.650,291.880 185.801,286.461 168.824 C 284.367 162.266,284.268 162.000,283.917 162.000 C 283.743 162.000,283.595 161.595,283.588 161.100 C 283.573 159.973,281.021 154.712,280.663 155.070 C 280.443 155.290,280.320 154.615,280.428 153.783 C 280.523 153.061,275.252 144.964,273.798 143.598 C 273.249 143.083,272.800 142.416,272.800 142.117 C 272.800 141.818,272.215 141.001,271.500 140.302 C 270.785 139.603,270.246 138.979,270.302 138.914 C 270.522 138.660,268.238 136.403,267.535 136.180 C 267.125 136.049,266.876 135.800,266.984 135.627 C 267.303 135.109,261.674 129.907,261.147 130.233 C 260.852 130.415,260.783 130.351,260.962 130.062 C 261.131 129.788,260.993 129.600,260.624 129.600 C 260.281 129.600,260.045 129.403,260.100 129.163 C 260.155 128.922,259.840 128.517,259.400 128.263 C 258.960 128.008,258.510 127.710,258.400 127.600 C 256.466 125.666,248.493 120.701,247.883 121.051 C 247.617 121.203,247.531 121.184,247.690 121.007 C 247.958 120.711,242.593 117.791,240.086 116.869 C 239.489 116.649,237.470 115.900,235.600 115.203 C 230.552 113.322,228.792 112.828,228.096 113.095 C 227.722 113.239,227.571 113.170,227.723 112.925 C 228.785 111.206,205.068 108.338,197.000 109.210 M174.780 143.973 C 176.186 145.497,177.006 146.990,178.388 150.542 C 179.371 153.070,180.344 155.035,180.550 154.908 C 180.755 154.780,180.811 154.859,180.673 155.081 C 180.536 155.304,181.068 156.997,181.857 158.843 C 182.646 160.689,183.663 163.226,184.117 164.480 C 184.571 165.733,185.067 166.682,185.220 166.588 C 185.567 166.373,185.990 168.841,185.996 171.119 C 186.000 172.864,184.698 175.362,181.993 178.800 C 181.387 179.570,180.871 180.380,180.846 180.600 C 180.821 180.820,180.631 181.000,180.424 181.000 C 179.773 181.000,177.315 184.173,177.514 184.756 C 177.618 185.061,177.545 185.214,177.352 185.094 C 177.158 184.975,176.972 185.337,176.938 185.900 C 176.894 186.637,176.976 186.766,177.232 186.361 C 177.490 185.954,177.589 186.100,177.594 186.892 C 177.597 187.493,178.275 189.003,179.100 190.249 C 179.925 191.494,181.245 193.523,182.033 194.757 C 182.821 195.990,183.676 196.955,183.933 196.900 C 184.190 196.845,184.400 197.160,184.400 197.600 C 184.400 198.044,184.667 198.400,185.000 198.400 C 185.330 198.400,185.600 198.661,185.600 198.981 C 185.600 200.305,199.955 213.600,201.385 213.600 C 201.534 213.600,202.473 214.163,203.473 214.850 C 204.472 215.538,205.716 216.100,206.237 216.100 C 206.759 216.100,207.096 216.244,206.988 216.420 C 206.879 216.596,208.187 217.404,209.895 218.216 C 211.603 219.028,213.810 220.086,214.800 220.568 C 217.821 222.036,219.343 221.695,221.866 218.983 C 223.040 217.722,224.000 216.570,224.000 216.423 C 224.000 216.276,224.594 215.508,225.320 214.716 C 226.045 213.923,227.162 212.493,227.802 211.537 C 231.708 205.700,232.540 205.722,245.400 212.012 C 251.856 215.169,254.105 216.164,254.696 216.124 C 254.968 216.105,255.074 216.281,254.930 216.513 C 254.761 216.787,254.935 216.834,255.422 216.647 C 255.837 216.488,256.045 216.488,255.885 216.648 C 255.726 216.808,256.631 217.466,257.898 218.111 C 259.164 218.756,260.407 219.452,260.659 219.657 C 261.909 220.672,261.379 227.773,259.708 232.400 C 259.112 234.050,258.676 235.643,258.739 235.940 C 258.802 236.237,258.670 236.367,258.447 236.229 C 257.956 235.925,257.109 237.362,257.514 237.812 C 257.671 237.986,257.620 238.027,257.400 237.903 C 257.180 237.779,256.280 238.388,255.400 239.257 C 253.311 241.320,248.524 244.565,246.666 245.178 C 245.860 245.444,245.200 245.804,245.200 245.978 C 245.200 246.152,244.525 246.405,243.700 246.539 C 242.875 246.673,241.390 246.959,240.400 247.174 C 235.740 248.186,227.574 247.344,220.800 245.153 C 219.370 244.690,218.020 244.273,217.800 244.225 C 216.425 243.928,213.740 243.013,213.420 242.733 C 213.211 242.550,212.637 242.400,212.144 242.400 C 211.651 242.400,211.134 242.217,210.996 241.993 C 210.858 241.770,210.590 241.683,210.400 241.800 C 210.210 241.917,209.950 241.843,209.822 241.636 C 209.694 241.428,208.916 241.040,208.094 240.773 C 206.283 240.185,198.680 236.729,198.400 236.366 C 198.290 236.224,197.390 235.699,196.400 235.199 C 195.410 234.699,194.174 233.957,193.653 233.550 C 193.132 233.144,192.578 232.890,192.422 232.987 C 192.265 233.083,191.604 232.676,190.952 232.081 C 190.301 231.487,189.256 230.665,188.632 230.257 C 188.007 229.848,187.024 229.095,186.448 228.585 C 184.644 226.987,183.459 225.973,181.631 224.462 C 178.742 222.075,173.841 217.029,168.600 211.048 C 167.280 209.542,165.812 207.925,165.337 207.455 C 164.862 206.985,164.401 206.240,164.313 205.800 C 164.223 205.354,163.898 205.059,163.576 205.133 C 163.259 205.207,163.127 205.140,163.281 204.985 C 163.559 204.707,159.357 198.324,158.727 198.067 C 158.547 197.993,158.400 197.774,158.400 197.580 C 158.400 197.385,157.317 195.605,155.994 193.623 C 154.671 191.642,153.415 189.566,153.204 189.010 C 152.993 188.455,152.635 188.000,152.410 188.000 C 152.184 188.000,151.999 187.775,151.999 187.500 C 151.996 186.620,149.746 181.188,149.489 181.444 C 149.354 181.579,149.260 181.355,149.280 180.945 C 149.301 180.535,149.008 179.120,148.629 177.800 C 146.750 171.250,147.578 161.127,150.479 155.179 C 151.171 153.761,151.760 152.510,151.788 152.400 C 152.064 151.321,152.511 150.378,152.672 150.539 C 152.782 150.648,153.906 149.537,155.171 148.069 C 159.841 142.651,161.114 142.068,168.380 142.026 L 172.959 142.000 174.780 143.973 " stroke="none" fill="#0cbc44" fill-rule="evenodd"></path><path id="path2" d="M193.305 19.087 C 193.914 19.179,194.814 19.177,195.305 19.082 C 195.797 18.987,195.300 18.911,194.200 18.914 C 193.100 18.917,192.697 18.995,193.305 19.087 M205.705 19.087 C 206.314 19.179,207.214 19.177,207.705 19.082 C 208.197 18.987,207.700 18.911,206.600 18.914 C 205.500 18.917,205.097 18.995,205.705 19.087 M322.400 66.525 C 322.400 66.594,322.985 67.179,323.700 67.825 L 325.000 69.000 323.825 67.700 C 322.730 66.488,322.400 66.216,322.400 66.525 M331.200 75.325 C 331.200 75.394,331.785 75.979,332.500 76.625 L 333.800 77.800 332.625 76.500 C 331.530 75.288,331.200 75.016,331.200 75.325 M130.975 121.700 L 129.800 123.000 131.100 121.825 C 132.312 120.730,132.584 120.400,132.275 120.400 C 132.206 120.400,131.621 120.985,130.975 121.700 M147.728 168.800 C 147.728 170.230,147.801 170.815,147.889 170.100 C 147.978 169.385,147.978 168.215,147.889 167.500 C 147.801 166.785,147.728 167.370,147.728 168.800 M308.953 195.400 C 308.953 198.040,309.018 199.068,309.097 197.684 C 309.175 196.301,309.174 194.141,309.095 192.884 C 309.016 191.628,308.952 192.760,308.953 195.400 M100.544 195.200 C 100.544 197.290,100.612 198.145,100.694 197.100 C 100.776 196.055,100.776 194.345,100.694 193.300 C 100.612 192.255,100.544 193.110,100.544 195.200 M380.909 193.600 C 380.909 194.590,380.987 194.995,381.082 194.500 C 381.178 194.005,381.178 193.195,381.082 192.700 C 380.987 192.205,380.909 192.610,380.909 193.600 M18.920 194.400 C 18.920 195.610,18.995 196.105,19.087 195.500 C 19.178 194.895,19.178 193.905,19.087 193.300 C 18.995 192.695,18.920 193.190,18.920 194.400 M380.924 205.800 C 380.926 207.120,381.001 207.612,381.090 206.893 C 381.179 206.174,381.177 205.094,381.086 204.493 C 380.995 203.892,380.922 204.480,380.924 205.800 M18.909 206.400 C 18.909 207.390,18.987 207.795,19.082 207.300 C 19.178 206.805,19.178 205.995,19.082 205.500 C 18.987 205.005,18.909 205.410,18.909 206.400 M178.383 221.300 C 180.041 223.066,180.400 223.384,180.400 223.083 C 180.400 223.019,179.545 222.164,178.500 221.183 L 176.600 219.400 178.383 221.300 M233.500 247.489 C 234.215 247.578,235.385 247.578,236.100 247.489 C 236.815 247.401,236.230 247.328,234.800 247.328 C 233.370 247.328,232.785 247.401,233.500 247.489 M278.400 269.000 C 276.761 270.650,275.510 272.000,275.620 272.000 C 275.730 272.000,277.161 270.650,278.800 269.000 C 280.439 267.350,281.690 266.000,281.580 266.000 C 281.470 266.000,280.039 267.350,278.400 269.000 M332.575 323.300 L 331.400 324.600 332.700 323.425 C 333.415 322.779,334.000 322.194,334.000 322.125 C 334.000 321.816,333.670 322.088,332.575 323.300 M75.200 331.325 C 75.200 331.394,75.785 331.979,76.500 332.625 L 77.800 333.800 76.625 332.500 C 75.530 331.288,75.200 331.016,75.200 331.325 M192.505 381.087 C 193.114 381.179,194.014 381.177,194.505 381.082 C 194.997 380.987,194.500 380.911,193.400 380.914 C 192.300 380.917,191.897 380.995,192.505 381.087 M204.900 381.087 C 205.505 381.178,206.495 381.178,207.100 381.087 C 207.705 380.995,207.210 380.920,206.000 380.920 C 204.790 380.920,204.295 380.995,204.900 381.087 " stroke="none" fill="#63c983" fill-rule="evenodd"></path><path id="path3" d="M190.305 19.083 C 190.802 19.179,191.522 19.175,191.905 19.075 C 192.287 18.975,191.880 18.896,191.000 18.901 C 190.120 18.905,189.807 18.987,190.305 19.083 M209.100 19.082 C 209.595 19.178,210.405 19.178,210.900 19.082 C 211.395 18.987,210.990 18.909,210.000 18.909 C 209.010 18.909,208.605 18.987,209.100 19.082 M215.505 19.483 C 216.002 19.579,216.722 19.575,217.105 19.475 C 217.487 19.375,217.080 19.296,216.200 19.301 C 215.320 19.305,215.007 19.387,215.505 19.483 M297.200 46.924 C 297.200 47.017,297.965 47.598,298.900 48.215 C 299.835 48.832,300.389 49.080,300.131 48.768 C 299.634 48.167,297.200 46.636,297.200 46.924 M87.800 57.444 L 86.200 58.876 87.900 57.604 C 89.363 56.510,89.891 55.983,89.500 56.006 C 89.445 56.009,88.680 56.656,87.800 57.444 M71.592 71.900 L 67.800 75.800 71.700 72.008 C 75.322 68.486,75.782 68.000,75.492 68.000 C 75.433 68.000,73.678 69.755,71.592 71.900 M57.200 88.000 C 56.503 88.880,56.023 89.600,56.133 89.600 C 56.243 89.600,56.903 88.880,57.600 88.000 C 58.297 87.120,58.777 86.400,58.667 86.400 C 58.557 86.400,57.897 87.120,57.200 88.000 M198.100 91.476 C 198.485 91.576,199.115 91.576,199.500 91.476 C 199.885 91.375,199.570 91.293,198.800 91.293 C 198.030 91.293,197.715 91.375,198.100 91.476 M210.900 91.476 C 211.285 91.576,211.915 91.576,212.300 91.476 C 212.685 91.375,212.370 91.293,211.600 91.293 C 210.830 91.293,210.515 91.375,210.900 91.476 M53.600 92.800 C 53.130 93.460,52.836 94.000,52.946 94.000 C 53.056 94.000,53.530 93.460,54.000 92.800 C 54.470 92.140,54.764 91.600,54.654 91.600 C 54.544 91.600,54.070 92.140,53.600 92.800 M201.100 108.693 C 202.035 108.777,203.565 108.777,204.500 108.693 C 205.435 108.609,204.670 108.540,202.800 108.540 C 200.930 108.540,200.165 108.609,201.100 108.693 M278.400 121.800 C 279.595 123.010,280.663 124.000,280.773 124.000 C 280.883 124.000,279.995 123.010,278.800 121.800 C 277.605 120.590,276.537 119.600,276.427 119.600 C 276.317 119.600,277.205 120.590,278.400 121.800 M146.400 131.800 C 145.428 132.790,144.723 133.600,144.833 133.600 C 144.943 133.600,145.828 132.790,146.800 131.800 C 147.772 130.810,148.477 130.000,148.367 130.000 C 148.257 130.000,147.372 130.810,146.400 131.800 M266.200 134.000 C 268.171 135.980,269.873 137.600,269.983 137.600 C 270.093 137.600,268.571 135.980,266.600 134.000 C 264.629 132.020,262.927 130.400,262.817 130.400 C 262.707 130.400,264.229 132.020,266.200 134.000 M141.178 137.100 L 139.800 138.600 141.300 137.222 C 142.125 136.463,142.800 135.788,142.800 135.722 C 142.800 135.416,142.462 135.704,141.178 137.100 M185.693 170.800 C 185.693 171.570,185.775 171.885,185.876 171.500 C 185.976 171.115,185.976 170.485,185.876 170.100 C 185.775 169.715,185.693 170.030,185.693 170.800 M380.493 184.000 C 380.493 184.770,380.575 185.085,380.676 184.700 C 380.776 184.315,380.776 183.685,380.676 183.300 C 380.575 182.915,380.493 183.230,380.493 184.000 M118.493 187.600 C 118.493 188.370,118.575 188.685,118.676 188.300 C 118.776 187.915,118.776 187.285,118.676 186.900 C 118.575 186.515,118.493 186.830,118.493 187.600 M380.920 190.000 C 380.920 191.210,380.995 191.705,381.087 191.100 C 381.178 190.495,381.178 189.505,381.087 188.900 C 380.995 188.295,380.920 188.790,380.920 190.000 M290.893 190.000 C 290.893 190.770,290.975 191.085,291.076 190.700 C 291.176 190.315,291.176 189.685,291.076 189.300 C 290.975 188.915,290.893 189.230,290.893 190.000 M18.901 191.000 C 18.905 191.880,18.987 192.193,19.083 191.695 C 19.179 191.198,19.175 190.478,19.075 190.095 C 18.975 189.713,18.896 190.120,18.901 191.000 M290.901 201.800 C 290.905 202.680,290.987 202.993,291.083 202.495 C 291.179 201.998,291.175 201.278,291.075 200.895 C 290.975 200.513,290.896 200.920,290.901 201.800 M100.893 202.800 C 100.893 203.570,100.975 203.885,101.076 203.500 C 101.176 203.115,101.176 202.485,101.076 202.100 C 100.975 201.715,100.893 202.030,100.893 202.800 M190.000 205.000 C 191.417 206.430,192.667 207.600,192.777 207.600 C 192.887 207.600,191.817 206.430,190.400 205.000 C 188.983 203.570,187.733 202.400,187.623 202.400 C 187.513 202.400,188.583 203.570,190.000 205.000 M18.914 209.800 C 18.917 210.900,18.995 211.303,19.087 210.695 C 19.179 210.086,19.177 209.186,19.082 208.695 C 18.987 208.203,18.911 208.700,18.914 209.800 M380.909 209.600 C 380.909 210.590,380.987 210.995,381.082 210.500 C 381.178 210.005,381.178 209.195,381.082 208.700 C 380.987 208.205,380.909 208.610,380.909 209.600 M173.183 215.700 C 174.841 217.466,175.200 217.784,175.200 217.483 C 175.200 217.419,174.345 216.564,173.300 215.583 L 171.400 213.800 173.183 215.700 M380.493 215.600 C 380.493 216.370,380.575 216.685,380.676 216.300 C 380.776 215.915,380.776 215.285,380.676 214.900 C 380.575 214.515,380.493 214.830,380.493 215.600 M19.301 216.200 C 19.305 217.080,19.387 217.393,19.483 216.895 C 19.579 216.398,19.575 215.678,19.475 215.295 C 19.375 214.913,19.296 215.320,19.301 216.200 M220.975 220.500 L 219.800 221.800 221.100 220.625 C 221.815 219.979,222.400 219.394,222.400 219.325 C 222.400 219.016,222.070 219.288,220.975 220.500 M260.914 223.400 C 260.917 224.500,260.995 224.903,261.087 224.295 C 261.179 223.686,261.177 222.786,261.082 222.295 C 260.987 221.803,260.911 222.300,260.914 223.400 M111.314 245.000 C 111.317 246.100,111.395 246.503,111.487 245.895 C 111.579 245.286,111.577 244.386,111.482 243.895 C 111.387 243.403,111.311 243.900,111.314 245.000 M265.792 256.500 L 262.200 260.200 265.900 256.608 C 269.336 253.272,269.782 252.800,269.492 252.800 C 269.432 252.800,267.767 254.465,265.792 256.500 M286.975 259.068 C 286.359 259.876,286.059 260.411,286.309 260.256 C 286.821 259.940,288.553 257.600,288.275 257.600 C 288.176 257.600,287.591 258.261,286.975 259.068 M202.711 281.893 C 203.651 281.978,205.091 281.977,205.911 281.891 C 206.730 281.805,205.960 281.736,204.200 281.737 C 202.440 281.739,201.770 281.809,202.711 281.893 M47.477 298.431 C 47.875 299.108,48.456 299.873,48.768 300.131 C 49.080 300.389,48.832 299.835,48.215 298.900 C 46.920 296.937,46.409 296.612,47.477 298.431 M199.305 299.487 C 199.914 299.579,200.814 299.577,201.305 299.482 C 201.797 299.387,201.300 299.311,200.200 299.314 C 199.100 299.317,198.697 299.395,199.305 299.487 M207.500 299.489 C 208.215 299.578,209.385 299.578,210.100 299.489 C 210.815 299.401,210.230 299.328,208.800 299.328 C 207.370 299.328,206.785 299.401,207.500 299.489 M91.206 307.700 C 91.202 308.210,91.499 308.387,92.300 308.354 C 93.143 308.318,93.213 308.261,92.600 308.107 C 92.160 307.997,91.668 307.703,91.506 307.454 C 91.320 307.166,91.210 307.256,91.206 307.700 M64.800 320.925 C 64.800 320.994,65.385 321.579,66.100 322.225 L 67.400 323.400 66.225 322.100 C 65.130 320.888,64.800 320.616,64.800 320.925 M327.591 328.700 L 324.200 332.200 327.700 328.809 C 330.951 325.659,331.382 325.200,331.091 325.200 C 331.031 325.200,329.456 326.775,327.591 328.700 M305.400 347.435 L 304.200 348.466 305.600 347.563 C 307.396 346.404,307.401 346.400,306.967 346.402 C 306.765 346.403,306.060 346.868,305.400 347.435 M183.300 380.676 C 183.685 380.776,184.315 380.776,184.700 380.676 C 185.085 380.575,184.770 380.493,184.000 380.493 C 183.230 380.493,182.915 380.575,183.300 380.676 M214.900 380.676 C 215.285 380.776,215.915 380.776,216.300 380.676 C 216.685 380.575,216.370 380.493,215.600 380.493 C 214.830 380.493,214.515 380.575,214.900 380.676 M188.905 381.087 C 189.514 381.179,190.414 381.177,190.905 381.082 C 191.397 380.987,190.900 380.911,189.800 380.914 C 188.700 380.917,188.297 380.995,188.905 381.087 M208.705 381.083 C 209.202 381.179,209.922 381.175,210.305 381.075 C 210.687 380.975,210.280 380.896,209.400 380.901 C 208.520 380.905,208.207 380.987,208.705 381.083 " stroke="none" fill="#81e4a6" fill-rule="evenodd"></path><path id="path4" d="M198.100 19.096 C 199.365 19.175,201.435 19.175,202.700 19.096 C 203.965 19.016,202.930 18.951,200.400 18.951 C 197.870 18.951,196.835 19.016,198.100 19.096 M188.300 19.489 C 189.015 19.578,190.185 19.578,190.900 19.489 C 191.615 19.401,191.030 19.328,189.600 19.328 C 188.170 19.328,187.585 19.401,188.300 19.489 M209.500 19.489 C 210.215 19.578,211.385 19.578,212.100 19.489 C 212.815 19.401,212.230 19.328,210.800 19.328 C 209.370 19.328,208.785 19.401,209.500 19.489 M180.400 19.965 C 179.190 20.094,178.470 20.299,178.800 20.421 C 179.130 20.542,180.750 20.430,182.400 20.172 C 185.513 19.686,184.246 19.555,180.400 19.965 M215.400 20.000 C 215.536 20.220,216.087 20.400,216.624 20.400 C 217.161 20.400,217.600 20.220,217.600 20.000 C 217.600 19.780,217.049 19.600,216.376 19.600 C 215.663 19.600,215.256 19.767,215.400 20.000 M219.700 20.276 C 220.085 20.376,220.715 20.376,221.100 20.276 C 221.485 20.175,221.170 20.093,220.400 20.093 C 219.630 20.093,219.315 20.175,219.700 20.276 M173.300 21.076 C 173.685 21.176,174.315 21.176,174.700 21.076 C 175.085 20.975,174.770 20.893,174.000 20.893 C 173.230 20.893,172.915 20.975,173.300 21.076 M168.800 21.600 L 167.400 21.895 168.800 21.919 C 169.570 21.933,170.560 21.789,171.000 21.600 L 171.800 21.256 171.000 21.281 C 170.560 21.294,169.570 21.438,168.800 21.600 M228.100 21.476 C 228.485 21.576,229.115 21.576,229.500 21.476 C 229.885 21.375,229.570 21.293,228.800 21.293 C 228.030 21.293,227.715 21.375,228.100 21.476 M164.800 22.288 C 164.250 22.387,163.643 22.618,163.452 22.802 C 163.260 22.986,163.885 22.961,164.840 22.746 C 167.511 22.146,167.481 21.807,164.800 22.288 M232.833 22.142 C 233.226 22.576,236.800 23.123,236.800 22.748 C 236.800 22.557,236.463 22.400,236.050 22.400 C 235.638 22.400,234.693 22.284,233.950 22.143 C 233.207 22.001,232.705 22.001,232.833 22.142 M158.800 23.600 L 157.800 23.920 158.876 23.960 C 159.468 23.982,160.064 23.820,160.200 23.600 C 160.481 23.145,160.220 23.145,158.800 23.600 M239.600 23.594 C 239.930 23.811,240.635 23.991,241.167 23.994 C 242.451 24.002,242.125 23.775,240.400 23.458 C 239.415 23.277,239.178 23.318,239.600 23.594 M155.600 24.400 C 154.796 24.657,154.757 24.723,155.400 24.732 C 155.840 24.738,156.560 24.589,157.000 24.400 C 158.019 23.962,156.968 23.962,155.600 24.400 M152.600 25.200 C 151.829 25.531,151.831 25.545,152.676 25.572 C 153.158 25.587,153.664 25.420,153.800 25.200 C 154.092 24.727,153.701 24.727,152.600 25.200 M249.000 26.000 C 249.440 26.189,250.070 26.344,250.400 26.344 C 250.778 26.344,250.704 26.217,250.200 26.000 C 249.760 25.811,249.130 25.656,248.800 25.656 C 248.422 25.656,248.496 25.783,249.000 26.000 M253.600 27.400 C 254.370 27.697,255.270 27.939,255.600 27.939 C 255.930 27.939,255.570 27.697,254.800 27.400 C 254.030 27.103,253.130 26.861,252.800 26.861 C 252.470 26.861,252.830 27.103,253.600 27.400 M139.400 29.414 C 138.395 29.898,138.363 29.953,139.200 29.751 C 139.750 29.619,140.371 29.350,140.580 29.155 C 141.098 28.671,140.814 28.733,139.400 29.414 M135.600 30.800 C 135.115 31.114,135.172 31.189,135.900 31.194 C 136.395 31.197,136.800 31.020,136.800 30.800 C 136.800 30.299,136.376 30.299,135.600 30.800 M264.600 31.200 C 265.480 31.607,266.470 31.950,266.800 31.962 C 267.130 31.973,266.615 31.626,265.656 31.191 C 264.697 30.756,263.707 30.413,263.456 30.430 C 263.205 30.446,263.720 30.793,264.600 31.200 M130.800 32.652 C 127.333 34.103,126.205 34.731,128.000 34.208 C 130.165 33.578,135.366 31.137,134.380 31.214 C 134.281 31.222,132.670 31.869,130.800 32.652 M269.600 33.174 C 269.600 33.491,271.668 34.059,271.920 33.811 C 271.987 33.746,271.492 33.501,270.820 33.267 C 270.149 33.033,269.600 32.991,269.600 33.174 M123.200 36.000 C 122.430 36.422,121.980 36.766,122.200 36.766 C 122.420 36.766,123.230 36.422,124.000 36.000 C 124.770 35.578,125.220 35.234,125.000 35.234 C 124.780 35.234,123.970 35.578,123.200 36.000 M118.000 38.630 C 116.570 39.395,115.850 39.904,116.400 39.760 C 117.426 39.491,120.800 37.652,120.800 37.362 C 120.800 37.128,120.841 37.110,118.000 38.630 M284.200 39.911 C 284.420 40.146,286.040 41.100,287.800 42.031 C 289.560 42.962,290.820 43.542,290.600 43.320 C 290.044 42.759,283.707 39.384,284.200 39.911 M107.776 44.187 C 107.117 44.686,107.099 44.776,107.657 44.787 C 108.019 44.794,108.418 44.530,108.545 44.200 C 108.831 43.455,108.747 43.453,107.776 44.187 M104.300 46.243 C 103.035 47.025,102.000 47.826,102.000 48.024 C 102.000 48.221,103.080 47.642,104.400 46.736 C 106.463 45.320,107.126 44.765,106.700 44.811 C 106.645 44.817,105.565 45.461,104.300 46.243 M304.600 52.725 C 305.260 53.414,305.952 53.983,306.138 53.989 C 306.324 53.995,306.999 54.372,307.638 54.827 C 309.657 56.265,308.894 55.367,306.700 53.723 C 303.786 51.540,303.197 51.260,304.600 52.725 M93.800 53.435 L 92.600 54.466 93.900 53.606 C 94.615 53.133,95.200 52.668,95.200 52.573 C 95.200 52.273,95.031 52.378,93.800 53.435 M88.344 57.590 L 87.400 58.381 88.497 57.890 C 89.100 57.621,89.595 57.265,89.597 57.100 C 89.602 56.641,89.371 56.731,88.344 57.590 M311.799 58.043 C 312.412 58.857,314.400 60.222,314.400 59.829 C 314.400 59.777,313.642 59.125,312.716 58.381 C 311.309 57.250,311.159 57.195,311.799 58.043 M81.200 63.302 C 76.025 67.753,66.876 76.982,63.061 81.600 C 60.826 84.306,60.596 84.666,62.261 82.849 C 65.840 78.945,79.069 65.734,82.420 62.717 C 86.568 58.983,85.785 59.358,81.200 63.302 M319.200 64.007 C 326.710 71.225,333.130 77.789,332.956 78.071 C 332.844 78.252,332.951 78.400,333.194 78.400 C 333.436 78.400,334.637 79.435,335.862 80.700 L 338.090 83.000 335.945 80.410 C 333.196 77.091,322.957 66.847,319.590 64.046 L 317.000 61.892 319.200 64.007 M57.711 88.100 C 56.994 89.028,56.751 89.600,57.076 89.597 C 57.254 89.595,57.608 89.145,57.862 88.597 C 58.368 87.506,58.312 87.323,57.711 88.100 M343.487 90.413 C 343.604 90.860,344.025 91.399,344.423 91.612 C 344.820 91.825,345.255 92.343,345.388 92.763 C 345.521 93.183,345.896 93.628,346.220 93.752 C 346.544 93.877,346.066 92.993,345.157 91.789 C 343.321 89.357,343.181 89.242,343.487 90.413 M202.082 91.096 C 203.558 91.173,206.078 91.173,207.682 91.097 C 209.287 91.021,208.080 90.958,205.000 90.958 C 201.920 90.957,200.607 91.019,202.082 91.096 M194.305 91.483 C 194.802 91.579,195.522 91.575,195.905 91.475 C 196.287 91.375,195.880 91.296,195.000 91.301 C 194.120 91.305,193.807 91.387,194.305 91.483 M214.705 91.483 C 215.202 91.579,215.922 91.575,216.305 91.475 C 216.687 91.375,216.280 91.296,215.400 91.301 C 214.520 91.305,214.207 91.387,214.705 91.483 M347.419 95.458 C 347.959 96.041,348.400 96.761,348.400 97.058 C 348.400 97.356,348.577 97.600,348.792 97.600 C 349.008 97.600,349.299 98.055,349.438 98.611 C 349.578 99.166,350.047 99.811,350.480 100.043 C 350.998 100.320,350.567 99.426,349.222 97.432 C 348.096 95.765,347.010 94.400,346.807 94.400 C 346.604 94.400,346.880 94.876,347.419 95.458 M158.899 101.190 C 158.438 101.929,158.470 101.951,159.390 101.532 C 159.932 101.285,160.280 100.929,160.164 100.742 C 159.828 100.198,159.430 100.340,158.899 101.190 M250.200 101.072 C 250.640 101.193,251.149 101.497,251.330 101.746 C 251.549 102.046,251.606 101.996,251.499 101.600 C 251.410 101.270,250.901 100.967,250.369 100.926 C 249.605 100.868,249.569 100.899,250.200 101.072 M48.058 101.361 C 48.200 101.519,47.930 102.076,47.458 102.598 C 46.208 103.980,44.463 107.167,45.363 106.427 C 45.745 106.111,46.432 105.122,46.888 104.228 C 47.344 103.334,47.988 102.405,48.319 102.162 C 48.829 101.789,48.835 101.672,48.361 101.397 C 48.052 101.218,47.916 101.202,48.058 101.361 M352.882 103.434 C 353.387 104.333,354.123 105.503,354.518 106.034 C 354.912 106.565,354.822 106.265,354.318 105.366 C 353.813 104.467,353.077 103.297,352.682 102.766 C 352.288 102.235,352.378 102.535,352.882 103.434 M44.384 107.400 C 44.341 107.620,44.327 107.935,44.353 108.100 C 44.379 108.265,44.225 108.400,44.010 108.400 C 43.796 108.400,43.318 108.985,42.948 109.700 C 42.330 110.896,42.329 110.956,42.938 110.451 C 43.302 110.149,43.600 109.719,43.600 109.495 C 43.600 109.271,43.895 108.873,44.255 108.609 C 44.615 108.346,44.810 107.876,44.687 107.565 C 44.564 107.254,44.428 107.180,44.384 107.400 M355.200 107.757 C 355.200 108.064,355.474 108.420,355.809 108.548 C 356.306 108.739,356.341 108.636,355.995 107.991 C 355.499 107.064,355.200 106.976,355.200 107.757 M197.500 109.082 C 197.995 109.178,198.805 109.178,199.300 109.082 C 199.795 108.987,199.390 108.909,198.400 108.909 C 197.410 108.909,197.005 108.987,197.500 109.082 M206.300 109.082 C 206.795 109.178,207.605 109.178,208.100 109.082 C 208.595 108.987,208.190 108.909,207.200 108.909 C 206.210 108.909,205.805 108.987,206.300 109.082 M192.400 109.606 C 191.978 109.882,192.215 109.923,193.200 109.742 C 194.925 109.425,195.251 109.198,193.967 109.206 C 193.435 109.209,192.730 109.389,192.400 109.606 M356.400 109.579 C 356.400 109.875,357.030 111.066,357.800 112.226 C 358.570 113.386,359.200 114.530,359.200 114.768 C 359.200 115.006,359.390 115.200,359.622 115.200 C 359.854 115.200,359.383 113.985,358.576 112.500 C 356.940 109.488,356.400 108.764,356.400 109.579 M181.800 111.600 C 181.296 111.817,181.222 111.944,181.600 111.944 C 181.930 111.944,182.560 111.789,183.000 111.600 C 183.504 111.383,183.578 111.256,183.200 111.256 C 182.870 111.256,182.240 111.411,181.800 111.600 M139.144 113.587 C 138.625 114.019,138.405 114.379,138.656 114.387 C 138.906 114.394,139.536 114.046,140.056 113.613 C 140.575 113.181,140.795 112.821,140.544 112.813 C 140.294 112.806,139.664 113.154,139.144 113.587 M272.800 116.032 C 277.680 120.767,281.424 124.180,279.800 122.413 C 278.700 121.215,277.440 119.901,277.000 119.493 C 276.560 119.084,275.480 118.075,274.600 117.249 C 273.720 116.424,272.730 115.594,272.400 115.405 C 272.070 115.216,272.250 115.499,272.800 116.032 M39.274 116.598 C 39.023 117.149,38.972 117.600,39.162 117.600 C 39.494 117.600,40.092 115.959,39.849 115.716 C 39.784 115.650,39.525 116.047,39.274 116.598 M135.000 117.405 C 132.490 119.648,129.209 122.943,129.348 123.081 C 129.405 123.139,131.240 121.484,133.426 119.404 C 137.550 115.480,138.489 114.287,135.000 117.405 M168.400 116.830 C 167.190 117.486,166.627 117.908,167.149 117.769 C 168.138 117.504,170.800 116.040,170.800 115.760 C 170.800 115.529,170.807 115.526,168.400 116.830 M38.073 119.000 C 37.822 119.550,37.683 120.000,37.763 120.000 C 37.843 120.000,38.203 119.550,38.563 119.000 C 38.924 118.450,39.063 118.000,38.873 118.000 C 38.684 118.000,38.323 118.450,38.073 119.000 M244.000 118.596 C 244.000 118.870,246.449 120.084,246.632 119.901 C 246.719 119.814,246.162 119.444,245.395 119.078 C 244.628 118.712,244.000 118.495,244.000 118.596 M160.900 120.870 C 160.185 121.312,159.600 121.848,159.600 122.060 C 159.600 122.273,159.432 122.344,159.228 122.217 C 159.023 122.091,158.752 122.154,158.626 122.358 C 158.240 122.982,159.443 122.614,160.172 121.885 C 160.549 121.508,161.095 121.200,161.386 121.200 C 161.677 121.200,162.018 120.930,162.145 120.600 C 162.271 120.270,162.336 120.015,162.287 120.033 C 162.239 120.051,161.615 120.428,160.900 120.870 M363.283 122.500 C 363.703 123.736,364.800 125.645,364.800 125.140 C 364.800 124.755,363.178 121.200,363.002 121.200 C 362.914 121.200,363.040 121.785,363.283 122.500 M35.872 123.419 C 34.932 125.389,35.064 125.724,36.047 123.862 C 36.493 123.016,36.787 122.254,36.701 122.167 C 36.614 122.081,36.241 122.644,35.872 123.419 M127.687 124.656 C 125.905 126.688,123.906 129.200,124.070 129.200 C 124.162 129.200,125.365 127.940,126.744 126.400 C 128.123 124.860,129.104 123.603,128.925 123.607 C 128.746 123.611,128.189 124.083,127.687 124.656 M255.600 125.346 C 255.600 125.456,256.140 125.930,256.800 126.400 C 257.460 126.870,258.000 127.164,258.000 127.054 C 258.000 126.944,257.460 126.470,256.800 126.000 C 256.140 125.530,255.600 125.236,255.600 125.346 M282.418 125.822 C 282.702 126.164,283.309 126.643,283.767 126.887 C 284.481 127.266,284.457 127.179,283.600 126.272 C 282.538 125.148,281.545 124.770,282.418 125.822 M34.085 127.373 C 33.415 128.844,33.478 129.152,34.230 128.079 C 34.576 127.584,34.795 126.984,34.715 126.744 C 34.635 126.505,34.352 126.788,34.085 127.373 M365.600 127.284 C 365.600 127.716,366.815 130.400,367.011 130.400 C 367.121 130.400,366.933 129.734,366.593 128.921 C 365.993 127.486,365.600 126.838,365.600 127.284 M260.200 129.200 C 260.064 129.420,260.244 129.600,260.600 129.600 C 260.956 129.600,261.155 129.750,261.041 129.933 C 260.928 130.117,261.098 130.267,261.419 130.267 C 261.902 130.267,261.889 130.140,261.340 129.533 C 260.569 128.681,260.528 128.669,260.200 129.200 M32.870 130.206 C 32.595 130.810,32.452 131.386,32.553 131.486 C 32.824 131.758,33.675 130.024,33.511 129.532 C 33.433 129.300,33.145 129.603,32.870 130.206 M143.793 134.900 L 139.400 139.400 143.900 135.007 C 146.375 132.591,148.400 130.566,148.400 130.507 C 148.400 130.218,147.874 130.720,143.793 134.900 M265.124 133.323 C 266.277 134.491,267.138 135.529,267.036 135.631 C 266.935 135.732,267.425 136.139,268.126 136.535 C 269.023 137.042,268.515 136.359,266.410 134.227 C 264.766 132.562,263.332 131.200,263.224 131.200 C 263.116 131.200,263.971 132.155,265.124 133.323 M31.667 133.180 C 31.433 133.851,31.393 134.400,31.577 134.400 C 31.944 134.400,32.547 132.413,32.266 132.132 C 32.170 132.037,31.901 132.508,31.667 133.180 M288.799 133.500 C 289.322 134.215,289.813 134.800,289.889 134.800 C 290.193 134.800,289.201 133.300,288.545 132.767 C 288.113 132.416,288.210 132.696,288.799 133.500 M30.454 136.202 C 30.164 137.004,30.009 137.742,30.109 137.843 C 30.381 138.114,31.305 135.715,31.131 135.192 C 31.048 134.945,30.744 135.400,30.454 136.202 M368.822 135.249 C 368.810 135.605,369.253 136.865,369.806 138.049 C 370.897 140.381,370.744 139.313,369.569 136.400 C 369.170 135.410,368.834 134.892,368.822 135.249 M272.692 141.877 C 272.862 142.310,273.785 143.550,274.744 144.632 L 276.489 146.600 275.225 144.700 C 274.530 143.655,273.780 142.800,273.557 142.800 C 273.335 142.800,273.251 142.640,273.372 142.445 C 273.493 142.250,273.320 141.865,272.988 141.590 C 272.476 141.165,272.431 141.208,272.692 141.877 M136.000 143.600 C 135.303 144.480,134.823 145.200,134.933 145.200 C 135.043 145.200,135.703 144.480,136.400 143.600 C 137.097 142.720,137.577 142.000,137.467 142.000 C 137.357 142.000,136.697 142.720,136.000 143.600 M168.276 142.376 C 172.738 142.581,173.248 142.685,174.294 143.600 C 174.991 144.210,174.925 144.093,174.124 143.300 L 172.812 142.000 168.106 142.076 L 163.400 142.151 168.276 142.376 M159.200 143.713 C 158.870 143.981,158.335 144.560,158.012 145.000 C 157.568 145.604,157.716 145.556,158.612 144.806 C 159.265 144.259,159.971 143.674,160.180 143.506 C 160.420 143.313,160.420 143.205,160.180 143.213 C 159.971 143.220,159.530 143.445,159.200 143.713 M27.040 146.240 C 26.653 147.467,26.409 148.542,26.497 148.630 C 26.585 148.718,26.973 147.787,27.360 146.560 C 27.747 145.333,27.991 144.258,27.903 144.170 C 27.815 144.082,27.427 145.013,27.040 146.240 M152.067 151.413 C 151.820 151.956,151.750 152.400,151.912 152.400 C 152.394 152.400,153.213 150.855,152.850 150.631 C 152.667 150.518,152.315 150.869,152.067 151.413 M25.246 152.267 C 25.221 152.524,25.084 153.064,24.941 153.467 C 24.740 154.036,24.794 154.097,25.179 153.742 C 25.452 153.491,25.589 152.951,25.484 152.542 C 25.379 152.134,25.272 152.010,25.246 152.267 M128.904 154.381 C 128.636 154.811,128.566 155.256,128.750 155.369 C 128.933 155.482,129.285 155.131,129.533 154.587 C 130.067 153.415,129.603 153.263,128.904 154.381 M280.283 154.396 C 280.397 154.833,280.643 155.097,280.828 154.983 C 281.222 154.739,280.865 153.600,280.395 153.600 C 280.219 153.600,280.169 153.958,280.283 154.396 M24.250 156.050 C 23.917 157.717,24.240 158.040,24.600 156.400 C 24.752 155.709,24.793 155.059,24.691 154.958 C 24.589 154.856,24.391 155.347,24.250 156.050 M376.426 160.633 C 376.465 161.750,378.323 169.919,378.365 169.156 C 378.405 168.415,376.795 160.285,376.557 160.033 C 376.471 159.942,376.412 160.212,376.426 160.633 M182.828 161.800 C 182.828 162.020,183.086 162.650,183.400 163.200 C 183.714 163.750,183.972 164.020,183.972 163.800 C 183.972 163.580,183.714 162.950,183.400 162.400 C 183.086 161.850,182.828 161.580,182.828 161.800 M22.676 163.500 C 22.350 164.073,21.930 166.998,22.215 166.716 C 22.373 166.560,22.635 165.705,22.797 164.816 C 23.081 163.266,23.043 162.857,22.676 163.500 M147.693 165.200 C 147.693 165.970,147.775 166.285,147.876 165.900 C 147.976 165.515,147.976 164.885,147.876 164.500 C 147.775 164.115,147.693 164.430,147.693 165.200 M123.244 166.844 C 122.998 167.551,122.866 168.200,122.952 168.285 C 123.038 168.371,123.309 167.862,123.556 167.156 C 123.802 166.449,123.934 165.800,123.848 165.715 C 123.762 165.629,123.491 166.138,123.244 166.844 M21.654 168.400 C 21.619 168.950,21.496 169.850,21.383 170.400 L 21.177 171.400 21.607 170.415 C 21.843 169.874,21.965 168.974,21.878 168.415 L 21.720 167.400 21.654 168.400 M147.693 172.400 C 147.693 173.170,147.775 173.485,147.876 173.100 C 147.976 172.715,147.976 172.085,147.876 171.700 C 147.775 171.315,147.693 171.630,147.693 172.400 M378.893 173.600 C 378.893 174.370,378.975 174.685,379.076 174.300 C 379.176 173.915,379.176 173.285,379.076 172.900 C 378.975 172.515,378.893 172.830,378.893 173.600 M20.893 174.000 C 20.893 174.770,20.975 175.085,21.076 174.700 C 21.176 174.315,21.176 173.685,21.076 173.300 C 20.975 172.915,20.893 173.230,20.893 174.000 M101.476 178.410 C 101.330 178.955,101.228 179.940,101.249 180.600 C 101.280 181.557,101.359 181.436,101.642 180.000 C 102.029 178.033,101.902 176.817,101.476 178.410 M307.835 179.400 C 307.982 180.500,308.169 181.475,308.251 181.567 C 308.610 181.968,308.346 178.539,307.977 178.000 C 307.686 177.574,307.645 177.980,307.835 179.400 M20.109 180.000 C 20.109 180.990,20.187 181.395,20.282 180.900 C 20.378 180.405,20.378 179.595,20.282 179.100 C 20.187 178.605,20.109 179.010,20.109 180.000 M379.709 180.000 C 379.709 180.990,379.787 181.395,379.882 180.900 C 379.978 180.405,379.978 179.595,379.882 179.100 C 379.787 178.605,379.709 179.010,379.709 180.000 M180.840 179.758 C 180.311 180.321,180.106 180.818,180.342 180.964 C 180.564 181.101,180.858 181.030,180.996 180.807 C 181.134 180.583,181.119 180.400,180.962 180.400 C 180.805 180.400,181.002 180.040,181.400 179.600 C 182.430 178.462,181.923 178.605,180.840 179.758 M19.701 183.800 C 19.705 184.680,19.787 184.993,19.883 184.495 C 19.979 183.998,19.975 183.278,19.875 182.895 C 19.775 182.513,19.696 182.920,19.701 183.800 M379.924 183.800 C 380.014 184.570,380.158 185.200,380.244 185.200 C 380.330 185.200,380.400 184.570,380.400 183.800 C 380.400 183.030,380.256 182.400,380.080 182.400 C 379.904 182.400,379.834 183.030,379.924 183.800 M177.001 186.016 C 177.055 186.905,177.209 187.742,177.343 187.877 C 177.478 188.011,177.552 187.284,177.507 186.261 C 177.462 185.237,177.308 184.400,177.165 184.400 C 177.021 184.400,176.947 185.127,177.001 186.016 M151.427 185.400 C 151.579 185.840,151.791 186.605,151.898 187.100 C 152.005 187.595,152.252 188.000,152.447 188.000 C 152.967 188.000,152.860 187.562,151.959 186.000 C 151.514 185.230,151.275 184.960,151.427 185.400 M380.520 188.800 C 380.520 190.010,380.595 190.505,380.687 189.900 C 380.778 189.295,380.778 188.305,380.687 187.700 C 380.595 187.095,380.520 187.590,380.520 188.800 M19.324 189.400 C 19.326 190.720,19.401 191.212,19.490 190.493 C 19.579 189.774,19.577 188.694,19.486 188.093 C 19.395 187.492,19.322 188.080,19.324 189.400 M290.493 188.800 C 290.493 189.570,290.575 189.885,290.676 189.500 C 290.776 189.115,290.776 188.485,290.676 188.100 C 290.575 187.715,290.493 188.030,290.493 188.800 M308.909 189.200 C 308.909 190.190,308.987 190.595,309.082 190.100 C 309.178 189.605,309.178 188.795,309.082 188.300 C 308.987 187.805,308.909 188.210,308.909 189.200 M100.514 189.800 C 100.517 190.900,100.595 191.303,100.687 190.695 C 100.779 190.086,100.777 189.186,100.682 188.695 C 100.587 188.203,100.511 188.700,100.514 189.800 M118.550 194.600 C 118.551 197.020,118.616 197.958,118.696 196.685 C 118.776 195.412,118.775 193.432,118.694 192.285 C 118.614 191.138,118.549 192.180,118.550 194.600 M180.585 193.100 C 181.202 194.035,181.777 194.800,181.863 194.800 C 182.196 194.800,180.818 192.513,180.158 191.971 C 179.766 191.648,179.951 192.139,180.585 193.100 M290.931 195.800 C 290.933 197.340,291.005 197.921,291.092 197.091 C 291.179 196.261,291.177 195.001,291.089 194.291 C 291.000 193.581,290.929 194.260,290.931 195.800 M380.950 199.400 C 380.951 201.820,381.016 202.758,381.096 201.485 C 381.176 200.212,381.175 198.232,381.094 197.085 C 381.014 195.938,380.949 196.980,380.950 199.400 M18.950 200.600 C 18.951 203.020,19.016 203.958,19.096 202.685 C 19.176 201.412,19.175 199.432,19.094 198.285 C 19.014 197.138,18.949 198.180,18.950 200.600 M100.514 200.600 C 100.517 201.700,100.595 202.103,100.687 201.495 C 100.779 200.886,100.777 199.986,100.682 199.495 C 100.587 199.003,100.511 199.500,100.514 200.600 M308.901 201.400 C 308.905 202.280,308.987 202.593,309.083 202.095 C 309.179 201.598,309.175 200.878,309.075 200.495 C 308.975 200.113,308.896 200.520,308.901 201.400 M290.509 203.200 C 290.509 204.190,290.587 204.595,290.682 204.100 C 290.778 203.605,290.778 202.795,290.682 202.300 C 290.587 201.805,290.509 202.210,290.509 203.200 M190.200 204.800 C 191.283 205.900,192.260 206.800,192.370 206.800 C 192.480 206.800,191.683 205.900,190.600 204.800 C 189.517 203.700,188.540 202.800,188.430 202.800 C 188.320 202.800,189.117 203.700,190.200 204.800 M164.400 206.035 C 164.400 206.347,164.940 207.112,165.600 207.735 C 166.260 208.358,166.800 209.013,166.800 209.191 C 166.800 209.369,167.088 209.625,167.439 209.760 C 167.791 209.895,167.305 209.059,166.359 207.903 C 165.413 206.746,164.585 205.725,164.519 205.633 C 164.454 205.542,164.400 205.722,164.400 206.035 M308.493 206.800 C 308.493 207.570,308.575 207.885,308.676 207.500 C 308.776 207.115,308.776 206.485,308.676 206.100 C 308.575 205.715,308.493 206.030,308.493 206.800 M380.528 210.400 C 380.528 211.830,380.601 212.415,380.689 211.700 C 380.778 210.985,380.778 209.815,380.689 209.100 C 380.601 208.385,380.528 208.970,380.528 210.400 M19.328 210.800 C 19.328 212.230,19.401 212.815,19.489 212.100 C 19.578 211.385,19.578 210.215,19.489 209.500 C 19.401 208.785,19.328 209.370,19.328 210.800 M307.902 210.900 C 307.802 211.835,307.873 212.771,308.060 212.980 C 308.252 213.194,308.400 212.454,308.400 211.280 C 308.400 208.764,308.151 208.574,307.902 210.900 M172.783 215.700 C 174.441 217.466,174.800 217.784,174.800 217.483 C 174.800 217.419,173.945 216.564,172.900 215.583 L 171.000 213.800 172.783 215.700 M224.875 215.216 C 224.394 215.664,224.000 216.146,224.000 216.285 C 224.000 216.425,224.450 216.117,225.000 215.600 C 225.938 214.719,226.171 214.400,225.875 214.400 C 225.807 214.400,225.357 214.767,224.875 215.216 M251.233 214.949 C 251.645 215.317,254.000 216.400,254.000 216.221 C 254.000 215.990,251.782 214.800,251.353 214.800 C 251.196 214.800,251.142 214.867,251.233 214.949 M380.093 216.400 C 380.093 217.170,380.175 217.485,380.276 217.100 C 380.376 216.715,380.376 216.085,380.276 215.700 C 380.175 215.315,380.093 215.630,380.093 216.400 M19.628 216.500 C 19.613 217.105,19.780 217.600,20.000 217.600 C 20.469 217.600,20.469 217.293,20.000 216.200 C 19.695 215.491,19.653 215.525,19.628 216.500 M205.283 216.196 C 206.080 216.850,207.067 217.090,207.067 216.628 C 207.067 216.338,206.639 216.100,206.117 216.100 C 205.594 216.100,205.219 216.143,205.283 216.196 M220.764 220.058 C 219.974 220.906,219.444 221.600,219.585 221.600 C 219.958 221.600,222.578 218.840,222.373 218.664 C 222.278 218.583,221.554 219.210,220.764 220.058 M211.600 219.400 C 212.150 219.714,212.780 219.972,213.000 219.972 C 213.220 219.972,212.950 219.714,212.400 219.400 C 211.850 219.086,211.220 218.828,211.000 218.828 C 210.780 218.828,211.050 219.086,211.600 219.400 M20.093 220.400 C 20.093 221.170,20.175 221.485,20.276 221.100 C 20.376 220.715,20.376 220.085,20.276 219.700 C 20.175 219.315,20.093 219.630,20.093 220.400 M217.400 221.600 C 217.536 221.820,217.907 222.000,218.224 222.000 C 218.541 222.000,218.800 221.820,218.800 221.600 C 218.800 221.380,218.429 221.200,217.976 221.200 C 217.523 221.200,217.264 221.380,217.400 221.600 M20.869 226.000 C 20.856 226.550,20.995 227.720,21.177 228.600 C 21.389 229.626,21.516 229.841,21.531 229.200 C 21.544 228.650,21.405 227.480,21.223 226.600 C 21.011 225.574,20.884 225.359,20.869 226.000 M378.493 228.800 C 378.493 229.570,378.575 229.885,378.676 229.500 C 378.776 229.115,378.776 228.485,378.676 228.100 C 378.575 227.715,378.493 228.030,378.493 228.800 M125.667 229.220 C 125.901 229.892,126.167 230.367,126.257 230.276 C 126.456 230.078,125.701 228.000,125.431 228.000 C 125.327 228.000,125.433 228.549,125.667 229.220 M187.200 229.102 C 187.200 229.281,187.740 229.746,188.400 230.136 C 189.060 230.526,189.600 230.779,189.600 230.698 C 189.600 230.617,189.060 230.151,188.400 229.663 C 187.740 229.175,187.200 228.923,187.200 229.102 M21.659 231.000 C 21.654 231.440,21.891 232.970,22.185 234.400 C 22.501 235.930,22.731 236.506,22.744 235.800 C 22.756 235.140,22.519 233.610,22.217 232.400 C 21.915 231.190,21.664 230.560,21.659 231.000 M190.000 231.113 C 190.000 231.298,190.540 231.849,191.200 232.337 C 191.860 232.825,192.400 233.072,192.400 232.887 C 192.400 232.702,191.860 232.151,191.200 231.663 C 190.540 231.175,190.000 230.928,190.000 231.113 M193.801 233.602 C 194.069 234.036,196.400 235.334,196.400 235.050 C 196.400 234.956,195.759 234.501,194.976 234.039 C 194.193 233.577,193.664 233.380,193.801 233.602 M129.078 236.195 C 129.444 236.962,129.825 237.508,129.926 237.408 C 130.200 237.134,129.155 234.800,128.758 234.800 C 128.568 234.800,128.712 235.428,129.078 236.195 M280.259 235.789 C 280.136 236.111,280.188 236.469,280.376 236.585 C 280.563 236.701,280.817 236.532,280.941 236.211 C 281.064 235.889,281.012 235.531,280.824 235.415 C 280.637 235.299,280.383 235.468,280.259 235.789 M256.400 237.800 C 255.883 238.350,255.653 238.800,255.887 238.800 C 256.122 238.800,256.422 238.519,256.554 238.175 C 256.686 237.831,256.946 237.643,257.131 237.757 C 257.315 237.871,257.467 237.703,257.467 237.382 C 257.467 236.639,257.504 236.624,256.400 237.800 M23.486 240.200 C 23.617 241.080,23.861 242.250,24.028 242.800 L 24.331 243.800 24.335 242.800 C 24.337 242.250,24.093 241.080,23.793 240.200 L 23.248 238.600 23.486 240.200 M376.222 240.222 C 376.072 241.025,376.028 241.762,376.126 241.860 C 376.224 241.957,376.427 241.381,376.578 240.578 C 376.728 239.775,376.772 239.038,376.674 238.940 C 376.576 238.843,376.373 239.419,376.222 240.222 M131.656 240.945 C 131.939 241.575,132.242 241.873,132.331 241.606 C 132.420 241.340,132.189 240.824,131.818 240.461 C 131.186 239.842,131.176 239.873,131.656 240.945 M296.678 244.605 C 296.312 245.372,296.095 246.000,296.196 246.000 C 296.470 246.000,297.684 243.551,297.501 243.368 C 297.414 243.281,297.044 243.838,296.678 244.605 M274.400 246.000 C 273.930 246.660,273.636 247.200,273.746 247.200 C 273.856 247.200,274.330 246.660,274.800 246.000 C 275.270 245.340,275.564 244.800,275.454 244.800 C 275.344 244.800,274.870 245.340,274.400 246.000 M24.856 246.000 C 24.856 246.330,25.011 246.960,25.200 247.400 C 25.417 247.904,25.544 247.978,25.544 247.600 C 25.544 247.270,25.389 246.640,25.200 246.200 C 24.983 245.696,24.856 245.622,24.856 246.000 M131.685 246.573 C 131.015 248.044,131.078 248.352,131.830 247.279 C 132.176 246.784,132.395 246.184,132.315 245.944 C 132.235 245.705,131.952 245.988,131.685 246.573 M272.191 248.700 C 271.151 249.799,270.224 251.200,270.538 251.200 C 270.629 251.200,271.367 250.390,272.179 249.400 C 273.810 247.409,273.818 246.981,272.191 248.700 M129.602 251.442 C 128.676 253.856,128.675 253.886,129.586 252.456 C 130.056 251.717,130.387 250.836,130.321 250.498 C 130.254 250.160,129.931 250.584,129.602 251.442 M269.263 252.282 C 269.043 252.694,268.398 253.280,267.831 253.583 C 267.264 253.887,266.800 254.417,266.800 254.762 C 266.800 255.163,267.404 254.785,268.480 253.708 C 269.405 252.784,270.049 251.916,269.913 251.779 C 269.776 251.643,269.484 251.869,269.263 252.282 M372.846 252.839 C 372.601 253.543,372.413 254.318,372.428 254.560 C 372.444 254.802,372.714 254.296,373.030 253.435 C 373.345 252.574,373.533 251.800,373.448 251.715 C 373.362 251.629,373.092 252.135,372.846 252.839 M27.061 253.600 C 27.517 255.402,28.452 257.603,28.184 256.244 C 28.059 255.608,27.698 254.528,27.382 253.844 C 26.951 252.908,26.871 252.848,27.061 253.600 M289.194 256.607 C 288.828 257.048,288.799 257.359,289.097 257.657 C 289.395 257.955,289.602 257.822,289.797 257.210 C 290.151 256.094,289.861 255.804,289.194 256.607 M262.845 258.755 C 262.430 259.170,261.755 259.705,261.345 259.943 C 260.753 260.287,260.728 260.378,261.225 260.388 C 261.569 260.395,262.368 259.860,263.000 259.200 C 264.238 257.908,264.097 257.503,262.845 258.755 M370.000 261.200 C 369.501 262.534,369.180 263.713,369.287 263.820 C 369.394 263.927,369.863 262.896,370.329 261.529 C 371.431 258.303,371.178 258.050,370.000 261.200 M29.299 260.500 C 29.400 260.775,29.798 261.957,30.182 263.126 C 30.567 264.295,30.968 265.165,31.074 265.059 C 31.292 264.842,29.597 260.000,29.304 260.000 C 29.200 260.000,29.197 260.225,29.299 260.500 M259.600 261.400 C 259.317 261.741,259.176 262.109,259.286 262.219 C 259.396 262.329,259.717 262.141,260.000 261.800 C 260.283 261.459,260.424 261.091,260.314 260.981 C 260.204 260.871,259.883 261.059,259.600 261.400 M283.576 263.700 C 282.614 264.855,280.831 266.896,279.613 268.235 C 278.396 269.574,279.054 268.944,281.075 266.835 C 285.796 261.910,286.067 261.600,285.663 261.600 C 285.477 261.600,284.538 262.545,283.576 263.700 M368.016 266.181 C 367.751 266.500,367.601 267.085,367.682 267.481 C 367.790 268.005,367.956 267.848,368.295 266.900 C 368.805 265.469,368.742 265.306,368.016 266.181 M156.200 266.858 C 155.464 267.188,155.471 267.203,156.300 267.046 C 156.795 266.952,157.200 267.019,157.200 267.195 C 157.200 267.371,157.470 267.618,157.800 267.745 C 158.639 268.067,158.553 267.308,157.700 266.864 C 157.286 266.649,156.674 266.647,156.200 266.858 M150.576 267.795 C 149.871 268.335,149.928 268.348,151.200 267.935 C 152.936 267.372,153.157 267.200,152.143 267.200 C 151.709 267.200,151.004 267.468,150.576 267.795 M32.012 267.653 C 32.005 267.792,32.733 269.502,33.629 271.453 C 35.335 275.169,35.543 274.989,33.921 271.200 C 32.936 268.899,32.033 267.221,32.012 267.653 M159.600 268.357 C 159.600 268.912,161.122 269.702,161.722 269.458 C 161.992 269.348,161.908 269.249,161.529 269.232 C 161.159 269.214,160.574 268.917,160.229 268.571 C 159.883 268.226,159.600 268.129,159.600 268.357 M366.865 269.417 C 366.195 270.888,366.323 271.202,367.047 269.865 C 367.386 269.240,367.588 268.654,367.496 268.563 C 367.405 268.471,367.121 268.856,366.865 269.417 M273.781 273.690 C 272.912 274.619,272.633 275.024,273.163 274.590 C 274.720 273.313,275.987 272.000,275.663 272.000 C 275.498 272.000,274.651 272.760,273.781 273.690 M137.000 272.800 C 136.708 273.273,137.099 273.273,138.200 272.800 C 138.971 272.469,138.969 272.455,138.124 272.428 C 137.642 272.413,137.136 272.580,137.000 272.800 M101.083 273.604 C 100.969 274.041,101.018 274.487,101.192 274.595 C 101.366 274.703,101.603 274.433,101.717 273.996 C 101.831 273.559,101.782 273.113,101.608 273.005 C 101.434 272.897,101.197 273.167,101.083 273.604 M240.400 273.600 C 239.630 274.022,239.180 274.366,239.400 274.366 C 239.620 274.366,240.430 274.022,241.200 273.600 C 241.970 273.178,242.420 272.834,242.200 272.834 C 241.980 272.834,241.170 273.178,240.400 273.600 M35.934 276.705 C 36.824 278.749,37.157 279.155,36.918 277.906 C 36.821 277.398,36.393 276.537,35.967 275.992 C 35.196 275.006,35.196 275.011,35.934 276.705 M270.800 276.200 C 270.285 276.748,269.954 277.287,270.064 277.397 C 270.174 277.507,270.685 277.148,271.200 276.600 C 271.715 276.052,272.046 275.513,271.936 275.403 C 271.826 275.293,271.315 275.652,270.800 276.200 M181.400 278.400 C 181.840 278.589,182.470 278.744,182.800 278.744 C 183.178 278.744,183.104 278.617,182.600 278.400 C 182.160 278.211,181.530 278.056,181.200 278.056 C 180.822 278.056,180.896 278.183,181.400 278.400 M198.905 281.487 C 199.514 281.579,200.414 281.577,200.905 281.482 C 201.397 281.387,200.900 281.311,199.800 281.314 C 198.700 281.317,198.297 281.395,198.905 281.487 M207.907 281.490 C 208.626 281.579,209.706 281.577,210.307 281.486 C 210.908 281.395,210.320 281.322,209.000 281.324 C 207.680 281.326,207.188 281.401,207.907 281.490 M360.181 283.637 C 359.829 284.318,359.612 284.945,359.699 285.032 C 359.786 285.119,360.156 284.562,360.522 283.795 C 361.344 282.070,361.059 281.938,360.181 283.637 M41.223 287.000 C 43.302 290.976,44.536 292.894,43.540 290.600 C 43.253 289.940,42.519 288.537,41.909 287.482 C 41.299 286.428,40.796 285.438,40.791 285.282 C 40.786 285.127,40.411 284.550,39.957 284.000 C 39.503 283.450,40.073 284.800,41.223 287.000 M150.856 287.259 C 150.117 287.472,149.610 287.743,149.729 287.863 C 149.849 287.982,150.600 287.864,151.399 287.600 C 152.691 287.174,154.171 287.243,156.328 287.829 C 156.698 287.930,156.460 287.747,155.800 287.424 C 154.432 286.754,152.801 286.699,150.856 287.259 M357.699 288.100 C 356.982 288.998,355.936 291.269,356.144 291.477 C 356.255 291.588,356.811 290.762,357.380 289.640 C 358.388 287.650,358.504 287.091,357.699 288.100 M157.833 288.700 C 157.696 288.838,158.432 289.272,159.468 289.665 C 161.890 290.584,162.081 290.393,159.833 289.301 C 158.870 288.833,157.970 288.563,157.833 288.700 M251.212 288.784 C 250.888 288.989,250.727 289.261,250.854 289.388 C 251.169 289.703,252.400 289.201,252.400 288.757 C 252.400 288.301,251.960 288.311,251.212 288.784 M143.000 290.214 C 142.000 290.696,141.966 290.751,142.800 290.548 C 143.933 290.271,145.207 289.621,144.600 289.630 C 144.380 289.633,143.660 289.896,143.000 290.214 M135.800 292.800 C 135.029 293.131,135.031 293.145,135.876 293.172 C 136.358 293.187,136.864 293.020,137.000 292.800 C 137.292 292.327,136.901 292.327,135.800 292.800 M46.394 295.900 C 47.095 297.055,47.758 298.000,47.867 298.000 C 48.137 298.000,46.418 295.146,45.698 294.400 C 45.380 294.070,45.693 294.745,46.394 295.900 M353.956 294.700 C 352.581 296.393,351.606 298.000,351.954 298.000 C 352.161 298.000,352.885 297.100,353.562 296.000 C 354.818 293.959,354.973 293.447,353.956 294.700 M232.400 296.000 C 231.596 296.257,231.557 296.323,232.200 296.332 C 232.640 296.338,233.360 296.189,233.800 296.000 C 234.819 295.562,233.768 295.562,232.400 296.000 M350.434 299.359 C 350.179 299.667,349.892 300.342,349.796 300.859 L 349.623 301.800 350.402 300.800 C 351.480 299.418,351.510 298.063,350.434 299.359 M194.705 299.483 C 195.202 299.579,195.922 299.575,196.305 299.475 C 196.687 299.375,196.280 299.296,195.400 299.301 C 194.520 299.305,194.207 299.387,194.705 299.483 M212.900 299.476 C 213.285 299.576,213.915 299.576,214.300 299.476 C 214.685 299.375,214.370 299.293,213.600 299.293 C 212.830 299.293,212.515 299.375,212.900 299.476 M202.100 299.897 C 203.585 299.974,206.015 299.974,207.500 299.897 C 208.985 299.820,207.770 299.757,204.800 299.757 C 201.830 299.757,200.615 299.820,202.100 299.897 M50.441 302.100 C 52.936 305.724,55.313 308.800,55.619 308.800 C 55.807 308.800,55.520 308.324,54.981 307.742 C 54.441 307.159,53.995 306.484,53.989 306.242 C 53.983 305.999,53.469 305.301,52.848 304.692 C 52.226 304.083,51.380 302.958,50.968 302.192 C 50.555 301.426,50.067 300.800,49.882 300.800 C 49.697 300.800,49.948 301.385,50.441 302.100 M58.381 312.716 C 59.125 313.642,59.777 314.400,59.829 314.400 C 60.222 314.400,58.857 312.412,58.043 311.799 C 57.195 311.159,57.250 311.309,58.381 312.716 M60.983 316.000 C 64.886 321.012,76.712 333.028,81.627 336.975 C 82.192 337.429,81.674 336.875,80.476 335.745 C 79.146 334.491,78.410 333.507,78.589 333.219 C 78.771 332.924,78.657 332.794,78.287 332.873 C 77.511 333.039,69.899 325.687,70.254 325.113 C 70.409 324.863,70.340 324.790,70.093 324.943 C 69.853 325.091,68.407 323.831,66.836 322.105 C 61.940 316.726,59.855 314.552,60.983 316.000 M338.600 315.958 C 337.940 316.593,336.950 317.717,336.400 318.456 C 334.745 320.679,320.749 334.658,318.600 336.234 C 317.500 337.040,316.150 338.262,315.600 338.949 C 314.377 340.477,318.511 337.038,324.146 331.840 C 327.366 328.871,333.634 322.281,337.122 318.200 C 337.498 317.760,338.333 316.815,338.978 316.100 C 340.429 314.490,340.211 314.408,338.600 315.958 M89.600 343.352 C 89.600 343.436,90.585 344.248,91.789 345.157 C 92.993 346.066,93.877 346.544,93.752 346.220 C 93.628 345.896,93.199 345.527,92.800 345.400 C 92.401 345.273,91.973 344.906,91.850 344.585 C 91.726 344.263,91.349 344.000,91.013 344.000 C 90.676 344.000,90.400 343.820,90.400 343.600 C 90.400 343.380,90.220 343.200,90.000 343.200 C 89.780 343.200,89.600 343.268,89.600 343.352 M94.400 346.967 C 94.400 347.074,95.255 347.723,96.300 348.409 C 97.911 349.467,98.018 349.498,97.000 348.609 C 95.703 347.476,94.400 346.653,94.400 346.967 M299.836 350.084 C 299.492 350.277,299.016 350.797,298.778 351.240 C 298.402 351.943,298.555 351.908,299.974 350.970 C 300.868 350.378,301.600 349.858,301.600 349.814 C 301.600 349.591,300.384 349.777,299.836 350.084 M295.600 353.255 C 293.166 354.918,292.627 355.533,294.634 354.357 C 296.984 352.981,298.261 352.043,297.800 352.034 C 297.580 352.029,296.590 352.579,295.600 353.255 M109.400 356.729 C 110.276 357.561,115.200 360.016,115.200 359.622 C 115.200 359.390,115.016 359.200,114.792 359.200 C 114.568 359.200,113.659 358.742,112.773 358.183 C 111.045 357.092,108.733 356.096,109.400 356.729 M290.019 356.780 C 289.700 356.982,289.340 357.092,289.219 357.025 C 289.099 356.957,288.640 357.260,288.200 357.698 C 287.439 358.455,287.484 358.452,289.100 357.639 C 290.035 357.169,290.800 356.697,290.800 356.592 C 290.800 356.329,290.691 356.355,290.019 356.780 M285.784 358.827 C 285.639 359.061,285.628 359.361,285.760 359.493 C 285.892 359.625,286.000 359.513,286.000 359.243 C 286.000 358.973,286.168 358.856,286.372 358.983 C 286.577 359.109,286.858 359.030,286.996 358.807 C 287.134 358.583,286.977 358.400,286.647 358.400 C 286.317 358.400,285.929 358.592,285.784 358.827 M283.500 360.229 C 281.949 361.070,282.125 361.361,283.700 360.559 C 285.208 359.793,285.475 359.594,284.967 359.616 C 284.765 359.625,284.105 359.901,283.500 360.229 M117.233 360.946 C 118.040 361.651,119.352 362.073,118.851 361.465 C 118.549 361.099,118.024 360.800,117.684 360.800 C 117.345 360.800,117.142 360.866,117.233 360.946 M280.500 361.796 C 279.785 362.107,279.200 362.456,279.200 362.572 C 279.200 362.819,281.226 361.996,281.780 361.524 C 282.305 361.076,282.014 361.138,280.500 361.796 M123.200 364.000 C 123.970 364.422,124.780 364.766,125.000 364.766 C 125.220 364.766,124.770 364.422,124.000 364.000 C 123.230 363.578,122.420 363.234,122.200 363.234 C 121.980 363.234,122.430 363.578,123.200 364.000 M271.400 366.021 C 270.960 366.222,270.080 366.575,269.445 366.805 C 268.809 367.034,268.381 367.314,268.493 367.426 C 268.605 367.538,269.665 367.188,270.848 366.648 C 272.032 366.108,272.820 365.663,272.600 365.660 C 272.380 365.657,271.840 365.819,271.400 366.021 M128.000 366.161 C 128.000 366.249,128.585 366.517,129.300 366.755 C 130.489 367.152,130.534 367.138,129.824 366.595 C 129.108 366.047,128.000 365.783,128.000 366.161 M266.000 368.231 L 265.000 368.833 266.000 368.568 C 267.452 368.184,268.403 367.624,267.600 367.626 C 267.270 367.627,266.550 367.899,266.000 368.231 M135.946 369.416 C 136.686 369.737,137.496 369.985,137.746 369.968 C 138.377 369.922,135.939 368.837,135.200 368.834 C 134.870 368.832,135.206 369.094,135.946 369.416 M259.800 370.614 C 258.800 371.096,258.766 371.151,259.600 370.948 C 260.733 370.671,262.007 370.021,261.400 370.030 C 261.180 370.033,260.460 370.296,259.800 370.614 M145.968 372.828 C 147.160 373.251,148.205 373.528,148.290 373.444 C 148.476 373.257,144.833 371.988,144.229 372.029 C 143.993 372.045,144.776 372.405,145.968 372.828 M247.000 374.586 C 245.422 375.308,245.779 375.320,248.000 374.621 C 248.990 374.309,249.440 374.050,249.000 374.045 C 248.560 374.040,247.660 374.283,247.000 374.586 M239.400 376.400 L 238.600 376.744 239.400 376.732 C 239.840 376.726,240.650 376.576,241.200 376.400 L 242.200 376.080 241.200 376.068 C 240.650 376.062,239.840 376.211,239.400 376.400 M161.800 377.028 C 164.414 377.756,165.933 377.714,163.600 376.979 C 162.610 376.667,161.350 376.426,160.800 376.442 C 160.153 376.461,160.507 376.668,161.800 377.028 M233.600 377.620 C 232.926 377.849,233.251 377.884,234.600 377.728 C 235.700 377.601,236.675 377.431,236.767 377.349 C 237.082 377.068,234.599 377.280,233.600 377.620 M167.633 378.149 C 167.725 378.231,168.700 378.401,169.800 378.528 C 171.149 378.684,171.474 378.649,170.800 378.420 C 169.801 378.080,167.318 377.868,167.633 378.149 M229.000 378.400 L 227.800 378.705 228.876 378.753 C 229.468 378.779,230.064 378.620,230.200 378.400 C 230.336 378.180,230.392 378.021,230.324 378.047 C 230.256 378.073,229.660 378.232,229.000 378.400 M173.300 379.076 C 173.685 379.176,174.315 379.176,174.700 379.076 C 175.085 378.975,174.770 378.893,174.000 378.893 C 173.230 378.893,172.915 378.975,173.300 379.076 M179.305 379.887 C 179.914 379.979,180.814 379.977,181.305 379.882 C 181.797 379.787,181.300 379.711,180.200 379.714 C 179.100 379.717,178.697 379.795,179.305 379.887 M183.105 380.283 C 183.602 380.379,184.322 380.375,184.705 380.275 C 185.087 380.175,184.680 380.096,183.800 380.101 C 182.920 380.105,182.607 380.187,183.105 380.283 M215.700 380.276 C 216.085 380.376,216.715 380.376,217.100 380.276 C 217.485 380.175,217.170 380.093,216.400 380.093 C 215.630 380.093,215.315 380.175,215.700 380.276 M187.907 380.690 C 188.626 380.779,189.706 380.777,190.307 380.686 C 190.908 380.595,190.320 380.522,189.000 380.524 C 187.680 380.526,187.188 380.601,187.907 380.690 M209.100 380.689 C 209.815 380.778,210.985 380.778,211.700 380.689 C 212.415 380.601,211.830 380.528,210.400 380.528 C 208.970 380.528,208.385 380.601,209.100 380.689 M197.300 381.096 C 198.565 381.175,200.635 381.175,201.900 381.096 C 203.165 381.016,202.130 380.951,199.600 380.951 C 197.070 380.951,196.035 381.016,197.300 381.096 " stroke="none" fill="#34b461" fill-rule="evenodd"></path></g></svg>