<svg id="svg" version="1.1" width="400" height="368.47826086956525" viewBox="0 0 400 368.47826086956525" xmlns="http://www.w3.org/2000/svg" xmlns:xlink="http://www.w3.org/1999/xlink"><g id="svgg"><path id="path0" d="M193.165 20.280 C 189.405 20.430,185.175 20.731,183.764 20.948 C 182.353 21.166,180.369 21.440,179.355 21.558 C 167.248 22.961,148.275 28.125,138.061 32.798 C 136.843 33.355,135.434 33.942,134.931 34.101 C 131.481 35.196,115.264 44.176,108.872 48.531 C 97.372 56.366,84.141 68.287,75.788 78.341 C 74.609 79.760,73.319 81.311,72.922 81.788 C 37.337 124.439,26.672 190.012,46.830 242.212 C 47.260 243.327,47.746 244.654,47.910 245.161 C 48.073 245.668,49.232 248.436,50.486 251.311 C 65.957 286.804,94.097 316.101,129.197 333.257 C 134.985 336.086,138.040 337.405,144.240 339.753 C 145.000 340.041,146.244 340.512,147.005 340.800 C 147.765 341.088,149.300 341.607,150.415 341.952 C 151.530 342.298,153.106 342.793,153.917 343.053 C 156.754 343.962,159.474 344.695,162.765 345.437 C 164.590 345.849,166.747 346.342,167.558 346.534 C 191.410 352.157,222.732 350.955,248.295 343.436 C 285.139 332.598,319.378 307.394,339.228 276.498 C 339.944 275.382,341.281 273.309,342.198 271.889 C 366.549 234.197,373.349 182.832,359.963 137.696 C 359.663 136.682,359.276 135.355,359.105 134.747 C 353.078 113.386,337.114 87.201,319.082 69.097 C 313.772 63.766,311.226 61.433,305.387 56.548 C 303.103 54.637,296.504 49.846,292.166 46.948 C 275.645 35.913,253.294 26.796,234.101 23.264 C 231.770 22.835,229.032 22.321,228.018 22.122 C 220.092 20.566,205.416 19.790,193.165 20.280 M170.701 100.371 C 174.255 105.084,184.209 118.269,192.821 129.671 L 208.479 150.403 209.954 148.829 C 210.765 147.964,214.415 143.868,218.065 139.727 C 221.714 135.586,225.530 131.274,226.544 130.144 C 227.558 129.015,229.484 126.851,230.826 125.336 C 232.167 123.820,236.127 119.346,239.627 115.392 C 243.127 111.438,246.729 107.373,247.631 106.359 C 248.534 105.346,251.790 101.658,254.867 98.165 L 260.461 91.813 276.221 91.805 C 288.900 91.799,291.982 91.891,291.982 92.276 C 291.982 92.693,288.150 97.200,280.009 106.359 C 277.673 108.988,276.192 110.677,272.258 115.202 C 269.562 118.304,264.224 124.355,263.960 124.608 C 263.855 124.710,262.123 126.700,260.112 129.032 C 258.101 131.364,256.275 133.438,256.054 133.641 C 255.833 133.843,253.501 136.498,250.872 139.539 C 248.242 142.581,245.909 145.235,245.686 145.438 C 245.464 145.641,244.064 147.217,242.576 148.940 C 241.088 150.664,239.774 152.157,239.657 152.258 C 239.539 152.359,238.532 153.521,237.419 154.839 C 236.307 156.157,235.311 157.318,235.207 157.419 C 235.104 157.521,233.692 159.106,232.071 160.942 C 223.637 170.498,223.972 170.070,224.285 170.886 C 224.394 171.171,233.562 183.396,244.658 198.052 C 274.349 237.273,274.851 237.936,289.205 256.959 C 296.472 266.590,302.967 275.154,303.638 275.990 C 304.308 276.825,304.752 277.613,304.625 277.741 C 304.497 277.868,290.079 277.972,272.584 277.972 L 240.775 277.972 235.503 271.088 C 232.603 267.301,229.393 263.112,228.370 261.779 C 227.346 260.446,221.893 253.300,216.252 245.899 C 210.610 238.498,205.558 231.885,205.025 231.204 C 204.492 230.523,203.392 229.094,202.581 228.029 C 195.330 218.508,191.225 213.272,191.009 213.272 C 190.793 213.272,188.047 216.282,183.272 221.755 C 182.740 222.365,181.143 224.185,179.724 225.800 C 176.391 229.591,176.011 230.026,170.820 235.977 C 168.418 238.732,165.364 242.216,164.036 243.719 C 160.906 247.258,146.455 263.818,145.254 265.240 C 144.747 265.841,143.576 267.168,142.653 268.189 C 141.729 269.211,139.428 271.829,137.539 274.009 L 134.105 277.972 118.113 277.972 C 109.317 277.972,102.120 277.878,102.120 277.763 C 102.120 277.592,113.597 264.219,114.279 263.594 C 114.464 263.426,117.584 259.814,119.816 257.187 C 120.323 256.591,121.152 255.664,121.659 255.128 C 122.166 254.592,123.775 252.753,125.235 251.040 C 126.695 249.327,128.271 247.493,128.737 246.963 C 129.204 246.434,130.415 245.030,131.429 243.844 C 132.442 242.657,134.029 240.851,134.955 239.830 C 136.404 238.231,140.683 233.314,147.597 225.301 C 148.582 224.160,149.826 222.728,150.362 222.120 C 150.898 221.512,153.487 218.525,156.114 215.484 C 158.741 212.442,162.645 207.963,164.790 205.530 C 175.518 193.359,175.614 193.236,175.068 192.472 C 174.647 191.884,166.967 181.818,159.997 172.719 C 155.330 166.627,151.186 161.207,149.862 159.464 C 143.721 151.380,115.772 114.763,113.549 111.889 C 104.676 100.419,98.803 92.461,98.989 92.161 C 99.134 91.926,110.748 91.798,131.727 91.800 L 164.240 91.802 170.701 100.371 M137.582 111.661 C 138.456 112.853,139.988 114.886,140.987 116.177 C 141.986 117.469,143.572 119.521,144.512 120.737 C 145.452 121.954,149.695 127.493,153.940 133.046 C 158.186 138.600,162.903 144.769,164.424 146.756 C 165.945 148.743,171.795 156.393,177.424 163.756 C 183.054 171.119,188.437 178.138,189.386 179.355 C 190.335 180.571,195.080 186.778,199.930 193.148 C 209.773 206.076,209.002 205.072,210.427 206.820 C 211.005 207.530,213.050 210.184,214.972 212.719 C 219.553 218.762,235.716 239.919,237.604 242.345 C 238.416 243.387,241.468 247.392,244.387 251.244 C 247.307 255.097,249.951 258.456,250.264 258.710 C 250.805 259.149,267.281 259.438,267.281 259.008 C 267.281 258.919,265.664 256.743,263.687 254.174 C 261.710 251.605,259.844 249.148,259.540 248.715 C 258.709 247.528,244.146 228.268,233.786 214.657 C 230.817 210.755,228.055 207.102,227.650 206.539 C 227.074 205.741,205.005 176.494,203.798 174.931 C 203.642 174.728,203.122 174.065,202.644 173.456 C 202.166 172.848,198.079 167.456,193.564 161.475 C 189.048 155.493,180.602 144.338,174.796 136.686 C 168.990 129.034,163.576 121.882,162.765 120.793 C 161.954 119.704,159.723 116.716,157.807 114.153 L 154.324 109.493 145.159 109.493 L 135.994 109.493 137.582 111.661 " stroke="none" fill="#040404" fill-rule="evenodd"></path><path id="path1" d="M0.000 184.332 L 0.000 368.664 200.000 368.664 L 400.000 368.664 400.000 184.332 L 400.000 0.000 200.000 0.000 L 0.000 0.000 0.000 184.332 M213.088 19.909 C 266.266 23.956,314.569 52.707,341.643 96.424 C 367.491 138.164,374.010 184.172,360.785 231.521 C 357.371 243.741,351.206 257.837,344.095 269.677 C 330.045 293.073,311.545 311.826,288.391 326.145 C 286.315 327.429,284.528 328.479,284.421 328.479 C 284.313 328.479,283.523 328.924,282.665 329.468 C 280.528 330.822,271.288 335.382,266.359 337.515 C 245.295 346.631,220.849 351.168,196.682 350.447 C 185.125 350.103,179.608 349.438,167.005 346.873 C 157.494 344.937,145.750 341.306,138.361 338.016 C 137.511 337.637,136.698 337.327,136.556 337.327 C 136.042 337.327,122.878 330.745,120.062 329.081 C 118.474 328.142,117.106 327.373,117.024 327.373 C 116.803 327.373,109.017 322.223,105.787 319.940 C 75.090 298.248,51.758 264.992,42.069 229.124 C 41.631 227.502,41.121 225.677,40.937 225.069 C 40.456 223.483,38.420 213.243,38.150 211.060 C 38.025 210.046,37.771 208.387,37.586 207.373 C 35.803 197.620,35.800 171.385,37.581 162.949 C 37.774 162.037,38.040 160.295,38.173 159.078 C 39.074 150.840,43.141 135.796,47.442 124.793 C 63.661 83.303,98.226 48.088,138.433 32.089 C 140.055 31.444,141.880 30.693,142.488 30.420 C 143.402 30.011,150.584 27.580,155.023 26.179 C 157.282 25.465,165.074 23.544,167.926 22.997 C 169.548 22.686,172.120 22.195,173.641 21.907 C 184.032 19.937,201.696 19.042,213.088 19.909 M99.979 93.198 C 100.244 93.563,102.159 96.093,104.234 98.820 C 106.310 101.548,110.274 106.765,113.045 110.415 C 125.745 127.146,128.409 130.632,129.125 131.456 C 129.547 131.941,130.487 133.167,131.213 134.179 C 132.972 136.631,158.557 170.150,160.489 172.535 C 160.736 172.839,163.335 176.240,166.265 180.092 C 169.194 183.945,172.549 188.341,173.720 189.862 C 176.368 193.301,176.389 193.037,173.180 196.659 C 171.710 198.319,168.516 201.986,166.083 204.808 C 163.650 207.630,160.328 211.436,158.700 213.265 C 157.073 215.094,152.656 220.157,148.885 224.516 C 145.115 228.876,141.662 232.857,141.213 233.364 C 140.764 233.871,139.706 235.114,138.862 236.126 C 138.018 237.138,136.569 238.797,135.642 239.813 C 134.715 240.828,131.809 244.147,129.185 247.189 C 126.561 250.230,123.976 253.217,123.442 253.825 C 121.381 256.171,113.720 264.990,111.928 267.078 C 110.893 268.285,109.297 270.110,108.381 271.134 C 107.466 272.158,105.837 274.032,104.762 275.300 L 102.807 277.604 118.256 277.604 L 133.706 277.604 134.964 276.221 C 135.656 275.461,137.217 273.680,138.434 272.265 C 140.690 269.638,142.788 267.253,143.779 266.188 C 144.083 265.861,145.336 264.438,146.564 263.027 C 151.863 256.935,177.237 227.902,178.288 226.728 C 178.923 226.018,181.825 222.700,184.737 219.355 C 190.751 212.446,190.938 212.266,191.521 212.856 C 191.747 213.085,195.979 218.581,200.925 225.069 C 205.872 231.558,211.088 238.397,212.517 240.268 C 213.946 242.139,220.922 251.296,228.018 260.618 L 240.922 277.568 272.534 277.586 L 304.146 277.604 302.775 275.668 C 302.021 274.604,301.308 273.650,301.191 273.548 C 300.965 273.353,294.529 264.835,291.429 260.629 C 290.415 259.254,288.092 256.190,286.267 253.820 C 284.442 251.450,282.396 248.740,281.719 247.797 C 281.043 246.854,280.024 245.502,279.454 244.793 C 278.885 244.083,276.611 241.097,274.401 238.157 C 262.810 222.738,258.614 217.193,257.565 215.904 C 256.927 215.121,255.908 213.772,255.300 212.906 C 254.691 212.039,251.705 208.052,248.664 204.044 C 245.622 200.036,241.554 194.666,239.624 192.111 C 237.693 189.556,233.546 184.089,230.407 179.962 C 222.168 169.129,222.809 170.727,225.489 167.696 C 226.633 166.403,228.582 164.193,229.821 162.784 C 231.060 161.375,232.820 159.379,233.733 158.348 C 234.645 157.317,236.387 155.332,237.604 153.937 C 238.820 152.542,240.645 150.470,241.659 149.332 C 242.673 148.194,244.498 146.115,245.714 144.712 C 248.307 141.723,253.735 135.566,254.013 135.300 C 254.119 135.198,254.681 134.535,255.263 133.825 C 256.286 132.575,260.628 127.650,261.751 126.463 C 262.055 126.142,262.783 125.303,263.367 124.599 C 264.418 123.333,268.791 118.381,269.862 117.244 C 270.166 116.921,271.317 115.584,272.420 114.273 C 273.523 112.962,274.602 111.724,274.817 111.521 C 275.033 111.318,276.861 109.244,278.879 106.912 C 280.898 104.581,283.160 102.009,283.907 101.198 C 284.653 100.387,286.621 98.147,288.280 96.221 L 291.295 92.719 275.878 92.622 C 263.086 92.541,260.397 92.612,260.086 93.036 C 259.779 93.454,255.210 98.574,253.818 100.060 C 253.612 100.281,251.704 102.452,249.579 104.885 C 247.453 107.318,245.548 109.488,245.346 109.706 C 245.143 109.925,243.881 111.335,242.542 112.840 C 230.944 125.871,231.835 124.867,227.976 129.245 C 226.174 131.288,222.952 134.938,220.815 137.355 C 218.677 139.773,215.614 143.244,214.006 145.069 C 212.399 146.894,210.491 149.020,209.767 149.793 L 208.449 151.198 201.967 142.604 C 195.813 134.443,187.641 123.631,174.574 106.359 C 171.352 102.101,167.659 97.249,166.366 95.576 L 164.015 92.535 131.756 92.535 C 100.756 92.535,99.516 92.560,99.979 93.198 M154.656 109.401 C 155.181 110.019,160.977 117.649,171.244 131.241 C 180.167 143.052,195.092 162.759,195.957 163.871 C 197.606 165.991,203.697 174.041,205.161 176.034 C 206.957 178.478,228.877 207.466,229.540 208.273 C 230.088 208.940,244.588 228.109,257.848 245.698 C 262.900 252.398,267.172 257.935,267.341 258.003 C 267.511 258.071,267.650 258.444,267.650 258.833 C 267.650 259.509,267.281 259.539,258.894 259.528 L 250.138 259.517 247.742 256.446 C 246.424 254.756,240.949 247.610,235.576 240.564 C 230.203 233.519,225.060 226.778,224.147 225.586 C 223.235 224.393,218.092 217.673,212.719 210.652 C 207.346 203.631,202.535 197.344,202.028 196.682 C 201.521 196.019,196.710 189.713,191.336 182.669 C 185.963 175.624,180.065 167.932,178.230 165.576 C 176.394 163.219,170.081 154.986,164.199 147.281 C 158.318 139.576,149.410 127.928,144.403 121.396 C 139.396 114.864,135.300 109.348,135.300 109.138 C 135.300 108.385,154.009 108.639,154.656 109.401 " stroke="none" fill="#f9f9f9" fill-rule="evenodd"></path><path id="path2" d="M194.575 20.180 C 195.646 20.255,197.305 20.254,198.261 20.178 C 199.218 20.103,198.341 20.042,196.313 20.042 C 194.286 20.043,193.503 20.105,194.575 20.180 M206.369 20.178 C 207.236 20.256,208.563 20.255,209.319 20.176 C 210.074 20.097,209.364 20.033,207.742 20.034 C 206.120 20.036,205.502 20.100,206.369 20.178 M214.654 20.531 C 215.009 20.623,215.590 20.623,215.945 20.531 C 216.300 20.438,216.009 20.362,215.300 20.362 C 214.590 20.362,214.300 20.438,214.654 20.531 M221.290 21.268 C 221.645 21.361,222.226 21.361,222.581 21.268 C 222.935 21.175,222.645 21.099,221.935 21.099 C 221.226 21.099,220.935 21.175,221.290 21.268 M244.977 25.806 C 245.382 25.981,245.963 26.123,246.267 26.123 C 246.616 26.123,246.548 26.006,246.083 25.806 C 245.677 25.632,245.097 25.490,244.793 25.490 C 244.444 25.490,244.512 25.607,244.977 25.806 M298.249 51.010 C 298.249 51.111,298.747 51.548,299.355 51.982 C 299.963 52.415,300.461 52.686,300.461 52.585 C 300.461 52.483,299.963 52.046,299.355 51.613 C 298.747 51.180,298.249 50.908,298.249 51.010 M307.834 58.364 C 307.834 58.428,308.373 58.967,309.032 59.562 L 310.230 60.645 309.148 59.447 C 308.138 58.330,307.834 58.079,307.834 58.364 M92.696 60.922 L 91.613 62.120 92.811 61.037 C 93.928 60.028,94.179 59.724,93.894 59.724 C 93.830 59.724,93.291 60.263,92.696 60.922 M312.074 62.304 C 312.866 63.115,313.597 63.779,313.698 63.779 C 313.799 63.779,313.234 63.115,312.442 62.304 C 311.650 61.493,310.919 60.829,310.818 60.829 C 310.717 60.829,311.282 61.493,312.074 62.304 M89.018 64.240 L 87.189 66.175 89.124 64.346 C 90.923 62.646,91.229 62.304,90.954 62.304 C 90.896 62.304,90.025 63.175,89.018 64.240 M318.710 68.571 C 320.526 70.396,322.095 71.889,322.197 71.889 C 322.298 71.889,320.895 70.396,319.078 68.571 C 317.262 66.747,315.693 65.253,315.591 65.253 C 315.490 65.253,316.893 66.747,318.710 68.571 M80.369 72.811 C 79.473 73.724,78.823 74.470,78.925 74.470 C 79.026 74.470,79.842 73.724,80.737 72.811 C 81.633 71.899,82.283 71.152,82.181 71.152 C 82.080 71.152,81.264 71.899,80.369 72.811 M326.636 77.166 C 326.636 77.229,327.175 77.769,327.834 78.364 L 329.032 79.447 327.949 78.249 C 326.940 77.132,326.636 76.881,326.636 77.166 M66.728 89.585 C 66.295 90.194,66.024 90.691,66.125 90.691 C 66.226 90.691,66.664 90.194,67.097 89.585 C 67.530 88.977,67.801 88.479,67.700 88.479 C 67.599 88.479,67.161 88.977,66.728 89.585 M98.964 92.201 C 98.827 92.423,98.982 92.839,99.310 93.124 C 99.637 93.410,99.740 93.444,99.538 93.199 C 99.336 92.955,99.171 92.621,99.171 92.457 C 99.171 92.293,113.920 92.201,131.946 92.254 C 149.973 92.307,164.645 92.226,164.551 92.074 C 164.263 91.607,99.253 91.733,98.964 92.201 M259.879 92.442 C 259.463 92.991,259.468 93.019,259.907 92.627 C 260.771 91.857,291.769 91.966,291.472 92.738 C 291.346 93.066,291.408 93.214,291.617 93.085 C 291.818 92.961,291.982 92.621,291.982 92.328 C 291.982 91.433,260.558 91.544,259.879 92.442 M289.562 95.207 L 288.479 96.406 289.677 95.323 C 290.336 94.727,290.876 94.188,290.876 94.125 C 290.876 93.840,290.571 94.091,289.562 95.207 M254.727 98.341 L 253.456 99.724 254.839 98.453 C 256.125 97.270,256.391 96.959,256.109 96.959 C 256.048 96.959,255.425 97.581,254.727 98.341 M286.800 98.341 L 285.530 99.724 286.912 98.453 C 288.199 97.270,288.464 96.959,288.183 96.959 C 288.121 96.959,287.499 97.581,286.800 98.341 M251.958 101.475 L 250.876 102.673 252.074 101.590 C 252.733 100.994,253.272 100.455,253.272 100.392 C 253.272 100.107,252.968 100.358,251.958 101.475 M281.451 104.424 L 280.369 105.622 281.567 104.539 C 282.226 103.944,282.765 103.405,282.765 103.341 C 282.765 103.056,282.461 103.307,281.451 104.424 M346.175 105.069 C 346.589 105.880,347.010 106.544,347.112 106.544 C 347.213 106.544,346.958 105.880,346.544 105.069 C 346.130 104.258,345.709 103.594,345.607 103.594 C 345.506 103.594,345.761 104.258,346.175 105.069 M135.668 109.448 C 135.668 109.626,135.959 109.999,136.313 110.277 C 136.897 110.735,136.911 110.722,136.458 110.145 C 135.987 109.543,136.491 109.500,145.122 109.401 L 154.286 109.295 144.977 109.210 C 139.818 109.163,135.668 109.269,135.668 109.448 M275.922 110.691 L 274.839 111.889 276.037 110.807 C 276.696 110.211,277.235 109.672,277.235 109.608 C 277.235 109.324,276.931 109.574,275.922 110.691 M243.110 111.429 L 242.028 112.627 243.226 111.544 C 243.885 110.948,244.424 110.409,244.424 110.346 C 244.424 110.061,244.120 110.312,243.110 111.429 M113.909 112.431 C 114.338 113.033,114.877 113.642,115.107 113.785 C 115.337 113.927,115.061 113.434,114.493 112.690 C 113.261 111.074,112.796 110.869,113.909 112.431 M240.530 114.378 L 239.447 115.576 240.645 114.493 C 241.304 113.898,241.843 113.359,241.843 113.295 C 241.843 113.010,241.539 113.261,240.530 114.378 M139.885 115.144 C 140.452 115.889,140.992 116.498,141.083 116.498 C 141.339 116.498,139.743 114.341,139.271 114.049 C 139.041 113.907,139.317 114.400,139.885 115.144 M159.992 117.224 C 160.421 117.826,160.960 118.435,161.190 118.577 C 161.420 118.720,161.144 118.227,160.576 117.482 C 159.344 115.867,158.879 115.661,159.992 117.224 M237.768 117.512 L 236.498 118.894 237.880 117.624 C 239.167 116.441,239.432 116.129,239.151 116.129 C 239.089 116.129,238.467 116.751,237.768 117.512 M268.367 119.355 L 267.097 120.737 268.479 119.467 C 269.766 118.284,270.031 117.972,269.750 117.972 C 269.688 117.972,269.066 118.594,268.367 119.355 M353.206 119.263 C 353.206 119.465,353.443 120.046,353.733 120.553 C 354.022 121.060,354.260 121.309,354.260 121.106 C 354.260 120.903,354.022 120.323,353.733 119.816 C 353.443 119.309,353.206 119.060,353.206 119.263 M234.819 120.829 L 233.548 122.212 234.931 120.942 C 236.218 119.759,236.483 119.447,236.201 119.447 C 236.140 119.447,235.518 120.069,234.819 120.829 M186.167 121.279 C 186.596 121.881,187.135 122.490,187.365 122.633 C 187.595 122.775,187.319 122.282,186.751 121.538 C 185.519 119.922,185.054 119.716,186.167 121.279 M163.310 121.648 C 163.739 122.250,164.278 122.859,164.508 123.001 C 164.738 123.143,164.462 122.651,163.894 121.906 C 162.662 120.291,162.197 120.085,163.310 121.648 M265.599 122.488 L 264.516 123.687 265.714 122.604 C 266.373 122.008,266.912 121.469,266.912 121.406 C 266.912 121.121,266.608 121.372,265.599 122.488 M229.101 127.281 L 228.018 128.479 229.217 127.396 C 229.876 126.801,230.415 126.262,230.415 126.198 C 230.415 125.913,230.111 126.164,229.101 127.281 M260.069 128.756 L 258.986 129.954 260.184 128.871 C 260.843 128.276,261.382 127.736,261.382 127.673 C 261.382 127.388,261.078 127.639,260.069 128.756 M226.158 130.599 L 224.700 132.166 226.267 130.709 C 227.724 129.353,228.004 129.032,227.725 129.032 C 227.664 129.032,226.959 129.737,226.158 130.599 M45.018 132.023 C 44.791 132.674,44.669 133.272,44.748 133.350 C 44.827 133.429,45.078 132.961,45.305 132.309 C 45.532 131.658,45.653 131.060,45.574 130.981 C 45.495 130.902,45.245 131.371,45.018 132.023 M220.441 137.051 L 219.171 138.433 220.553 137.163 C 221.840 135.980,222.105 135.668,221.823 135.668 C 221.762 135.668,221.140 136.290,220.441 137.051 M251.958 137.972 L 250.876 139.171 252.074 138.088 C 252.733 137.492,253.272 136.953,253.272 136.890 C 253.272 136.605,252.968 136.856,251.958 137.972 M217.492 140.369 L 216.221 141.751 217.604 140.481 C 218.890 139.298,219.156 138.986,218.874 138.986 C 218.813 138.986,218.190 139.608,217.492 140.369 M161.843 143.779 C 162.486 144.590,163.094 145.253,163.196 145.253 C 163.297 145.253,162.854 144.590,162.212 143.779 C 161.570 142.968,160.961 142.304,160.860 142.304 C 160.758 142.304,161.201 142.968,161.843 143.779 M247.166 143.502 L 246.083 144.700 247.281 143.618 C 247.940 143.022,248.479 142.483,248.479 142.420 C 248.479 142.135,248.175 142.385,247.166 143.502 M214.355 143.871 L 213.272 145.069 214.470 143.986 C 215.129 143.391,215.668 142.852,215.668 142.788 C 215.668 142.503,215.364 142.754,214.355 143.871 M212.143 146.452 L 211.060 147.650 212.258 146.567 C 212.917 145.971,213.456 145.432,213.456 145.369 C 213.456 145.084,213.152 145.335,212.143 146.452 M147.097 155.945 C 147.739 156.756,148.348 157.419,148.449 157.419 C 148.550 157.419,148.108 156.756,147.465 155.945 C 146.823 155.134,146.215 154.470,146.113 154.470 C 146.012 154.470,146.454 155.134,147.097 155.945 M233.525 158.986 L 232.442 160.184 233.641 159.102 C 234.300 158.506,234.839 157.967,234.839 157.903 C 234.839 157.619,234.535 157.869,233.525 158.986 M150.783 160.737 C 151.426 161.548,152.034 162.212,152.136 162.212 C 152.237 162.212,151.794 161.548,151.152 160.737 C 150.510 159.926,149.901 159.263,149.800 159.263 C 149.698 159.263,150.141 159.926,150.783 160.737 M230.945 161.935 L 229.862 163.134 231.060 162.051 C 231.719 161.455,232.258 160.916,232.258 160.853 C 232.258 160.568,231.954 160.819,230.945 161.935 M37.321 168.111 C 37.321 168.820,37.396 169.111,37.489 168.756 C 37.582 168.401,37.582 167.820,37.489 167.465 C 37.396 167.111,37.321 167.401,37.321 168.111 M366.176 169.770 C 366.180 170.581,366.256 170.869,366.344 170.410 C 366.432 169.952,366.429 169.288,366.336 168.936 C 366.244 168.583,366.172 168.959,366.176 169.770 M36.967 171.429 C 36.967 172.341,37.039 172.714,37.127 172.258 C 37.214 171.802,37.214 171.055,37.127 170.599 C 37.039 170.143,36.967 170.516,36.967 171.429 M366.557 173.825 C 366.560 174.839,366.631 175.210,366.716 174.649 C 366.801 174.089,366.799 173.259,366.711 172.806 C 366.624 172.353,366.554 172.811,366.557 173.825 M36.616 177.696 C 36.616 179.014,36.683 179.553,36.764 178.894 C 36.846 178.235,36.846 177.157,36.764 176.498 C 36.683 175.839,36.616 176.378,36.616 177.696 M190.591 181.371 C 191.020 181.974,191.559 182.583,191.789 182.725 C 192.019 182.867,191.743 182.374,191.175 181.630 C 189.943 180.014,189.478 179.809,190.591 181.371 M366.964 184.885 C 366.964 187.521,367.023 188.551,367.094 187.174 C 367.165 185.797,367.165 183.640,367.093 182.381 C 367.021 181.122,366.963 182.249,366.964 184.885 M36.603 192.995 C 36.606 194.009,36.678 194.380,36.762 193.820 C 36.847 193.259,36.845 192.430,36.757 191.976 C 36.670 191.523,36.600 191.982,36.603 192.995 M366.557 196.313 C 366.560 197.327,366.631 197.698,366.716 197.138 C 366.801 196.577,366.799 195.748,366.711 195.294 C 366.624 194.841,366.554 195.300,366.557 196.313 M36.972 198.525 C 36.975 199.539,37.046 199.910,37.131 199.350 C 37.216 198.789,37.213 197.960,37.126 197.506 C 37.038 197.053,36.969 197.512,36.972 198.525 M366.183 200.553 C 366.183 201.465,366.255 201.839,366.343 201.382 C 366.431 200.926,366.431 200.180,366.343 199.724 C 366.255 199.267,366.183 199.641,366.183 200.553 M164.404 205.991 L 163.134 207.373 164.516 206.103 C 165.803 204.920,166.068 204.608,165.787 204.608 C 165.725 204.608,165.103 205.230,164.404 205.991 M227.432 206.390 C 227.631 206.761,228.083 207.300,228.437 207.588 C 228.836 207.911,228.747 207.654,228.204 206.912 C 227.236 205.590,226.873 205.344,227.432 206.390 M211.244 208.295 C 211.887 209.106,212.495 209.770,212.597 209.770 C 212.698 209.770,212.255 209.106,211.613 208.295 C 210.971 207.484,210.362 206.820,210.261 206.820 C 210.159 206.820,210.602 207.484,211.244 208.295 M38.058 208.664 C 38.058 209.373,38.134 209.664,38.226 209.309 C 38.319 208.954,38.319 208.373,38.226 208.018 C 38.134 207.664,38.058 207.954,38.058 208.664 M161.636 209.124 L 160.553 210.323 161.751 209.240 C 162.868 208.230,163.119 207.926,162.834 207.926 C 162.771 207.926,162.231 208.465,161.636 209.124 M365.062 209.770 C 365.062 210.479,365.138 210.770,365.231 210.415 C 365.324 210.060,365.324 209.479,365.231 209.124 C 365.138 208.770,365.062 209.060,365.062 209.770 M159.424 211.705 L 158.341 212.903 159.539 211.820 C 160.656 210.811,160.907 210.507,160.622 210.507 C 160.559 210.507,160.019 211.046,159.424 211.705 M156.843 214.654 L 155.760 215.853 156.959 214.770 C 158.075 213.760,158.326 213.456,158.041 213.456 C 157.978 213.456,157.439 213.995,156.843 214.654 M188.917 215.023 L 187.834 216.221 189.032 215.138 C 189.691 214.543,190.230 214.004,190.230 213.940 C 190.230 213.655,189.926 213.906,188.917 215.023 M186.336 217.972 L 185.253 219.171 186.452 218.088 C 187.568 217.078,187.819 216.774,187.534 216.774 C 187.471 216.774,186.932 217.313,186.336 217.972 M183.414 221.194 C 182.833 221.800,182.429 222.355,182.515 222.427 C 182.602 222.499,183.145 222.003,183.723 221.325 C 185.027 219.794,184.834 219.712,183.414 221.194 M144.496 228.848 L 143.226 230.230 144.608 228.960 C 145.895 227.777,146.160 227.465,145.879 227.465 C 145.817 227.465,145.195 228.088,144.496 228.848 M360.395 230.625 C 360.259 231.166,360.220 231.679,360.306 231.766 C 360.393 231.853,360.575 231.482,360.711 230.941 C 360.847 230.401,360.886 229.888,360.800 229.801 C 360.713 229.714,360.531 230.085,360.395 230.625 M142.097 231.613 L 141.014 232.811 142.212 231.728 C 143.329 230.719,143.580 230.415,143.295 230.415 C 143.231 230.415,142.692 230.954,142.097 231.613 M139.885 234.194 L 138.802 235.392 140.000 234.309 C 141.117 233.300,141.368 232.995,141.083 232.995 C 141.019 232.995,140.480 233.535,139.885 234.194 M168.272 238.618 L 167.189 239.816 168.387 238.733 C 169.504 237.724,169.755 237.419,169.470 237.419 C 169.406 237.419,168.867 237.959,168.272 238.618 M134.906 239.908 C 132.795 242.186,131.842 243.318,132.036 243.318 C 132.137 243.318,133.172 242.240,134.336 240.922 C 136.613 238.344,137.012 237.635,134.906 239.908 M165.691 241.567 L 164.608 242.765 165.806 241.682 C 166.923 240.673,167.174 240.369,166.889 240.369 C 166.826 240.369,166.287 240.908,165.691 241.567 M160.161 247.834 L 159.078 249.032 160.276 247.949 C 160.935 247.354,161.475 246.815,161.475 246.751 C 161.475 246.466,161.170 246.717,160.161 247.834 M259.460 248.668 C 259.669 249.076,260.228 249.738,260.703 250.140 C 261.536 250.845,261.535 250.831,260.651 249.767 C 259.183 247.999,259.059 247.885,259.460 248.668 M353.608 249.785 C 352.991 251.141,353.108 251.430,353.776 250.198 C 354.088 249.622,354.274 249.082,354.190 248.998 C 354.106 248.914,353.844 249.268,353.608 249.785 M157.949 250.415 L 156.866 251.613 158.065 250.530 C 159.181 249.521,159.432 249.217,159.147 249.217 C 159.084 249.217,158.545 249.756,157.949 250.415 M352.502 252.366 C 351.885 253.722,352.002 254.011,352.670 252.778 C 352.982 252.203,353.168 251.663,353.084 251.579 C 353.000 251.494,352.738 251.849,352.502 252.366 M155.369 253.364 L 154.286 254.562 155.484 253.479 C 156.601 252.470,156.851 252.166,156.567 252.166 C 156.503 252.166,155.964 252.705,155.369 253.364 M120.208 256.702 L 119.310 257.880 120.484 256.797 C 121.706 255.671,121.846 255.470,121.382 255.504 C 121.230 255.515,120.702 256.055,120.208 256.702 M149.839 259.631 L 148.756 260.829 149.954 259.747 C 151.071 258.737,151.322 258.433,151.037 258.433 C 150.973 258.433,150.434 258.972,149.839 259.631 M147.627 262.212 L 146.544 263.410 147.742 262.327 C 148.859 261.318,149.110 261.014,148.825 261.014 C 148.761 261.014,148.222 261.553,147.627 262.212 M229.669 263.583 C 230.098 264.185,230.637 264.795,230.867 264.937 C 231.098 265.079,230.821 264.586,230.254 263.842 C 229.021 262.226,228.557 262.021,229.669 263.583 M112.604 265.530 L 111.521 266.728 112.719 265.645 C 113.836 264.636,114.087 264.332,113.802 264.332 C 113.738 264.332,113.199 264.871,112.604 265.530 M142.471 268.111 L 141.014 269.677 142.581 268.220 C 144.038 266.865,144.317 266.544,144.038 266.544 C 143.978 266.544,143.273 267.249,142.471 268.111 M110.023 268.479 L 108.940 269.677 110.138 268.595 C 111.255 267.585,111.506 267.281,111.221 267.281 C 111.158 267.281,110.618 267.820,110.023 268.479 M139.516 271.429 L 138.433 272.627 139.631 271.544 C 140.748 270.535,140.999 270.230,140.714 270.230 C 140.651 270.230,140.112 270.770,139.516 271.429 M137.304 274.009 L 136.221 275.207 137.419 274.125 C 138.536 273.115,138.787 272.811,138.502 272.811 C 138.439 272.811,137.900 273.350,137.304 274.009 M103.045 276.494 C 102.464 277.100,102.060 277.655,102.147 277.727 C 102.233 277.799,102.777 277.303,103.354 276.625 C 104.658 275.094,104.465 275.012,103.045 276.494 M134.723 276.959 L 133.641 278.157 134.839 277.074 C 135.956 276.065,136.206 275.760,135.922 275.760 C 135.858 275.760,135.319 276.300,134.723 276.959 M329.009 290.230 L 327.926 291.429 329.124 290.346 C 329.783 289.750,330.323 289.211,330.323 289.148 C 330.323 288.863,330.018 289.114,329.009 290.230 M77.419 294.009 C 78.107 294.719,78.753 295.300,78.854 295.300 C 78.956 295.300,78.476 294.719,77.788 294.009 C 77.100 293.300,76.454 292.719,76.353 292.719 C 76.252 292.719,76.732 293.300,77.419 294.009 M324.404 295.576 L 323.134 296.959 324.516 295.688 C 325.803 294.506,326.068 294.194,325.787 294.194 C 325.725 294.194,325.103 294.816,324.404 295.576 M80.553 297.512 C 81.345 298.323,82.076 298.986,82.177 298.986 C 82.279 298.986,81.714 298.323,80.922 297.512 C 80.130 296.700,79.399 296.037,79.297 296.037 C 79.196 296.037,79.761 296.700,80.553 297.512 M318.702 301.659 L 315.392 305.069 318.802 301.759 C 321.969 298.684,322.380 298.249,322.112 298.249 C 322.057 298.249,320.523 299.783,318.702 301.659 M87.742 304.700 C 89.456 306.424,90.942 307.834,91.044 307.834 C 91.145 307.834,89.825 306.424,88.111 304.700 C 86.396 302.977,84.910 301.567,84.809 301.567 C 84.708 301.567,86.027 302.977,87.742 304.700 M312.056 307.926 L 310.599 309.493 312.166 308.036 C 313.623 306.680,313.902 306.359,313.623 306.359 C 313.563 306.359,312.858 307.065,312.056 307.926 M91.797 308.318 C 91.797 308.382,92.336 308.921,92.995 309.516 L 94.194 310.599 93.111 309.401 C 92.101 308.284,91.797 308.033,91.797 308.318 M94.378 310.530 C 94.378 310.594,94.917 311.133,95.576 311.728 L 96.774 312.811 95.691 311.613 C 94.682 310.496,94.378 310.245,94.378 310.530 M161.659 345.438 C 162.065 345.612,162.645 345.755,162.949 345.755 C 163.298 345.755,163.230 345.637,162.765 345.438 C 162.359 345.264,161.779 345.121,161.475 345.121 C 161.126 345.121,161.194 345.238,161.659 345.438 M230.046 347.650 C 229.316 347.883,229.278 347.945,229.862 347.945 C 230.267 347.945,231.014 347.812,231.521 347.650 C 232.251 347.416,232.289 347.355,231.705 347.355 C 231.300 347.355,230.553 347.487,230.046 347.650 M221.659 349.010 C 222.014 349.103,222.594 349.103,222.949 349.010 C 223.304 348.917,223.014 348.841,222.304 348.841 C 221.594 348.841,221.304 348.917,221.659 349.010 M218.341 349.379 C 218.696 349.471,219.276 349.471,219.631 349.379 C 219.986 349.286,219.696 349.210,218.986 349.210 C 218.276 349.210,217.986 349.286,218.341 349.379 M188.302 349.760 C 188.964 349.842,189.960 349.841,190.514 349.757 C 191.067 349.672,190.525 349.605,189.309 349.607 C 188.092 349.609,187.639 349.678,188.302 349.760 M213.180 349.757 C 213.737 349.842,214.650 349.842,215.207 349.757 C 215.765 349.673,215.309 349.604,214.194 349.604 C 213.078 349.604,212.622 349.673,213.180 349.757 M193.463 350.129 C 194.125 350.211,195.121 350.209,195.675 350.125 C 196.229 350.041,195.687 349.974,194.470 349.976 C 193.253 349.978,192.800 350.047,193.463 350.129 M207.841 350.129 C 208.503 350.211,209.499 350.209,210.053 350.125 C 210.607 350.041,210.065 349.974,208.848 349.976 C 207.631 349.978,207.178 350.047,207.841 350.129 " stroke="none" fill="#747474" fill-rule="evenodd"></path><path id="path3" d="M194.747 19.810 C 195.710 19.886,197.286 19.886,198.249 19.810 C 199.212 19.734,198.424 19.672,196.498 19.672 C 194.571 19.672,193.783 19.734,194.747 19.810 M206.175 19.808 C 206.935 19.887,208.180 19.887,208.940 19.808 C 209.700 19.728,209.078 19.663,207.558 19.663 C 206.037 19.663,205.415 19.728,206.175 19.808 M187.926 20.175 C 188.585 20.256,189.664 20.256,190.323 20.175 C 190.982 20.093,190.442 20.026,189.124 20.026 C 187.806 20.026,187.267 20.093,187.926 20.175 M212.995 20.175 C 213.654 20.256,214.733 20.256,215.392 20.175 C 216.051 20.093,215.512 20.026,214.194 20.026 C 212.876 20.026,212.336 20.093,212.995 20.175 M178.157 21.268 C 178.512 21.361,179.092 21.361,179.447 21.268 C 179.802 21.175,179.512 21.099,178.802 21.099 C 178.092 21.099,177.802 21.175,178.157 21.268 M224.700 21.382 C 225.309 21.537,226.304 21.664,226.912 21.665 C 227.842 21.666,227.784 21.618,226.544 21.361 C 224.676 20.975,223.167 20.992,224.700 21.382 M164.977 23.594 C 164.512 23.794,164.444 23.911,164.793 23.911 C 165.097 23.911,165.677 23.769,166.083 23.594 C 166.548 23.395,166.616 23.278,166.267 23.278 C 165.963 23.278,165.382 23.420,164.977 23.594 M246.083 25.806 C 246.488 25.981,247.069 26.123,247.373 26.123 C 247.722 26.123,247.654 26.006,247.189 25.806 C 246.783 25.632,246.203 25.490,245.899 25.490 C 245.550 25.490,245.618 25.607,246.083 25.806 M152.442 26.912 C 151.978 27.112,151.910 27.229,152.258 27.229 C 152.562 27.229,153.143 27.087,153.548 26.912 C 154.013 26.713,154.081 26.596,153.733 26.596 C 153.429 26.596,152.848 26.738,152.442 26.912 M145.438 29.322 C 144.516 29.766,144.485 29.817,145.253 29.629 C 146.298 29.374,147.472 28.775,146.912 28.784 C 146.710 28.787,146.046 29.029,145.438 29.322 M142.765 30.242 C 141.530 30.738,141.761 30.990,143.041 30.544 C 143.650 30.332,144.147 30.092,144.147 30.010 C 144.147 29.791,143.699 29.867,142.765 30.242 M116.393 43.079 C 115.423 43.650,114.428 44.324,114.181 44.578 C 113.934 44.831,114.770 44.425,116.037 43.674 C 117.304 42.924,118.341 42.247,118.341 42.169 C 118.341 41.943,118.248 41.986,116.393 43.079 M311.152 60.945 C 311.152 61.008,311.691 61.547,312.350 62.143 L 313.548 63.226 312.466 62.028 C 311.456 60.911,311.152 60.660,311.152 60.945 M89.018 63.871 L 87.189 65.806 89.124 63.977 C 90.923 62.277,91.229 61.935,90.954 61.935 C 90.896 61.935,90.025 62.806,89.018 63.871 M318.157 67.650 C 320.685 70.184,322.837 72.258,322.938 72.258 C 323.040 72.258,321.054 70.184,318.525 67.650 C 315.997 65.115,313.845 63.041,313.744 63.041 C 313.642 63.041,315.628 65.115,318.157 67.650 M79.631 73.180 C 78.736 74.092,78.086 74.839,78.187 74.839 C 78.289 74.839,79.105 74.092,80.000 73.180 C 80.895 72.267,81.545 71.521,81.444 71.521 C 81.342 71.521,80.527 72.267,79.631 73.180 M325.161 75.023 C 325.849 75.733,326.495 76.313,326.596 76.313 C 326.698 76.313,326.218 75.733,325.530 75.023 C 324.842 74.313,324.196 73.733,324.095 73.733 C 323.994 73.733,324.473 74.313,325.161 75.023 M76.843 76.406 L 75.760 77.604 76.959 76.521 C 78.075 75.512,78.326 75.207,78.041 75.207 C 77.978 75.207,77.439 75.747,76.843 76.406 M326.636 76.797 C 326.636 76.861,327.175 77.400,327.834 77.996 L 329.032 79.078 327.949 77.880 C 326.940 76.763,326.636 76.513,326.636 76.797 M68.571 86.636 C 68.138 87.244,67.867 87.742,67.968 87.742 C 68.070 87.742,68.507 87.244,68.940 86.636 C 69.373 86.028,69.645 85.530,69.543 85.530 C 69.442 85.530,69.005 86.028,68.571 86.636 M338.972 92.811 C 339.541 93.673,340.076 94.378,340.162 94.378 C 340.428 94.378,339.016 92.134,338.463 91.677 C 338.175 91.439,338.404 91.949,338.972 92.811 M99.429 92.399 C 99.181 92.647,99.941 93.803,101.579 95.668 L 102.549 96.774 101.787 95.668 C 101.368 95.060,100.677 94.106,100.252 93.548 L 99.478 92.535 131.674 92.529 L 163.871 92.523 165.301 94.096 L 166.732 95.668 165.438 94.009 L 164.144 92.350 131.905 92.256 C 114.174 92.204,99.559 92.268,99.429 92.399 M275.945 92.528 C 284.461 92.633,291.221 92.853,290.968 93.017 C 290.714 93.181,290.507 93.503,290.507 93.733 C 290.507 94.177,291.581 92.910,291.601 92.442 C 291.608 92.290,284.604 92.205,276.037 92.252 L 260.461 92.338 275.945 92.528 M258.255 94.740 C 257.467 95.547,256.894 96.263,256.982 96.330 C 257.071 96.397,257.787 95.737,258.573 94.862 C 260.370 92.865,260.163 92.786,258.255 94.740 M288.825 95.576 L 287.742 96.774 288.940 95.691 C 289.599 95.096,290.138 94.557,290.138 94.493 C 290.138 94.208,289.834 94.459,288.825 95.576 M255.276 98.157 L 254.194 99.355 255.392 98.272 C 256.051 97.677,256.590 97.137,256.590 97.074 C 256.590 96.789,256.286 97.040,255.276 98.157 M286.613 98.157 L 285.530 99.355 286.728 98.272 C 287.387 97.677,287.926 97.137,287.926 97.074 C 287.926 96.789,287.622 97.040,286.613 98.157 M251.958 101.843 L 250.876 103.041 252.074 101.959 C 252.733 101.363,253.272 100.824,253.272 100.761 C 253.272 100.476,252.968 100.726,251.958 101.843 M108.940 105.438 C 109.876 106.654,110.725 107.650,110.827 107.650 C 110.928 107.650,110.245 106.654,109.309 105.438 C 108.373 104.221,107.524 103.226,107.422 103.226 C 107.321 103.226,108.004 104.221,108.940 105.438 M249.197 104.977 L 247.926 106.359 249.309 105.089 C 250.596 103.906,250.861 103.594,250.579 103.594 C 250.518 103.594,249.896 104.217,249.197 104.977 M280.714 104.793 L 279.631 105.991 280.829 104.908 C 281.488 104.312,282.028 103.773,282.028 103.710 C 282.028 103.425,281.723 103.676,280.714 104.793 M278.502 107.373 L 277.419 108.571 278.618 107.489 C 279.276 106.893,279.816 106.354,279.816 106.290 C 279.816 106.006,279.511 106.256,278.502 107.373 M246.452 108.018 C 245.660 108.829,245.170 109.479,245.363 109.462 C 245.701 109.432,248.354 106.544,248.044 106.544 C 247.960 106.544,247.244 107.207,246.452 108.018 M176.582 109.113 C 177.011 109.715,177.550 110.324,177.780 110.467 C 178.010 110.609,177.734 110.116,177.166 109.372 C 175.934 107.756,175.469 107.551,176.582 109.113 M135.300 109.264 C 135.300 109.543,135.590 109.991,135.945 110.260 C 136.494 110.675,136.521 110.671,136.129 110.231 C 135.221 109.213,135.789 109.136,144.977 109.032 L 154.286 108.927 144.793 108.841 C 136.934 108.770,135.300 108.843,135.300 109.264 M243.848 111.060 L 242.765 112.258 243.963 111.175 C 244.622 110.580,245.161 110.041,245.161 109.977 C 245.161 109.692,244.857 109.943,243.848 111.060 M240.530 114.747 L 239.447 115.945 240.645 114.862 C 241.304 114.266,241.843 113.727,241.843 113.664 C 241.843 113.379,241.539 113.630,240.530 114.747 M238.137 117.512 L 236.866 118.894 238.249 117.624 C 239.536 116.441,239.801 116.129,239.519 116.129 C 239.458 116.129,238.836 116.751,238.137 117.512 M235.188 120.829 L 233.917 122.212 235.300 120.942 C 236.586 119.759,236.852 119.447,236.570 119.447 C 236.508 119.447,235.886 120.069,235.188 120.829 M265.274 122.373 L 263.820 124.055 265.440 122.501 C 266.331 121.646,266.986 120.889,266.894 120.819 C 266.803 120.748,266.074 121.448,265.274 122.373 M148.203 126.452 C 148.845 127.263,149.454 127.926,149.555 127.926 C 149.656 127.926,149.214 127.263,148.571 126.452 C 147.929 125.641,147.321 124.977,147.219 124.977 C 147.118 124.977,147.560 125.641,148.203 126.452 M229.289 127.465 L 228.018 128.848 229.401 127.577 C 230.688 126.395,230.953 126.083,230.671 126.083 C 230.610 126.083,229.988 126.705,229.289 127.465 M260.069 128.387 L 258.986 129.585 260.184 128.502 C 260.843 127.907,261.382 127.368,261.382 127.304 C 261.382 127.019,261.078 127.270,260.069 128.387 M226.158 130.968 L 224.700 132.535 226.267 131.077 C 227.724 129.722,228.004 129.401,227.725 129.401 C 227.664 129.401,226.959 130.106,226.158 130.968 M257.187 131.463 C 255.334 133.568,255.615 133.549,257.696 131.429 C 258.591 130.516,259.165 129.785,258.971 129.804 C 258.776 129.823,257.974 130.570,257.187 131.463 M128.664 131.032 C 128.664 131.278,130.292 133.552,131.310 134.728 C 132.172 135.725,131.426 134.445,130.138 132.719 C 129.327 131.632,128.664 130.873,128.664 131.032 M221.034 136.751 L 219.580 138.433 221.201 136.879 C 222.092 136.024,222.746 135.267,222.655 135.197 C 222.563 135.126,221.834 135.826,221.034 136.751 M133.088 137.143 C 133.730 137.954,134.338 138.618,134.440 138.618 C 134.541 138.618,134.099 137.954,133.456 137.143 C 132.814 136.332,132.205 135.668,132.104 135.668 C 132.003 135.668,132.445 136.332,133.088 137.143 M252.146 137.419 L 250.876 138.802 252.258 137.531 C 253.545 136.349,253.810 136.037,253.529 136.037 C 253.467 136.037,252.845 136.659,252.146 137.419 M218.047 140.184 L 216.590 141.751 218.157 140.294 C 219.614 138.939,219.893 138.618,219.614 138.618 C 219.554 138.618,218.849 139.323,218.047 140.184 M135.668 140.461 C 136.311 141.272,136.919 141.935,137.020 141.935 C 137.122 141.935,136.679 141.272,136.037 140.461 C 135.394 139.650,134.786 138.986,134.685 138.986 C 134.583 138.986,135.026 139.650,135.668 140.461 M249.197 140.737 L 247.926 142.120 249.309 140.849 C 250.596 139.667,250.861 139.355,250.579 139.355 C 250.518 139.355,249.896 139.977,249.197 140.737 M360.973 140.092 C 360.973 140.396,361.116 140.977,361.290 141.382 C 361.490 141.847,361.607 141.915,361.607 141.567 C 361.607 141.263,361.465 140.682,361.290 140.276 C 361.091 139.812,360.973 139.744,360.973 140.092 M215.092 143.502 L 214.009 144.700 215.207 143.618 C 215.866 143.022,216.406 142.483,216.406 142.420 C 216.406 142.135,216.101 142.385,215.092 143.502 M138.978 144.874 C 139.407 145.476,139.946 146.085,140.176 146.227 C 140.406 146.369,140.130 145.877,139.562 145.132 C 138.330 143.517,137.865 143.311,138.978 144.874 M40.783 145.452 C 40.656 145.782,40.567 146.328,40.585 146.666 C 40.602 147.004,40.763 146.792,40.941 146.194 C 41.289 145.030,41.166 144.454,40.783 145.452 M212.699 146.267 L 211.429 147.650 212.811 146.379 C 214.098 145.197,214.363 144.885,214.082 144.885 C 214.020 144.885,213.398 145.507,212.699 146.267 M244.216 146.452 L 243.134 147.650 244.332 146.567 C 244.991 145.971,245.530 145.432,245.530 145.369 C 245.530 145.084,245.226 145.335,244.216 146.452 M241.086 149.954 L 239.816 151.336 241.198 150.066 C 242.485 148.883,242.750 148.571,242.469 148.571 C 242.407 148.571,241.785 149.194,241.086 149.954 M209.412 149.850 C 208.941 150.351,208.389 150.657,208.184 150.531 C 207.964 150.395,207.927 150.487,208.094 150.757 C 208.330 151.139,210.507 149.604,210.507 149.055 C 210.507 148.784,210.214 148.996,209.412 149.850 M236.106 155.668 L 235.023 156.866 236.221 155.784 C 236.880 155.188,237.419 154.649,237.419 154.585 C 237.419 154.301,237.115 154.551,236.106 155.668 M233.369 158.704 C 232.685 159.411,232.196 160.046,232.283 160.115 C 232.371 160.184,233.001 159.606,233.683 158.830 C 235.234 157.067,235.034 156.987,233.369 158.704 M174.194 160.369 C 175.130 161.585,175.979 162.581,176.080 162.581 C 176.181 162.581,175.498 161.585,174.562 160.369 C 173.626 159.152,172.777 158.157,172.676 158.157 C 172.574 158.157,173.257 159.152,174.194 160.369 M37.328 164.977 C 37.332 165.788,37.408 166.076,37.496 165.618 C 37.584 165.159,37.581 164.496,37.488 164.143 C 37.396 163.791,37.324 164.166,37.328 164.977 M227.995 164.885 L 226.912 166.083 228.111 165.000 C 228.770 164.405,229.309 163.865,229.309 163.802 C 229.309 163.517,229.005 163.768,227.995 164.885 M366.176 166.452 C 366.180 167.263,366.256 167.551,366.344 167.092 C 366.432 166.634,366.429 165.970,366.336 165.618 C 366.244 165.265,366.172 165.641,366.176 166.452 M225.444 167.735 C 224.656 168.543,224.083 169.258,224.171 169.325 C 224.260 169.393,224.975 168.732,225.762 167.857 C 227.558 165.861,227.352 165.781,225.444 167.735 M36.952 168.111 C 36.952 168.820,37.028 169.111,37.120 168.756 C 37.213 168.401,37.213 167.820,37.120 167.465 C 37.028 167.111,36.952 167.401,36.952 168.111 M366.537 170.323 C 366.537 171.032,366.613 171.323,366.706 170.968 C 366.798 170.613,366.798 170.032,366.706 169.677 C 366.613 169.323,366.537 169.613,366.537 170.323 M36.591 172.719 C 36.595 173.530,36.670 173.818,36.758 173.360 C 36.847 172.901,36.843 172.238,36.751 171.885 C 36.659 171.533,36.587 171.908,36.591 172.719 M162.239 175.300 C 163.275 176.618,164.194 177.696,164.282 177.696 C 164.563 177.696,160.932 172.934,160.639 172.918 C 160.483 172.910,161.204 173.982,162.239 175.300 M203.870 174.654 C 204.352 175.313,204.805 175.853,204.875 175.853 C 205.155 175.853,204.241 174.470,203.636 173.979 C 203.238 173.655,203.327 173.913,203.870 174.654 M366.935 176.037 C 366.937 177.253,367.005 177.707,367.087 177.044 C 367.170 176.381,367.168 175.386,367.084 174.832 C 367.000 174.278,366.932 174.820,366.935 176.037 M36.288 185.253 C 36.288 190.120,36.341 192.060,36.405 189.564 C 36.468 187.069,36.468 183.087,36.404 180.716 C 36.340 178.345,36.288 180.387,36.288 185.253 M165.322 179.292 C 165.890 180.036,166.429 180.645,166.520 180.645 C 166.777 180.645,165.181 178.489,164.709 178.197 C 164.478 178.055,164.755 178.547,165.322 179.292 M367.336 184.516 C 367.337 187.558,367.394 188.753,367.463 187.172 C 367.533 185.591,367.532 183.103,367.462 181.642 C 367.393 180.181,367.336 181.475,367.336 184.516 M193.364 185.438 C 194.300 186.654,195.149 187.650,195.250 187.650 C 195.352 187.650,194.669 186.654,193.733 185.438 C 192.797 184.221,191.948 183.226,191.846 183.226 C 191.745 183.226,192.428 184.221,193.364 185.438 M196.290 189.246 C 196.858 189.990,197.397 190.599,197.488 190.599 C 197.744 190.599,196.148 188.443,195.676 188.151 C 195.446 188.009,195.722 188.501,196.290 189.246 M199.263 193.180 C 200.199 194.396,201.048 195.392,201.149 195.392 C 201.250 195.392,200.567 194.396,199.631 193.180 C 198.695 191.963,197.846 190.968,197.745 190.968 C 197.644 190.968,198.327 191.963,199.263 193.180 M366.938 194.654 C 366.938 195.972,367.005 196.512,367.087 195.853 C 367.169 195.194,367.169 194.115,367.087 193.456 C 367.005 192.797,366.938 193.336,366.938 194.654 M36.591 197.051 C 36.595 197.862,36.670 198.150,36.758 197.692 C 36.847 197.233,36.843 196.569,36.751 196.217 C 36.659 195.864,36.587 196.240,36.591 197.051 M172.189 197.391 L 170.922 198.894 172.355 197.524 C 173.143 196.770,173.713 196.094,173.622 196.021 C 173.531 195.948,172.886 196.564,172.189 197.391 M202.388 197.224 C 202.817 197.826,203.356 198.435,203.586 198.577 C 203.816 198.720,203.540 198.227,202.972 197.482 C 201.740 195.867,201.276 195.661,202.388 197.224 M36.952 202.028 C 36.952 202.737,37.028 203.028,37.120 202.673 C 37.213 202.318,37.213 201.737,37.120 201.382 C 37.028 201.028,36.952 201.318,36.952 202.028 M167.353 203.041 L 166.083 204.424 167.465 203.153 C 168.752 201.971,169.017 201.659,168.736 201.659 C 168.674 201.659,168.052 202.281,167.353 203.041 M366.168 203.871 C 366.168 204.581,366.244 204.871,366.337 204.516 C 366.430 204.161,366.430 203.581,366.337 203.226 C 366.244 202.871,366.168 203.161,366.168 203.871 M37.328 205.161 C 37.332 205.972,37.408 206.261,37.496 205.802 C 37.584 205.344,37.581 204.680,37.488 204.327 C 37.396 203.975,37.324 204.350,37.328 205.161 M164.585 206.175 L 163.502 207.373 164.700 206.290 C 165.817 205.281,166.068 204.977,165.783 204.977 C 165.720 204.977,165.181 205.516,164.585 206.175 M162.373 208.756 L 161.290 209.954 162.488 208.871 C 163.605 207.862,163.856 207.558,163.571 207.558 C 163.508 207.558,162.969 208.097,162.373 208.756 M252.895 209.758 C 253.324 210.361,253.863 210.970,254.093 211.112 C 254.323 211.254,254.047 210.761,253.479 210.017 C 252.247 208.401,251.783 208.196,252.895 209.758 M160.161 211.336 L 159.078 212.535 160.276 211.452 C 160.935 210.856,161.475 210.317,161.475 210.254 C 161.475 209.969,161.170 210.220,160.161 211.336 M254.747 212.026 C 254.747 212.131,255.410 213.106,256.221 214.194 C 257.032 215.281,257.696 216.040,257.696 215.880 C 257.696 215.720,257.169 214.903,256.524 214.062 C 255.032 212.117,254.747 211.789,254.747 212.026 M157.400 214.470 L 156.129 215.853 157.512 214.582 C 158.798 213.400,159.064 213.088,158.782 213.088 C 158.720 213.088,158.098 213.710,157.400 214.470 M188.548 215.023 L 187.465 216.221 188.664 215.138 C 189.323 214.543,189.862 214.004,189.862 213.940 C 189.862 213.655,189.558 213.906,188.548 215.023 M185.787 218.157 L 184.516 219.539 185.899 218.269 C 187.185 217.086,187.451 216.774,187.169 216.774 C 187.107 216.774,186.485 217.396,185.787 218.157 M219.147 219.107 C 219.715 219.852,220.254 220.461,220.345 220.461 C 220.601 220.461,219.005 218.304,218.533 218.013 C 218.303 217.870,218.580 218.363,219.147 219.107 M152.051 220.553 L 150.968 221.751 152.166 220.668 C 153.283 219.659,153.534 219.355,153.249 219.355 C 153.185 219.355,152.646 219.894,152.051 220.553 M183.387 220.922 L 182.304 222.120 183.502 221.037 C 184.619 220.028,184.870 219.724,184.585 219.724 C 184.522 219.724,183.982 220.263,183.387 220.922 M221.563 222.299 C 222.203 223.107,222.919 223.888,223.155 224.033 C 223.390 224.178,222.943 223.517,222.162 222.563 C 221.380 221.610,220.664 220.829,220.570 220.829 C 220.476 220.829,220.923 221.491,221.563 222.299 M149.839 223.134 L 148.756 224.332 149.954 223.249 C 151.071 222.240,151.322 221.935,151.037 221.935 C 150.973 221.935,150.434 222.475,149.839 223.134 M180.806 223.871 L 179.724 225.069 180.922 223.986 C 182.039 222.977,182.289 222.673,182.004 222.673 C 181.941 222.673,181.402 223.212,180.806 223.871 M40.559 223.625 C 40.562 224.014,40.733 224.581,40.939 224.885 C 41.212 225.289,41.246 225.140,41.065 224.332 C 40.762 222.976,40.551 222.682,40.559 223.625 M264.324 224.874 C 264.753 225.476,265.292 226.085,265.522 226.227 C 265.752 226.369,265.476 225.877,264.908 225.132 C 263.676 223.517,263.211 223.311,264.324 224.874 M147.627 225.714 L 146.544 226.912 147.742 225.830 C 148.859 224.820,149.110 224.516,148.825 224.516 C 148.761 224.516,148.222 225.055,147.627 225.714 M224.568 226.192 C 225.230 227.113,226.019 228.067,226.321 228.312 C 226.624 228.556,226.156 227.802,225.281 226.636 C 223.398 224.127,222.832 223.774,224.568 226.192 M178.594 226.452 L 177.512 227.650 178.710 226.567 C 179.827 225.558,180.077 225.253,179.792 225.253 C 179.729 225.253,179.190 225.793,178.594 226.452 M41.711 227.834 C 41.711 228.138,41.853 228.719,42.028 229.124 C 42.227 229.589,42.344 229.657,42.344 229.309 C 42.344 229.005,42.202 228.424,42.028 228.018 C 41.828 227.554,41.711 227.486,41.711 227.834 M145.046 228.664 L 143.963 229.862 145.161 228.779 C 146.278 227.770,146.529 227.465,146.244 227.465 C 146.181 227.465,145.641 228.005,145.046 228.664 M175.645 229.770 L 174.562 230.968 175.760 229.885 C 176.877 228.876,177.128 228.571,176.843 228.571 C 176.780 228.571,176.241 229.111,175.645 229.770 M268.748 230.772 C 269.177 231.374,269.716 231.983,269.946 232.126 C 270.176 232.268,269.900 231.775,269.332 231.031 C 268.100 229.415,267.635 229.210,268.748 230.772 M142.495 231.514 C 141.707 232.321,141.134 233.037,141.222 233.104 C 141.310 233.171,142.026 232.511,142.813 231.636 C 144.609 229.639,144.403 229.560,142.495 231.514 M173.064 232.719 L 171.982 233.917 173.180 232.834 C 174.297 231.825,174.547 231.521,174.263 231.521 C 174.199 231.521,173.660 232.060,173.064 232.719 M248.463 233.641 C 249.148 234.502,249.775 235.207,249.856 235.207 C 250.117 235.207,248.537 233.133,247.866 232.594 C 247.510 232.308,247.779 232.779,248.463 233.641 M170.671 235.484 L 169.401 236.866 170.783 235.596 C 172.070 234.413,172.335 234.101,172.054 234.101 C 171.992 234.101,171.370 234.724,170.671 235.484 M136.187 238.802 C 135.003 240.171,134.421 240.959,134.892 240.553 C 135.875 239.708,138.774 236.313,138.513 236.313 C 138.417 236.313,137.370 237.433,136.187 238.802 M274.654 238.525 C 275.297 239.336,275.905 240.000,276.007 240.000 C 276.108 240.000,275.665 239.336,275.023 238.525 C 274.381 237.714,273.772 237.051,273.671 237.051 C 273.569 237.051,274.012 237.714,274.654 238.525 M167.722 238.802 L 166.452 240.184 167.834 238.914 C 169.121 237.731,169.386 237.419,169.105 237.419 C 169.043 237.419,168.421 238.041,167.722 238.802 M252.158 238.514 C 252.587 239.116,253.126 239.725,253.356 239.868 C 253.586 240.010,253.310 239.517,252.742 238.773 C 251.510 237.157,251.045 236.951,252.158 238.514 M45.188 239.263 C 45.324 239.770,45.589 240.433,45.776 240.737 C 46.014 241.122,46.043 241.009,45.872 240.369 C 45.736 239.862,45.471 239.198,45.283 238.894 C 45.046 238.510,45.017 238.622,45.188 239.263 M164.954 241.935 L 163.871 243.134 165.069 242.051 C 166.186 241.042,166.437 240.737,166.152 240.737 C 166.088 240.737,165.549 241.276,164.954 241.935 M132.511 243.041 L 131.429 244.240 132.627 243.157 C 133.744 242.148,133.994 241.843,133.710 241.843 C 133.646 241.843,133.107 242.382,132.511 243.041 M277.630 242.382 C 278.106 243.249,279.446 244.868,279.437 244.566 C 279.432 244.386,278.975 243.735,278.423 243.119 C 277.871 242.503,277.514 242.171,277.630 242.382 M162.742 244.516 L 161.659 245.714 162.857 244.631 C 163.516 244.036,164.055 243.497,164.055 243.433 C 164.055 243.149,163.751 243.399,162.742 244.516 M215.668 244.793 C 216.311 245.604,216.919 246.267,217.020 246.267 C 217.122 246.267,216.679 245.604,216.037 244.793 C 215.394 243.982,214.786 243.318,214.685 243.318 C 214.583 243.318,215.026 243.982,215.668 244.793 M130.299 245.622 L 129.217 246.820 130.415 245.737 C 131.532 244.728,131.782 244.424,131.498 244.424 C 131.434 244.424,130.895 244.963,130.299 245.622 M160.161 247.465 L 159.078 248.664 160.276 247.581 C 161.393 246.571,161.644 246.267,161.359 246.267 C 161.296 246.267,160.757 246.806,160.161 247.465 M217.872 247.731 C 218.301 248.333,218.840 248.942,219.070 249.084 C 219.300 249.226,219.024 248.734,218.456 247.989 C 217.224 246.374,216.759 246.168,217.872 247.731 M281.220 247.189 C 281.433 247.594,282.132 248.507,282.773 249.217 L 283.938 250.507 282.733 248.848 C 281.257 246.816,280.704 246.210,281.220 247.189 M48.321 247.558 C 48.321 247.760,48.558 248.341,48.848 248.848 C 49.138 249.355,49.375 249.604,49.375 249.401 C 49.375 249.198,49.138 248.618,48.848 248.111 C 48.558 247.604,48.321 247.355,48.321 247.558 M157.400 250.599 L 156.129 251.982 157.512 250.711 C 158.798 249.529,159.064 249.217,158.782 249.217 C 158.720 249.217,158.098 249.839,157.400 250.599 M125.507 251.152 L 124.424 252.350 125.622 251.267 C 126.739 250.258,126.990 249.954,126.705 249.954 C 126.641 249.954,126.102 250.493,125.507 251.152 M154.819 253.548 L 153.548 254.931 154.931 253.660 C 156.218 252.478,156.483 252.166,156.201 252.166 C 156.140 252.166,155.518 252.788,154.819 253.548 M50.533 252.719 C 50.533 252.922,50.770 253.502,51.060 254.009 C 51.350 254.516,51.587 254.765,51.587 254.562 C 51.587 254.359,51.350 253.779,51.060 253.272 C 50.770 252.765,50.533 252.516,50.533 252.719 M245.522 253.629 C 245.951 254.232,246.490 254.841,246.720 254.983 C 246.950 255.125,246.674 254.632,246.106 253.888 C 244.874 252.272,244.409 252.067,245.522 253.629 M121.261 255.945 C 120.169 257.212,119.569 258.017,119.926 257.733 C 120.677 257.138,123.652 253.641,123.408 253.641 C 123.318 253.641,122.352 254.677,121.261 255.945 M152.419 256.313 L 151.336 257.512 152.535 256.429 C 153.651 255.419,153.902 255.115,153.617 255.115 C 153.554 255.115,153.015 255.654,152.419 256.313 M248.111 256.959 C 248.753 257.770,249.361 258.433,249.463 258.433 C 249.564 258.433,249.122 257.770,248.479 256.959 C 247.837 256.147,247.228 255.484,247.127 255.484 C 247.026 255.484,247.468 256.147,248.111 256.959 M288.287 256.579 C 288.716 257.181,289.255 257.790,289.485 257.932 C 289.715 258.074,289.439 257.582,288.871 256.837 C 287.639 255.222,287.174 255.016,288.287 256.579 M149.839 259.263 L 148.756 260.461 149.954 259.378 C 151.071 258.369,151.322 258.065,151.037 258.065 C 150.973 258.065,150.434 258.604,149.839 259.263 M117.765 260.000 L 116.682 261.198 117.880 260.115 C 118.997 259.106,119.248 258.802,118.963 258.802 C 118.900 258.802,118.360 259.341,117.765 260.000 M253.555 259.438 C 254.218 259.520,255.213 259.518,255.767 259.434 C 256.321 259.350,255.779 259.283,254.562 259.285 C 253.346 259.287,252.892 259.356,253.555 259.438 M147.627 261.843 L 146.544 263.041 147.742 261.959 C 148.859 260.949,149.110 260.645,148.825 260.645 C 148.761 260.645,148.222 261.184,147.627 261.843 M115.553 262.581 L 114.470 263.779 115.668 262.696 C 116.785 261.687,117.036 261.382,116.751 261.382 C 116.688 261.382,116.148 261.922,115.553 262.581 M292.711 262.477 C 293.140 263.079,293.679 263.689,293.909 263.831 C 294.139 263.973,293.863 263.480,293.295 262.736 C 292.063 261.120,291.598 260.915,292.711 262.477 M56.037 263.963 C 56.451 264.774,56.872 265.438,56.974 265.438 C 57.075 265.438,56.819 264.774,56.406 263.963 C 55.992 263.152,55.570 262.488,55.469 262.488 C 55.368 262.488,55.623 263.152,56.037 263.963 M112.972 265.530 L 111.889 266.728 113.088 265.645 C 114.204 264.636,114.455 264.332,114.170 264.332 C 114.107 264.332,113.568 264.871,112.972 265.530 M295.720 266.376 C 296.382 267.298,297.171 268.252,297.473 268.496 C 297.776 268.740,297.308 267.986,296.433 266.820 C 294.550 264.312,293.984 263.959,295.720 266.376 M142.097 268.111 L 141.014 269.309 142.212 268.226 C 143.329 267.217,143.580 266.912,143.295 266.912 C 143.231 266.912,142.692 267.452,142.097 268.111 M108.367 270.876 L 107.097 272.258 108.479 270.988 C 109.766 269.805,110.031 269.493,109.750 269.493 C 109.688 269.493,109.066 270.115,108.367 270.876 M299.381 271.138 C 299.858 272.005,301.197 273.624,301.188 273.322 C 301.183 273.142,300.727 272.491,300.174 271.875 C 299.622 271.259,299.265 270.927,299.381 271.138 M104.402 275.345 C 103.366 276.536,102.622 277.615,102.749 277.742 C 102.876 277.869,109.889 277.972,118.333 277.972 L 133.687 277.972 134.770 276.774 L 135.853 275.576 134.726 276.590 L 133.600 277.604 118.156 277.604 L 102.713 277.604 103.806 276.406 C 105.896 274.115,106.671 273.180,106.479 273.180 C 106.373 273.180,105.438 274.154,104.402 275.345 M303.199 276.221 L 304.185 277.604 272.553 277.694 L 240.922 277.784 272.422 277.880 C 289.747 277.933,304.045 277.851,304.196 277.698 C 304.347 277.545,303.963 276.839,303.342 276.129 L 302.213 274.839 303.199 276.221 M335.276 282.644 C 334.709 283.388,334.432 283.881,334.662 283.739 C 335.134 283.447,336.730 281.290,336.474 281.290 C 336.383 281.290,335.844 281.899,335.276 282.644 M331.207 288.018 C 329.592 289.881,329.112 290.507,329.299 290.507 C 329.408 290.507,330.108 289.760,330.856 288.848 C 332.241 287.158,332.515 286.509,331.207 288.018 M327.534 292.442 L 326.452 293.641 327.650 292.558 C 328.309 291.962,328.848 291.423,328.848 291.360 C 328.848 291.075,328.544 291.326,327.534 292.442 M75.945 292.834 C 75.945 292.898,76.484 293.437,77.143 294.032 L 78.341 295.115 77.258 293.917 C 76.249 292.800,75.945 292.549,75.945 292.834 M324.591 295.760 L 323.134 297.327 324.700 295.870 C 325.562 295.068,326.267 294.363,326.267 294.303 C 326.267 294.024,325.946 294.303,324.591 295.760 M80.000 297.327 C 81.101 298.442,82.085 299.355,82.187 299.355 C 82.288 299.355,81.470 298.442,80.369 297.327 C 79.267 296.212,78.283 295.300,78.182 295.300 C 78.080 295.300,78.899 296.212,80.000 297.327 M318.887 301.843 L 315.023 305.806 318.986 301.942 C 322.667 298.353,323.117 297.880,322.851 297.880 C 322.796 297.880,321.013 299.664,318.887 301.843 M88.833 306.083 C 89.736 307.046,90.525 307.834,90.584 307.834 C 90.860 307.834,90.568 307.503,88.940 305.975 L 87.189 304.332 88.833 306.083 M312.056 308.295 L 310.599 309.862 312.166 308.404 C 313.623 307.049,313.902 306.728,313.623 306.728 C 313.563 306.728,312.858 307.433,312.056 308.295 M91.429 308.318 C 91.429 308.382,91.968 308.921,92.627 309.516 L 93.825 310.599 92.742 309.401 C 91.733 308.284,91.429 308.033,91.429 308.318 M300.645 317.636 L 299.539 318.586 300.737 317.793 C 301.396 317.357,301.935 316.929,301.935 316.841 C 301.935 316.565,301.779 316.661,300.645 317.636 M115.760 326.603 C 116.267 327.018,116.848 327.358,117.051 327.359 C 117.445 327.362,116.779 326.852,115.576 326.230 C 115.086 325.977,115.148 326.102,115.760 326.603 M147.097 341.320 C 147.401 341.508,148.065 341.773,148.571 341.908 C 149.212 342.080,149.324 342.051,148.940 341.813 C 148.636 341.625,147.972 341.361,147.465 341.225 C 146.825 341.054,146.712 341.083,147.097 341.320 M150.968 342.686 C 151.576 342.965,152.323 343.187,152.627 343.181 C 152.931 343.175,152.599 342.946,151.889 342.673 C 150.206 342.025,149.544 342.034,150.968 342.686 M155.023 343.963 C 155.429 344.137,156.009 344.280,156.313 344.280 C 156.662 344.280,156.594 344.163,156.129 343.963 C 155.724 343.789,155.143 343.646,154.839 343.646 C 154.490 343.646,154.558 343.763,155.023 343.963 M159.078 345.069 C 159.484 345.243,160.065 345.386,160.369 345.386 C 160.717 345.386,160.649 345.269,160.184 345.069 C 159.779 344.895,159.198 344.752,158.894 344.752 C 158.545 344.752,158.614 344.869,159.078 345.069 M238.894 346.175 C 238.135 346.418,238.102 346.476,238.710 346.501 C 239.115 346.518,239.696 346.372,240.000 346.175 C 240.646 345.758,240.197 345.758,238.894 346.175 M227.097 348.387 C 225.837 348.652,225.832 348.659,226.912 348.681 C 227.521 348.694,228.350 348.561,228.756 348.387 C 229.642 348.006,228.907 348.006,227.097 348.387 M184.244 349.754 C 184.703 349.842,185.366 349.839,185.719 349.746 C 186.071 349.654,185.696 349.582,184.885 349.586 C 184.074 349.590,183.785 349.666,184.244 349.754 M217.792 349.754 C 218.251 349.842,218.914 349.839,219.267 349.746 C 219.619 349.654,219.244 349.582,218.433 349.586 C 217.622 349.590,217.334 349.666,217.792 349.754 M188.479 350.126 C 189.037 350.210,189.949 350.210,190.507 350.126 C 191.065 350.041,190.608 349.972,189.493 349.972 C 188.378 349.972,187.922 350.041,188.479 350.126 M213.180 350.126 C 213.737 350.210,214.650 350.210,215.207 350.126 C 215.765 350.041,215.309 349.972,214.194 349.972 C 213.078 349.972,212.622 350.041,213.180 350.126 M197.696 350.505 C 199.673 350.572,202.908 350.572,204.885 350.505 C 206.862 350.439,205.244 350.385,201.290 350.385 C 197.336 350.385,195.719 350.439,197.696 350.505 " stroke="none" fill="#9f9f9f" fill-rule="evenodd"></path><path id="path4" d="M201.014 19.808 C 201.774 19.887,203.018 19.887,203.779 19.808 C 204.539 19.728,203.917 19.663,202.396 19.663 C 200.876 19.663,200.253 19.728,201.014 19.808 M313.364 63.157 C 313.364 63.220,313.903 63.759,314.562 64.355 L 315.760 65.438 314.678 64.240 C 313.668 63.123,313.364 62.872,313.364 63.157 M83.854 69.032 L 82.396 70.599 83.963 69.142 C 84.825 68.340,85.530 67.635,85.530 67.575 C 85.530 67.296,85.209 67.575,83.854 69.032 M366.906 179.171 C 366.906 179.880,366.982 180.171,367.074 179.816 C 367.167 179.461,367.167 178.880,367.074 178.525 C 366.982 178.171,366.906 178.461,366.906 179.171 M366.921 190.968 C 366.921 191.880,366.993 192.253,367.080 191.797 C 367.168 191.341,367.168 190.594,367.080 190.138 C 366.993 189.682,366.921 190.055,366.921 190.968 M258.724 259.444 C 259.999 259.516,261.990 259.515,263.148 259.443 C 264.306 259.370,263.263 259.311,260.829 259.311 C 258.396 259.312,257.449 259.372,258.724 259.444 " stroke="none" fill="#7c7c7c" fill-rule="evenodd"></path></g></svg>